<svg id="bg_2" xmlns="http://www.w3.org/2000/svg" width="200.552" height="154.121" viewBox="0 0 200.552 154.121">
    <defs>
        <style>
            .cls-1{fill:#cbe0ff}
        </style>
    </defs>
    <path id="패스_2361" data-name="패스 2361" class="cls-1" d="M-203.814 409.238a7.429 7.429 0 0 1-7.42 7.42 7.425 7.425 0 0 1-7.42-7.42 7.42 7.42 0 0 1 7.42-7.42 7.425 7.425 0 0 1 7.42 7.42z" transform="translate(218.653 -401.818)"/>
    <path id="패스_2362" data-name="패스 2362" class="cls-1" d="M-194.62 409.238a7.424 7.424 0 0 1-7.416 7.42 7.425 7.425 0 0 1-7.42-7.42 7.42 7.42 0 0 1 7.42-7.42 7.419 7.419 0 0 1 7.416 7.42z" transform="translate(255.885 -401.818)"/>
    <path id="패스_2363" data-name="패스 2363" class="cls-1" d="M-185.423 409.238a7.419 7.419 0 0 1-7.416 7.42 7.425 7.425 0 0 1-7.42-7.42 7.42 7.42 0 0 1 7.42-7.42 7.414 7.414 0 0 1 7.416 7.42z" transform="translate(293.117 -401.818)"/>
    <path id="패스_2364" data-name="패스 2364" class="cls-1" d="M-176.226 409.238a7.425 7.425 0 0 1-7.42 7.42 7.419 7.419 0 0 1-7.416-7.42 7.414 7.414 0 0 1 7.416-7.42 7.42 7.42 0 0 1 7.42 7.42z" transform="translate(330.349 -401.818)"/>
    <path id="패스_2365" data-name="패스 2365" class="cls-1" d="M-167.029 409.238a7.425 7.425 0 0 1-7.42 7.42 7.421 7.421 0 0 1-7.416-7.42 7.416 7.416 0 0 1 7.416-7.42 7.42 7.42 0 0 1 7.42 7.42z" transform="translate(367.581 -401.818)"/>
    <path id="패스_2366" data-name="패스 2366" class="cls-1" d="M-203.814 418.441a7.421 7.421 0 0 1-7.42 7.427 7.417 7.417 0 0 1-7.42-7.427 7.426 7.426 0 0 1 7.42-7.427 7.431 7.431 0 0 1 7.42 7.427z" transform="translate(218.653 -364.59)"/>
    <path id="패스_2367" data-name="패스 2367" class="cls-1" d="M-194.62 418.441a7.416 7.416 0 0 1-7.416 7.427 7.417 7.417 0 0 1-7.42-7.427 7.426 7.426 0 0 1 7.42-7.427 7.425 7.425 0 0 1 7.416 7.427z" transform="translate(255.885 -364.59)"/>
    <path id="패스_2368" data-name="패스 2368" class="cls-1" d="M-185.423 418.441a7.411 7.411 0 0 1-7.416 7.427 7.417 7.417 0 0 1-7.42-7.427 7.426 7.426 0 0 1 7.42-7.427 7.421 7.421 0 0 1 7.416 7.427z" transform="translate(293.117 -364.59)"/>
    <path id="패스_2369" data-name="패스 2369" class="cls-1" d="M-176.226 418.441a7.417 7.417 0 0 1-7.42 7.427 7.411 7.411 0 0 1-7.416-7.427 7.421 7.421 0 0 1 7.416-7.427 7.426 7.426 0 0 1 7.42 7.427z" transform="translate(330.349 -364.59)"/>
    <path id="패스_2370" data-name="패스 2370" class="cls-1" d="M-167.029 418.441a7.417 7.417 0 0 1-7.42 7.427 7.413 7.413 0 0 1-7.416-7.427 7.423 7.423 0 0 1 7.416-7.427 7.426 7.426 0 0 1 7.42 7.427z" transform="translate(367.581 -364.59)"/>
    <path id="패스_2371" data-name="패스 2371" class="cls-1" d="M-203.814 427.616a7.431 7.431 0 0 1-7.42 7.427 7.426 7.426 0 0 1-7.42-7.427 7.407 7.407 0 0 1 7.42-7.4 7.412 7.412 0 0 1 7.42 7.4z" transform="translate(218.653 -327.359)"/>
    <path id="패스_2372" data-name="패스 2372" class="cls-1" d="M-194.62 427.616a7.425 7.425 0 0 1-7.416 7.427 7.426 7.426 0 0 1-7.42-7.427 7.407 7.407 0 0 1 7.42-7.4 7.406 7.406 0 0 1 7.416 7.4z" transform="translate(255.885 -327.359)"/>
    <path id="패스_2373" data-name="패스 2373" class="cls-1" d="M-185.423 427.616a7.421 7.421 0 0 1-7.416 7.427 7.426 7.426 0 0 1-7.42-7.427 7.407 7.407 0 0 1 7.42-7.4 7.4 7.4 0 0 1 7.416 7.4z" transform="translate(293.117 -327.359)"/>
    <path id="패스_2374" data-name="패스 2374" class="cls-1" d="M-176.226 427.616a7.426 7.426 0 0 1-7.42 7.427 7.421 7.421 0 0 1-7.416-7.427 7.4 7.4 0 0 1 7.416-7.4 7.407 7.407 0 0 1 7.42 7.4z" transform="translate(330.349 -327.359)"/>
    <path id="패스_2375" data-name="패스 2375" class="cls-1" d="M-167.029 427.616a7.426 7.426 0 0 1-7.42 7.427 7.423 7.423 0 0 1-7.416-7.427 7.4 7.4 0 0 1 7.416-7.4 7.407 7.407 0 0 1 7.42 7.4z" transform="translate(367.581 -327.359)"/>
    <path id="패스_2376" data-name="패스 2376" class="cls-1" d="M-203.814 436.827a7.429 7.429 0 0 1-7.42 7.42 7.425 7.425 0 0 1-7.42-7.42 7.415 7.415 0 0 1 7.42-7.42 7.42 7.42 0 0 1 7.42 7.42z" transform="translate(218.653 -290.126)"/>
    <path id="패스_2377" data-name="패스 2377" class="cls-1" d="M-194.62 436.827a7.424 7.424 0 0 1-7.416 7.42 7.425 7.425 0 0 1-7.42-7.42 7.415 7.415 0 0 1 7.42-7.42 7.414 7.414 0 0 1 7.416 7.42z" transform="translate(255.885 -290.126)"/>
    <path id="패스_2378" data-name="패스 2378" class="cls-1" d="M-185.423 436.827a7.419 7.419 0 0 1-7.416 7.42 7.425 7.425 0 0 1-7.42-7.42 7.415 7.415 0 0 1 7.42-7.42 7.409 7.409 0 0 1 7.416 7.42z" transform="translate(293.117 -290.126)"/>
    <path id="패스_2379" data-name="패스 2379" class="cls-1" d="M-176.226 436.827a7.425 7.425 0 0 1-7.42 7.42 7.419 7.419 0 0 1-7.416-7.42 7.409 7.409 0 0 1 7.416-7.42 7.415 7.415 0 0 1 7.42 7.42z" transform="translate(330.349 -290.126)"/>
    <path id="패스_2380" data-name="패스 2380" class="cls-1" d="M-167.029 436.827a7.425 7.425 0 0 1-7.42 7.42 7.421 7.421 0 0 1-7.416-7.42 7.412 7.412 0 0 1 7.416-7.42 7.415 7.415 0 0 1 7.42 7.42z" transform="translate(367.581 -290.126)"/>
</svg>
