<svg xmlns="http://www.w3.org/2000/svg" width="499.628" height="647.681" viewBox="0 0 499.628 647.681">
    <g data-name="그룹 909">
        <path data-name="패스 2354" d="M573.8 2831.863s39.179 93.979-37.895 162.19c-78.4 69.381-75.789 207.663 92.463 210.694 189.99 3.424 306.948-28.8 342.569 141.727 0 0 6.618 35.844 5.257 67.609a138.643 138.643 0 0 1-1.468 15.38c-5.306 33.726 4.4 48.116 4.4 48.116" transform="translate(-485.518 -2831.671)" style="fill:none;stroke:#4a63fe;stroke-miterlimit:10;stroke-dasharray:3 2 3 2 3 2"/>
        <path data-name="다각형 5" d="M6.7 1.067a1 1 0 0 1 1.6 0L13.8 8.4A1 1 0 0 1 13 10H2a1 1 0 0 1-.8-1.6z" transform="rotate(166 210.274 352.699)" style="fill:#4a63fe"/>
    </g>
</svg>
