<svg xmlns="http://www.w3.org/2000/svg" width="273.31" height="124.469" viewBox="0 0 273.31 124.469">
    <defs>
        <style>
            .cls-1{fill:none;stroke:#4a63fe;stroke-miterlimit:10;stroke-dasharray:3 2 3 2 3 2}.cls-2{fill:#4a63fe}
        </style>
    </defs>
    <g id="그룹_879" data-name="그룹 879" transform="translate(-56.843 1.589)">
        <path id="패스_2351" data-name="패스 2351" class="cls-1" d="M631.194 2203.047c9.042-10.368 8.34-21.976 70.072-18.605 61.91 5.6 71.411-29.928 71.411-29.928" transform="rotate(-22 -5064.36 2579.56)"/>
        <path id="패스_2352" data-name="패스 2352" class="cls-1" d="M967.246 2146.076s25.562 32.708 80.406 17.171 72.425 34.744 72.425 34.744" transform="rotate(29 4731.053 -418.565)"/>
        <path id="다각형_2" data-name="다각형 2" class="cls-2" d="M2.76 1.067a1 1 0 0 1 1.6 0l1.56 2.08a1 1 0 0 1-.8 1.6H2a1 1 0 0 1-.8-1.6z" transform="scale(-1) rotate(-6.02 -999.682 703.475)"/>
        <path id="다각형_3" data-name="다각형 3" class="cls-2" d="M2.76 1.067a1 1 0 0 1 1.6 0l1.56 2.08a1 1 0 0 1-.8 1.6H2a1 1 0 0 1-.8-1.6z" transform="rotate(-167.96 159.638 45.336)"/>
    </g>
</svg>
