<svg xmlns="http://www.w3.org/2000/svg" width="814.05" height="410.677"><defs><clipPath id="clip-path"><circle id="타원_126" data-name="타원 126" class="cls-1" cx="14.55" cy="14.55" r="14.55" transform="rotate(-22.372 28.005 5.538)"/></clipPath><clipPath id="clip-path-2"><path id="패스_1343" data-name="패스 1343" class="cls-1" d="M450.327 360.953h-24.111l-4.106-15.579h24.116z" transform="translate(-422.11 -345.374)"/></clipPath><clipPath id="clip-path-3"><path id="패스_1346" data-name="패스 1346" class="cls-1" d="M453.966 365.876h-22.984l-3.916-14.854h22.988z" transform="translate(-427.066 -351.022)"/></clipPath><style>.cls-1,.cls-19,.cls-20,.cls-25,.cls-33,.cls-46,.cls-51,.cls-54,.cls-7,.cls-9{fill:none}.cls-2{fill:#e1f1ff}.cls-19,.cls-20,.cls-7{stroke-linejoin:round}.cls-11,.cls-4{fill:#fff}.cls-19,.cls-4{stroke:#89b5f4}.cls-25,.cls-33,.cls-4,.cls-46,.cls-51,.cls-54,.cls-9{stroke-miterlimit:10}.cls-4{stroke-width:2px}.cls-20,.cls-7{stroke:#4a63fe}.cls-7{stroke-dasharray:3 2}.cls-9{stroke:#fff}.cls-12{fill:#4a63fe}.cls-17{fill:#202263}.cls-20{stroke-width:.75px}.cls-23{fill:#212237}.cls-24{fill:#ffceb6}.cls-25{stroke:#4d59a3}.cls-25,.cls-33,.cls-46,.cls-54{stroke-width:.5px}.cls-26,.cls-47{fill:#f2b18f}.cls-27{fill:#ffd9c0}.cls-28{fill:#ffc088}.cls-29{fill:#ffaf5f}.cls-30{fill:#f78d37}.cls-31{fill:#ffcda4}.cls-33{stroke:#6e94ff}.cls-34{fill:#2c1817}.cls-35{fill:#c7e2ff}.cls-36{fill:#f0f8ff}.cls-39{fill:#a4d0ff}.cls-41{fill:#ff7d12}.cls-42{fill:#2e53ed}.cls-45{fill:#103bb2}.cls-46{stroke:#4873d3}.cls-47{fill-rule:evenodd}.cls-50{fill:#22252d}.cls-51{stroke:#254bb7}.cls-54{stroke:#1c38ad}</style></defs><g id="img_2" transform="translate(0 .55)"><path id="패스_1254" data-name="패스 1254" class="cls-2" d="M436.345 219.739a8.2 8.2 0 013.382.727 6.409 6.409 0 01-.175-1.464 6.161 6.161 0 0112.075-1.733 13.954 13.954 0 0127.9.594 13.66 13.66 0 01-.26 2.652 9.6 9.6 0 117.3 15.837h-50.222a8.307 8.307 0 110-16.613z" transform="translate(317.875 -132.659)"/><path id="패스_1255" data-name="패스 1255" d="M424.154 475.453c-30.613-6.6-72.166 11.346-103.53 14.132-59.343 5.261-94.709-21.915-110.3-48.582-19.545-33.425-13.55-76.705 20.081-108.983 37.578-36.071 76.553-33.01 122.805-48.4 41.582-13.831 76.482-48.378 108.377-84.482 53.447-60.515 156.323-50.145 183.831 38.907 9.385 30.371 11.184 60.465 40.417 79.212 35.256 22.6 80.388 20.154 118.591 35.184 32.476 12.778 57.791 46.257 52.036 82.2-6.387 39.882-46.79 71.282-83.411 82.129-39.49 11.7-76.68 6.464-116.611 8.71" transform="translate(-87.979 -160.977)" stroke-linejoin="round" stroke="#cbe0ff" stroke-dasharray="3 2.5" fill="none"/><g id="그룹_473" data-name="그룹 473" transform="translate(305.431 52.356)"><g id="그룹_472" data-name="그룹 472" transform="translate(54.521 289.222)"><path id="선_14" data-name="선 14" class="cls-4" d="M0 68.422L8.756 0"/><path id="선_15" data-name="선 15" class="cls-4" transform="translate(102.863)" d="M8.756 68.422L0 0"/></g><path id="사각형_304" data-name="사각형 304" d="M0 0h220.661v294.681H0z" stroke-miterlimit="10" stroke="#89b5f4" fill="#fff"/><path id="사각형_305" data-name="사각형 305" transform="rotate(90 98.216 110.33)" d="M0 0h270.452v196.433H0z" fill="#f4f8fc"/></g><g id="그룹_479" data-name="그룹 479" transform="translate(357.472 87.908)"><g id="그룹_474" data-name="그룹 474" transform="translate(0 109.191)"><path id="패스_1256" data-name="패스 1256" class="cls-7" d="M354.72 281.347s16.873 44.148 4.521 48.96-24.69 38.953-24.69 38.953c-.012-.085-6.45-36.963-2.4-56.717 4.064-19.773 22.569-31.196 22.569-31.196z" transform="translate(-330.817 -281.347)"/><path id="패스_1257" data-name="패스 1257" class="cls-7" d="M391.523 281.347s-16.875 44.148-4.524 48.96 24.685 38.953 24.685 38.953c.015-.085 6.455-36.963 2.393-56.717-4.046-19.773-22.554-31.196-22.554-31.196z" transform="translate(-297.887 -281.347)"/></g><path id="선_16" data-name="선 16" d="M58.618 24.831V0" stroke-linecap="round" stroke="#202263" stroke-width="2" stroke-linejoin="round" fill="none"/><path id="패스_1258" data-name="패스 1258" class="cls-9" d="M404.185 315.911c1.633 30.286-26.973 48.655-26.973 48.655s-27.01-17.839-26.978-48.655c.02-13.962 53.209-13.943 53.951 0z" transform="translate(-318.441 -156.799)"/><path id="패스_1259" data-name="패스 1259" class="cls-9" d="M374.37 351.791c-6.594-5.764-19.092-19.126-19.519-37.883 1.978-1.462 8.706-3.691 19.131-3.691 10.945 0 17.881 2.4 19.771 3.948.576 18.47-12.513 31.881-19.383 37.626z" transform="translate(-315.5 -153.757)"/><path id="패스_1260" data-name="패스 1260" class="cls-9" d="M371.387 340.173c-4.751-5.193-11.987-16.941-11.677-27.29a56.094 56.094 0 0123.015.193c.252 10.557-6.384 21.904-11.338 27.097z" transform="translate(-312.407 -152.758)"/><path id="패스_1261" data-name="패스 1261" d="M417.013 260.51c-11.345-25.779-34.609-36.963-34.609-36.963-4.119 1.731-23.281 11.184-34.624 36.963-13.7 31.143 1.68 111.191 1.68 111.191h65.872s15.38-80.048 1.681-111.191z" transform="translate(-323.629 -208.998)" fill="#ffac06"/><g id="그룹_475" data-name="그룹 475" transform="translate(23.328 147.624)"><path id="패스_1262" data-name="패스 1262" class="cls-11" d="M345.87 310.063h69.263c.251-1.592.525-3.347.813-5.244h-70.882c.281 1.897.552 3.652.806 5.244z" transform="translate(-345.064 -304.819)"/></g><circle id="타원_125" data-name="타원 125" class="cls-12" cx="14.55" cy="14.55" transform="rotate(-22.372 169.513 -70.982)" r="14.55"/><g id="그룹_478" data-name="그룹 478" transform="translate(39.776 48.101)" opacity=".5"><g id="그룹_477" data-name="그룹 477" clip-path="url(#clip-path)"><g id="그룹_476" data-name="그룹 476" transform="translate(2.234 1.742)" opacity=".44"><path id="사각형_306" data-name="사각형 306" class="cls-11" transform="rotate(42.2 10.392 37.158)" d="M0 0h3.479v36.278H0z"/><path id="사각형_307" data-name="사각형 307" class="cls-11" transform="rotate(42.202 7.339 44.132)" d="M0 0h2.236v36.278H0z"/><path id="사각형_308" data-name="사각형 308" class="cls-11" transform="rotate(42.202 12.185 31.577)" d="M0 0h2.236v36.278H0z"/></g></g></g><path id="패스_1263" data-name="패스 1263" d="M374.374 243.609a19.7 19.7 0 1019.7 19.695 19.7 19.7 0 00-19.7-19.695zm0 34.246a14.55 14.55 0 1114.56-14.555 14.55 14.55 0 01-14.56 14.554z" transform="translate(-315.606 -196.211)" stroke="#202263" stroke-dasharray="3 2" stroke-miterlimit="10" fill="none"/><path id="패스_1264" data-name="패스 1264" class="cls-17" d="M403.386 246.328a80.14 80.14 0 00-26.3-22.781c-3.254 1.37-15.877 7.552-26.636 22.766z" transform="translate(-318.301 -208.998)"/><path id="패스_1265" data-name="패스 1265" class="cls-11" d="M348.572 240.733h59.253c-.22-.352-.437-.691-.659-1.03H349.2c-.21.339-.425.679-.628 1.03z" transform="translate(-319.503 -198.7)"/><path id="패스_1266" data-name="패스 1266" d="M369.585 284.6c-13.948 2.329-4.487 72.984-1.084 95.645a1.082 1.082 0 002.163 0c3.404-22.663 12.867-93.318-1.079-95.645z" transform="translate(-310.816 -170.083)" stroke-dasharray="3 2" stroke="#4a63fe" stroke-miterlimit="10" fill="none"/></g><g id="그룹_490" data-name="그룹 490" transform="translate(329.748 90.249)"><g id="그룹_480" data-name="그룹 480" transform="translate(140.103)"><path id="선_17" data-name="선 17" class="cls-19" d="M0 0h19.984"/><path id="선_18" data-name="선 18" class="cls-19" transform="translate(0 3.653)" d="M0 0h31.85"/><path id="선_19" data-name="선 19" class="cls-19" transform="translate(0 7.306)" d="M0 0h31.85"/><path id="선_20" data-name="선 20" class="cls-19" transform="translate(0 10.959)" d="M0 0h31.85"/></g><g id="그룹_481" data-name="그룹 481" transform="translate(5.587 22.777)"><path id="선_21" data-name="선 21" class="cls-19" d="M0 0h19.984"/><path id="선_22" data-name="선 22" class="cls-19" transform="translate(0 3.653)" d="M0 0h31.851"/><path id="선_23" data-name="선 23" class="cls-19" transform="translate(0 7.306)" d="M0 0h31.851"/><path id="선_24" data-name="선 24" class="cls-19" transform="translate(0 10.959)" d="M0 0h31.851"/></g><g id="그룹_482" data-name="그룹 482" transform="translate(140.103 65.61)"><path id="선_25" data-name="선 25" class="cls-19" transform="translate(20.836)" d="M0 0h11.103"/><path id="선_26" data-name="선 26" class="cls-19" transform="translate(0 3.653)" d="M0 0h31.85"/><path id="선_27" data-name="선 27" class="cls-19" transform="translate(0 7.306)" d="M0 0h31.85"/><path id="선_28" data-name="선 28" class="cls-19" transform="translate(0 10.959)" d="M0 0h31.85"/></g><g id="그룹_483" data-name="그룹 483" transform="translate(0 210.871)"><path id="선_29" data-name="선 29" class="cls-19" transform="translate(20.836)" d="M0 0h11.103"/><path id="선_30" data-name="선 30" class="cls-19" transform="translate(0 3.653)" d="M0 0h31.85"/><path id="선_31" data-name="선 31" class="cls-19" transform="translate(0 7.306)" d="M0 0h31.85"/><path id="선_32" data-name="선 32" class="cls-19" transform="translate(0 10.959)" d="M0 0h31.85"/></g><g id="그룹_484" data-name="그룹 484" transform="translate(127.345 205.864)"><path id="선_33" data-name="선 33" class="cls-19" d="M19.849 0H0"/><path id="선_34" data-name="선 34" class="cls-19" transform="translate(.089 3.653)" d="M31.85 0H0"/><path id="선_35" data-name="선 35" class="cls-19" transform="translate(.089 7.306)" d="M31.85 0H0"/><path id="선_36" data-name="선 36" class="cls-19" transform="translate(.089 10.959)" d="M31.85 0H0"/></g><g id="그룹_485" data-name="그룹 485" transform="translate(87.858 4.518)"><path id="패스_1267" data-name="패스 1267" class="cls-20" d="M368.285 240.27h21.421v-21.419H413.5" transform="translate(-367.068 -218.851)"/><circle id="타원_127" data-name="타원 127" class="cls-12" cx="1.215" cy="1.215" r="1.215" transform="translate(0 20.203)"/></g><g id="그룹_486" data-name="그룹 486" transform="translate(18.91 38.827)"><path id="패스_1268" data-name="패스 1268" class="cls-20" d="M373.342 265.732h-47.908V239.8" transform="translate(-325.434 -239.804)"/><path id="패스_1269" data-name="패스 1269" class="cls-12" d="M356.38 256.137a1.215 1.215 0 10-1.216 1.216 1.218 1.218 0 001.216-1.216z" transform="translate(-307.256 -230.17)"/></g><g id="그룹_487" data-name="그룹 487" transform="translate(9.741 134.304)"><path id="패스_1270" data-name="패스 1270" class="cls-20" d="M348.485 298.856h-28.65v69.9" transform="translate(-319.835 -297.639)"/><path id="패스_1271" data-name="패스 1271" class="cls-12" d="M339.025 299.328a1.217 1.217 0 10-1.213 1.218 1.216 1.216 0 001.213-1.218z" transform="translate(-309.155 -298.115)"/></g><g id="그룹_488" data-name="그룹 488" transform="translate(84.165 133.157)"><path id="패스_1272" data-name="패스 1272" class="cls-20" d="M366.029 298.156h26.814v71.052h11.877" transform="translate(-364.812 -296.94)"/><path id="패스_1273" data-name="패스 1273" class="cls-12" d="M367.714 298.635a1.213 1.213 0 10-1.213 1.211 1.216 1.216 0 001.213-1.211z" transform="translate(-365.287 -297.414)"/></g><g id="그룹_489" data-name="그룹 489" transform="translate(133.444 80.796)"><path id="패스_1274" data-name="패스 1274" class="cls-20" d="M396.125 314.43H415.6v-48.994" transform="translate(-394.908 -265.436)"/><circle id="타원_128" data-name="타원 128" class="cls-12" cx="1.215" cy="1.215" r="1.215" transform="translate(0 48.064)"/></g></g><path id="패스_1290" data-name="패스 1290" class="cls-2" d="M257.945 280.058a15.32 15.32 0 00-6.245 1.342 11.619 11.619 0 00.333-2.7 11.392 11.392 0 00-22.326-3.207 25.77 25.77 0 10-51.041 6 17.734 17.734 0 10-13.48 29.252h92.762a15.34 15.34 0 100-30.679z" transform="translate(-147.442 -45.661)"/><g id="그룹_522" data-name="그룹 522" transform="translate(619.464 120.169)"><g id="그룹_511" data-name="그룹 511" transform="translate(6.579 99.385)"><g id="그룹_508" data-name="그룹 508" transform="translate(25.974 149.273)"><path id="패스_1296" data-name="패스 1296" class="cls-23" d="M511.835 413.764l30-13.677-1.118-2.388-30.017 13.675z" transform="translate(-510.702 -378.909)"/><path id="패스_1297" data-name="패스 1297" class="cls-12" d="M531.913 392.978l2.886-.571s2.529 2.939 4 5.127a17.953 17.953 0 011.924 3.535L510.7 414.75s.117-1.921 5.371-9.377a16.91 16.91 0 002.642-5.481z" transform="translate(-510.702 -382.287)"/><path id="패스_1298" data-name="패스 1298" class="cls-24" d="M530.478 386.227l4.321 10.117s-.566 2.1-5.674 4.419a42.781 42.781 0 01-10.41 3.071l-8.015-15.417" transform="translate(-510.702 -386.227)"/></g><g id="그룹_509" data-name="그룹 509" transform="translate(43.46 160.246)"><path id="사각형_316" data-name="사각형 316" class="cls-23" transform="rotate(179.935 16.483 15.09)" d="M0 0h32.981v2.174H0z"/><path id="패스_1299" data-name="패스 1299" class="cls-12" d="M549.668 403.011l2.856.674s1.084 3.726 1.5 6.313a23.371 23.371 0 01.327 4.492l-32.974.029s.859-2.158 8.726-6.768a17.063 17.063 0 004.678-3.906z" transform="translate(-521.382 -386.498)"/><path id="패스_1300" data-name="패스 1300" class="cls-24" d="M547.91 399.114l-.249 10.994s-1.4 1.68-6.987 1.68a43.069 43.069 0 01-10.762-1.506L529 392.927" transform="translate(-516.523 -392.927)"/></g><g id="그룹_510" data-name="그룹 510"><path id="패스_1301" data-name="패스 1301" class="cls-17" d="M517.805 299.389s-21.045 53.8-22.871 79.224 23.6 80.515 23.6 80.515L547 447.633s-19.38-49.045-16.353-64.182 15.742-48.428 15.742-48.428l3.633-39.961" transform="translate(-494.841 -295.063)"/><path id="패스_1302" data-name="패스 1302" class="cls-17" d="M554.644 299.839c8.682 16.394 5.928 77.5 5.039 97.527s1.206 65.994 1.206 65.994h-32.5s-5.552-49.746-7.524-74.751c-1.719-21.748-5.913-59.229-3.286-84.226" transform="translate(-480.88 -292.019)"/><path id="패스_1303" data-name="패스 1303" class="cls-25" d="M536.9 308.128c6.221 38.875 3.506 54.028 3.11 82.793s2.4 67.065 2.4 67.065" transform="translate(-468.025 -286.735)"/><path id="선_67" data-name="선 67" class="cls-25" transform="translate(46.95 164.752)" d="M0 .464L32.694 0"/><path id="패스_1304" data-name="패스 1304" class="cls-25" d="M529.186 309.735c.552 10.364 14.17 8.857 14.17 8.857" transform="translate(-472.956 -285.711)"/><path id="패스_1305" data-name="패스 1305" class="cls-25" d="M516.559 310.122c-1.069 21.382 2.48 53.748 2.48 53.748" transform="translate(-481.123 -285.463)"/><path id="패스_1306" data-name="패스 1306" class="cls-25" d="M513.081 310.886c-.527 15.52 5.522 15.613 5.522 15.613" transform="translate(-483.225 -284.98)"/><path id="패스_1307" data-name="패스 1307" class="cls-25" d="M512.611 310.965c-2.2 6.316-9.546 4.6-9.546 4.6" transform="translate(-489.599 -284.924)"/><path id="패스_1308" data-name="패스 1308" class="cls-25" d="M520.442 335.733s-6.309 12.627-7.754 25.247 13.779 46.76 13.779 46.76" transform="translate(-483.528 -269.14)"/><path id="선_68" data-name="선 68" class="cls-25" transform="translate(21.106 148.688)" d="M0 9.125L23.769 0"/></g></g><path id="패스_1310" data-name="패스 1310" class="cls-26" d="M530.252 251.284l.923 13.04s-6.816 6.921-13.936-.735l1.025-8.511z" transform="translate(-473.979 -223.582)"/><g id="그룹_521" data-name="그룹 521" transform="translate(0 25.44)"><path id="패스_1314" data-name="패스 1314" class="cls-12" d="M548.046 259.421a13.645 13.645 0 01-7.632 2.129c-4.746 0-6.255-2.817-6.255-2.817s-18.774.5-28.169 9.512c-10.269 9.846-20.269 30.43-12.261 43.792s30.439-3.293 30.439-3.293" transform="translate(-490.822 -244.272)"/><path id="패스_1315" data-name="패스 1315" class="cls-12" d="M519.637 262.177c-14.512-4.053-15.918 77.432-15.918 77.432 9.395 5.833 65.342 3.943 65.342 3.943s5.488-47.385-11.821-75.586c-3.369-5.5-17.417-8.809-17.417-8.809s-10.01 5.854-20.186 3.02z" transform="translate(-482.602 -243.998)"/><g id="그룹_514" data-name="그룹 514" transform="translate(.375)"><path id="패스_1316" data-name="패스 1316" class="cls-27" d="M491.208 256.666l18.662-3.564L523.6 331.7s-1.392 3.755-7.217 4.863-9.272-1.711-9.272-1.711z" transform="translate(-490.952 -247.865)"/><path id="패스_1317" data-name="패스 1317" class="cls-28" d="M497.98 250.123s9.409-1.516 11.611 3.408-2.886 7.717-7.173 8.813-12.456.747-10.967-5.21c1.289-5.229 9.951-5.276 11.909-3.823s2.217 4.917-3.413 5.708c-5.61.793-3.569-3.975-.679-4.17" transform="translate(-490.91 -249.903)"/><path id="패스_1318" data-name="패스 1318" class="cls-29" d="M496.7 257.232s1.855 2.378 5.576.593 3.882-8.413-5.527-5.942c-9.482 2.49-5.684 10.708.928 10.217z" transform="translate(-491.051 -248.988)"/><path id="패스_1319" data-name="패스 1319" class="cls-30" d="M497.8 257.522l-.884-4.634s-2.837 1.079-2.612 2.776c.277 2.104 3.496 1.858 3.496 1.858z" transform="translate(-488.981 -247.999)"/><path id="패스_1320" data-name="패스 1320" class="cls-31" d="M494.309 255.692l1 5.305a18.5 18.5 0 008.462-1.855l-1.147-6.04s.264 2.925-3.4 3.879-4.915-1.289-4.915-1.289z" transform="translate(-488.973 -247.861)"/></g><g id="그룹_515" data-name="그룹 515" transform="translate(23.95 8.337)"><path id="패스_1321" data-name="패스 1321" d="M505.536 259.066l13.589-.51 1.68 68.335a6.29 6.29 0 01-5.615 3.147 7.828 7.828 0 01-6.4-2.69z" transform="translate(-505.395 -252.725)" fill="#ffead7"/><path id="패스_1322" data-name="패스 1322" class="cls-28" d="M511.229 254.994s6.821-.022 7.891 4.434c1.05 4.46-2.842 6.147-6 6.5s-8.916-1.045-7.251-5.884c1.46-4.25 7.6-3.127 8.843-1.636s1.064 4.463-3 4.375-2.119-3.84-.059-3.616" transform="translate(-505.37 -254.994)"/><path id="패스_1323" data-name="패스 1323" class="cls-29" d="M509.475 260.815a2.952 2.952 0 003.892 1.248c2.813-1.013 3.618-6.592-3.306-5.769-6.987.835-5.137 8.293-.4 8.772z" transform="translate(-505.448 -254.215)"/><path id="패스_1324" data-name="패스 1324" class="cls-30" d="M510.087 261.507l-.156-4.031s-2.119.525-2.134 2c-.015 1.806 2.29 2.031 2.29 2.031z" transform="translate(-503.956 -253.413)"/><path id="패스_1325" data-name="패스 1325" class="cls-31" d="M507.794 259.2l.156 4.619a11.141 11.141 0 006.191-.437l-.19-5.259a3.06 3.06 0 01-2.812 2.827 2.912 2.912 0 01-3.345-1.75z" transform="translate(-503.953 -252.997)"/></g><g id="그룹_516" data-name="그룹 516" transform="translate(31.099 12.035)"><path id="패스_1326" data-name="패스 1326" class="cls-27" d="M530.146 259.386l16.387 5.33-22.246 64.641s-2.686 2.2-7.808.542-6.665-5.249-6.665-5.249z" transform="translate(-509.814 -255.892)"/><path id="패스_1327" data-name="패스 1327" class="cls-28" d="M531.376 257.253s8.145 2.9 7.822 7.517-5.557 4.541-9.443 3.523-10.244-4.783-6.548-8.6c3.257-3.352 10.166.327 11.123 2.256s-.317 4.617-5.132 2.8-1.172-4.5 1.221-3.408" transform="translate(-501.986 -257.253)"/><path id="패스_1328" data-name="패스 1328" class="cls-29" d="M526.9 262.24s.479 2.573 4.2 2.834 6.636-4.631-1.9-6.807c-8.608-2.212-9.053 5.562-3.569 8.032z" transform="translate(-502.033 -256.857)"/><path id="패스_1329" data-name="패스 1329" class="cls-30" d="M527.033 263.477l1.255-3.848s-2.71-.41-3.257.957c-.669 1.685 2.002 2.891 2.002 2.891z" transform="translate(-500.181 -255.774)"/><path id="패스_1330" data-name="패스 1330" class="cls-31" d="M525.523 260.27l-1.45 4.392a17.666 17.666 0 007.527 2.238l1.636-5s-1.016 2.3-4.351 1.44-3.362-3.07-3.362-3.07z" transform="translate(-500.725 -255.328)"/></g><g id="그룹_518" data-name="그룹 518" transform="translate(36.604 39.136)"><g id="그룹_517" data-name="그룹 517"><path id="패스_1331" data-name="패스 1331" class="cls-26" d="M513.176 281.334c1.782-1.414 8.989-7.039 9.351-6.541.342.488-2.046 3.005-1.738 3.147.444.19 2.617-1.311 3.75-2.268 1.011-.854 2.783-2.056 3.213-1.66.815.747-4.81 5.354-4.81 5.354.249.229 5.122-6.084 5.874-5.527 1.069.8-4.6 7.031-4.565 7.449 0 0 3.408-6.77 4.2-6.179s-2.1 6.721-3.54 8.127c.957-1.377 2.617-6.692 3.193-6.262s-1.26 4.729-1.675 5.293a39.515 39.515 0 01-7.48 7.463" transform="translate(-513.176 -273.804)"/></g></g><path id="패스_1332" data-name="패스 1332" class="cls-12" d="M493.885 285.209c12.363-.256 35.84-10.742 35.84-10.742l9.3 13.052s-21.138 18.7-39.717 19.534z" transform="translate(-488.87 -234.241)"/><path id="패스_1333" data-name="패스 1333" class="cls-33" d="M526.249 296.105l11.855-8.586-9.304-13.052s-17.4 8.123-33.462 10.562" transform="translate(-487.944 -234.241)"/><g id="그룹_520" data-name="그룹 520" transform="translate(13.513 80.182)"><g id="그룹_519" data-name="그룹 519"><path id="패스_1334" data-name="패스 1334" class="cls-26" d="M517.448 299.572c-2.261-.232-12.515-1.1-12.539-.483-.024.586 3.34 1.416 3.149 1.7-.269.408-2.905.313-4.375.117-1.318-.168-3.452-.232-3.6.334-.283 1.067 6.943 1.912 6.943 1.912-.088.325-7.593-2.356-7.93-1.484-.464 1.25 7.671 3.442 7.871 3.811 0 0-6.523-3.865-6.875-2.937s5.4 4.521 7.363 4.932c-1.553-.64-5.815-4.219-6.069-3.545s3.613 3.3 4.272 3.545a40.509 40.509 0 0010.859 2.209" transform="translate(-499.074 -298.872)"/></g></g><path id="패스_1335" data-name="패스 1335" class="cls-12" d="M531.645 334.482c10.605-6.218 20.845-22.847 21.978-39.739.752-11.028-6.621-25.2-16.113-31.5" transform="translate(-464.798 -241.403)"/><path id="패스_1336" data-name="패스 1336" class="cls-12" d="M537.1 293.606a138.335 138.335 0 01-29.053 8.386L505.58 321.4c7.939.623 29.126.74 43.794-6.829" transform="translate(-481.415 -222.046)"/><path id="패스_1337" data-name="패스 1337" class="cls-33" d="M516.826 320.669s18.677-2.622 25.361-6.575c11.143-6.58 15.708-19.727 15.708-19.727" transform="translate(-474.247 -221.559)"/><path id="패스_1338" data-name="패스 1338" class="cls-33" d="M507.088 312.818s20.43-3.477 30.591-9.2c8.052-4.521 9.629-26.982 9.629-26.982" transform="translate(-480.452 -232.863)"/></g><g id="그룹_791" data-name="그룹 791" transform="translate(35.014)"><path id="패스_1309" data-name="패스 1309" class="cls-26" d="M518.5 243.807s-7.676 19.9-1.377 26.543c3.271 3.464 13.13 4.268 17.422 1 3.184-2.424 8.12-17.734 6.421-20.481-6.541-10.469-22.466-7.062-22.466-7.062z" transform="translate(-513.185 -234.712)"/><g id="그룹_512" data-name="그룹 512"><path id="패스_1312" data-name="패스 1312" class="cls-23" d="M548.242 264.6c.845-4.255 3.008-6.58 2.715-11.511a5.841 5.841 0 00-4.687-5.811s-.532-2.52-4.8-4.438-19.272-5.5-26.143.4c-1.318 1.143-2.715 8.137 2.285 9.749 8.184 2.625 19.292-2 21.426 3.215a9.446 9.446 0 01.249 5.239 14.043 14.043 0 00-.156 1.753l2.51 1.135c3.184 1.343-1.953 7.466-1.006 9.724.479 1.187 3.057 1.228 5.054-.222s1.66-4.59 2.553-9.233z" transform="translate(-514.083 -240)"/></g><path id="패스_1313" data-name="패스 1313" class="cls-26" d="M525.156 250.969c1.973-3.062 3.843-2.773 4.99-1.313 1.514 1.968-.718 6.56-1.914 7.417-2.339 1.738-4.395 1.775-4.785-.247" transform="translate(-498.973 -226.134)"/><g id="그룹_777" data-name="그룹 777" transform="rotate(5.13 -154.985 43.08)"><path id="패스_2239" data-name="패스 2239" class="cls-34" d="M0 .8c-.015.552 2.361 1.2 3.775 1.322s1.913-.28 1.925-.832S4 .144 2.586.024.015.253 0 .8z" transform="translate(10.657 .859)"/><path id="패스_2240" data-name="패스 2240" class="cls-34" d="M0 1.428c-.042.808.236 1.48.62 1.5s.736-.619.78-1.428S1.162.02.777 0 .046.62 0 1.428z" transform="translate(10.662 4.94)"/><path id="패스_2241" data-name="패스 2241" class="cls-34" d="M5.7 1.243c-.015.552-2.414.8-3.828.676S-.015 1.309 0 .758 1.755-.094 3.168.026 5.717.691 5.7 1.243z"/><path id="패스_2242" data-name="패스 2242" class="cls-34" d="M1.4 1.5c-.043.808-.388 1.447-.773 1.427s-.663-.692-.62-1.5S.392-.019.777 0s.663.692.623 1.5z" transform="translate(3.705 4.578)"/><path id="패스_2243" data-name="패스 2243" class="cls-34" d="M1.075 9.741h-.036A1.118 1.118 0 01.1 9.27c-.309-.48.157-3.579.8-7.581C1 1.061 1.09.483 1.164 0l.318.048c-.074.484-.167 1.063-.268 1.692C.825 4.166.1 8.681.368 9.1a.8.8 0 00.679.324h.03a.944.944 0 00.762-.329l.261.187a1.27 1.27 0 01-1.025.459z" transform="translate(6.676 3.954)"/><path id="패스_2244" data-name="패스 2244" class="cls-34" d="M2.073 1.757A3.566 3.566 0 010 .8L.221.563a3.23 3.23 0 001.957.869C3.115 1.36 3.9.014 3.912 0l.278.161c-.035.061-.88 1.508-1.99 1.591a1.75 1.75 0 01-.127.005z" transform="translate(6.381 16.296)"/></g></g></g><g id="그룹_547" data-name="그룹 547" transform="translate(399.471 249.246)"><g id="그룹_539" data-name="그룹 539" transform="translate(98.834 47.66)"><path id="패스_1339" data-name="패스 1339" class="cls-12" d="M427.13 377.452a2.19 2.19 0 01-2.13-1.658l-8.1-30.725a2.188 2.188 0 01.4-1.912 2.165 2.165 0 011.733-.854h39.048a2.226 2.226 0 012.144 1.65l8.091 30.725a2.225 2.225 0 01-2.134 2.773z" transform="translate(-416.829 -342.303)"/><path id="패스_1340" data-name="패스 1340" class="cls-35" d="M465.561 375.25h-39.053a.639.639 0 01-.6-.471l-8.1-30.73a.625.625 0 01.6-.781h39.052a.643.643 0 01.615.464l8.1 30.737a.632.632 0 01-.614.781z" transform="translate(-416.209 -341.688)"/><g id="그룹_530" data-name="그룹 530" transform="translate(6.852 4.036)"><path id="패스_1342" data-name="패스 1342" class="cls-36" d="M452.829 362.336h-27.178l-4.639-17.568H448.2z" transform="translate(-421.012 -344.768)"/><g id="그룹_529" data-name="그룹 529" transform="translate(1.797 .992)"><g id="그룹_528" data-name="그룹 528" clip-path="url(#clip-path-2)"><g id="그룹_527" data-name="그룹 527" transform="translate(-2.649 1.879)" opacity=".35"><g id="그룹_523" data-name="그룹 523"><path id="사각형_317" data-name="사각형 317" class="cls-39" d="M0 0h35.242v1.242H0z"/></g><g id="그룹_524" data-name="그룹 524" transform="translate(0 3.529)"><path id="사각형_318" data-name="사각형 318" class="cls-39" d="M0 0h35.242v1.242H0z"/></g><g id="그룹_525" data-name="그룹 525" transform="translate(0 7.057)"><path id="사각형_319" data-name="사각형 319" class="cls-39" d="M0 0h35.242v1.242H0z"/></g><g id="그룹_526" data-name="그룹 526" transform="translate(0 10.586)"><path id="사각형_320" data-name="사각형 320" class="cls-39" d="M0 0h35.242v1.242H0z"/></g></g></g></g></g><g id="그룹_538" data-name="그룹 538" transform="translate(15.054 13.331)"><path id="패스_1345" data-name="패스 1345" class="cls-36" d="M456.329 367.183H430.42l-4.4-16.739h25.913z" transform="translate(-426.021 -350.445)"/><g id="그룹_537" data-name="그룹 537" transform="translate(1.713 .946)"><g id="그룹_536" data-name="그룹 536" clip-path="url(#clip-path-3)"><g id="그룹_535" data-name="그룹 535" transform="translate(-2.524 1.79)"><g id="그룹_531" data-name="그룹 531"><path id="사각형_321" data-name="사각형 321" class="cls-35" d="M0 0h33.586v1.184H0z"/></g><g id="그룹_532" data-name="그룹 532" transform="translate(0 3.363)"><path id="사각형_322" data-name="사각형 322" class="cls-35" d="M0 0h33.586v1.183H0z"/></g><g id="그룹_533" data-name="그룹 533" transform="translate(0 6.726)"><path id="사각형_323" data-name="사각형 323" class="cls-35" d="M0 0h33.586v1.183H0z"/></g><g id="그룹_534" data-name="그룹 534" transform="translate(0 10.088)"><path id="사각형_324" data-name="사각형 324" class="cls-35" d="M0 0h33.586v1.183H0z"/></g></g></g></g></g></g><g id="그룹_542" data-name="그룹 542" transform="translate(0 105.473)"><g id="그룹_540" data-name="그룹 540" transform="translate(0 21.38)"><path id="사각형_325" data-name="사각형 325" class="cls-41" transform="rotate(-95.969 16.56 14.933)" d="M0 0h32.981v1.477H0z"/><path id="패스_1347" data-name="패스 1347" class="cls-42" d="M372.416 417.543l-.376 2.908a64.247 64.247 0 01-6.13 2.161 30.356 30.356 0 01-5.117.864l-3.428-32.808s2.927.564 8.333 7.92a17.043 17.043 0 004.353 4.25z" transform="translate(-355.895 -390.668)"/><path id="패스_1348" data-name="패스 1348" class="cls-26" d="M391.242 414.65l-23.911 1.675s-1.8-1.211-2.388-6.777a42.864 42.864 0 01.4-10.84l23.889-1.55" transform="translate(-351.186 -386.531)"/></g><path id="패스_1349" data-name="패스 1349" d="M527.948 425.143c-16.277.583-42.417.713-68.513.667-42.2-.083-84.287-.667-84.287-.667l-3.076-25.261s39.751-4.058 77.932-9.36c37.581-5.215 74.016 2.473 74.016 2.473" transform="translate(-346.525 -370.539)" fill="#091e89"/><path id="선_69" data-name="선 69" d="M27.489 45.229l129.003.116" stroke="#2058bc" stroke-width=".5" stroke-miterlimit="10" fill="none"/><g id="그룹_541" data-name="그룹 541" transform="translate(18.562 19.984)"><path id="사각형_326" data-name="사각형 326" class="cls-41" transform="rotate(-125.96 18.456 12.243)" d="M0 0h32.981v1.477H0z"/><path id="패스_1350" data-name="패스 1350" class="cls-42" d="M395.018 409.754l1.123 2.7a64.37 64.37 0 01-4.229 4.937 29.67 29.67 0 01-4 3.3l-19.375-26.685s2.825-.984 11.172 2.681a17.142 17.142 0 005.9 1.506z" transform="translate(-367.336 -387.216)"/><path id="패스_1351" data-name="패스 1351" class="cls-26" d="M404.42 408.372l-14.92 6.694s-2.163-.139-5.454-4.668a42.874 42.874 0 01-5.083-9.592l23.811-10.991" transform="translate(-360.697 -389.815)"/></g><path id="패스_1352" data-name="패스 1352" class="cls-45" d="M542.543 382.993s13.97 49.214-21.055 49.214-57.991-24.07-62.927-24.668-57.966 20.039-57.966 20.039l-15.562-24.065s42.419-21.87 58.994-25.251 61.128 7.517 61.128 7.517" transform="translate(-338.259 -377.61)"/><path id="패스_1354" data-name="패스 1354" class="cls-46" d="M522.378 383.143s4.351 24.771-4.37 31.692c-12.4 9.846-56.7-19.495-64.155-19.495-7.432 0-62.214 21.5-62.214 21.5" transform="translate(-334.048 -374.084)"/><path id="패스_1355" data-name="패스 1355" class="cls-46" d="M462.635 382.791c-.19 11.785 15 11.685 15 11.685" transform="translate(-288.798 -374.305)"/><path id="선_70" data-name="선 70" class="cls-46" transform="translate(52.604 23.968)" d="M0 0l14.418 24.089"/></g><path id="패스_1357" data-name="패스 1357" class="cls-47" d="M461.928 341.847a15.488 15.488 0 007.534 1.025c4.8-.625 5.742-2.454 5.742-2.454l-3.94-13.259-10.523 3.141z" transform="translate(-290 -304.297)"/><g id="그룹_546" data-name="그룹 546" transform="translate(100.051 36.124)"><g id="그룹_545" data-name="그룹 545" transform="translate(0 36.255)"><g id="그룹_544" data-name="그룹 544"><path id="패스_1362" data-name="패스 1362" class="cls-26" d="M435.627 362.167c-2.051-.986-11.406-5.283-11.646-4.717-.215.554 2.671 2.473 2.4 2.681-.391.291-2.847-.691-4.16-1.377-1.177-.6-3.164-1.379-3.506-.906-.62.913 5.884 4.155 5.884 4.155-.186.273-6.348-4.79-6.953-4.089-.854 1.023 6.04 5.84 6.113 6.245 0 0-4.829-5.837-5.469-5.083s3.535 6.082 5.244 7.136c-1.24-1.133-4.028-5.94-4.5-5.388s2.275 4.324 2.822 4.78a40.325 40.325 0 009.463 5.762" transform="translate(-417.571 -357.399)"/></g></g><path id="패스_1363" data-name="패스 1363" class="cls-41" d="M488.344 373.1s-4.956 27.19-20.513 29.714c-19 3.091-45.962-13.3-45.962-13.3l7.568-15.137c17.773 4.927 28.428 5.068 31.235 2.5s5.859-19.106 13.53-30.081 12.412-10.671 12.412-10.671 1.6 1.575 6.284 1.426a11.623 11.623 0 007.09-2.29s7.471 1.748 15.151 15.73 5.508 62.1 5.508 62.1-27.676 5.613-55.42-4.2c0 0-.986-45.3 5.684-55.3" transform="translate(-414.831 -335.258)"/><path id="패스_1364" data-name="패스 1364" d="M50.402 67.832C70.69 64.49 74.836 29.453 74.836 29.453" stroke="#ba4a13" stroke-width=".5" stroke-miterlimit="10" fill="none"/></g><g id="그룹_790" data-name="그룹 790" transform="translate(160.926)"><path id="패스_1356" data-name="패스 1356" class="cls-47" d="M458.69 330.484c-2.51 8.242-2.48 15.857 4.517 17.974s17.192 1.467 20.806-10.291c2.52-8.237-1.143-16.65-8.135-18.782s-14.692 2.849-17.188 11.099z" transform="translate(-455.983 -316.018)"/><path id="패스_1358" data-name="패스 1358" class="cls-47" d="M460.866 324.178s-4.3 4.783-4.238 5.752 2.578 1.741 2.578 1.741" transform="translate(-456.627 -309.764)"/><path id="패스_1360" data-name="패스 1360" class="cls-50" d="M473.326 338.426a12.985 12.985 0 01-7.6-12.812 8.339 8.339 0 01-7.52 1.682c3.276-6.362 10.249-10.789 17.5-9.492a14.866 14.866 0 019.927 6.3c3.6 5.339 3.652 8.308 5.361 14.373.615 2.158 2.231 7.019 4.756 8.582-3.3 2.581-14.155 7.131-27.9 4.238a18.173 18.173 0 005.718-14.922" transform="translate(-454.755 -317.578)"/><path id="패스_1361" data-name="패스 1361" class="cls-26" d="M465.246 326.717a2.593 2.593 0 013.76-.291c2.544 2.288-1 6.9-3.11 7.615s-2.627-1.636-2.627-1.636" transform="translate(-448.757 -307.957)"/><path id="패스_2246" data-name="패스 2246" class="cls-34" d="M0 1.194c-.036.675.2 1.237.518 1.253s.611-.517.646-1.193S.971.017.649 0 .038.518 0 1.194z" transform="rotate(5.13 -185.974 54.562)"/><path id="패스_2247" data-name="패스 2247" class="cls-34" d="M1.733 1.468A2.98 2.98 0 010 .666L.185.47a2.7 2.7 0 001.635.73C2.6 1.137 3.263.011 3.269 0L3.5.134c-.03.051-.736 1.26-1.661 1.33a1.3 1.3 0 01-.106.004z" transform="rotate(5.13 -307.41 41.1)"/></g></g><g id="그룹_566" data-name="그룹 566" transform="translate(163.45 71.337)"><g id="그룹_557" data-name="그룹 557" transform="translate(0 155.067)"><g id="그룹_556" data-name="그룹 556" transform="translate(0 4.149)"><g id="그룹_555" data-name="그룹 555"><path id="선_71" data-name="선 71" class="cls-51" transform="translate(57.49)" d="M0 179.447L20.476 0"/><path id="선_72" data-name="선 72" class="cls-51" d="M0 179.447L20.475 0"/><path id="선_73" data-name="선 73" class="cls-51" transform="translate(3.161 154.025)" d="M0 0h57.23"/><path id="선_74" data-name="선 74" class="cls-51" transform="translate(5.775 132.051)" d="M0 0h57.122"/><path id="선_75" data-name="선 75" class="cls-51" transform="translate(7.984 109.474)" d="M0 0h57.004"/><path id="선_76" data-name="선 76" class="cls-51" transform="translate(10.44 87.955)" d="M0 0h56.881"/><path id="선_77" data-name="선 77" class="cls-51" transform="translate(13.005 65.475)" d="M0 0h57.226"/><path id="선_78" data-name="선 78" class="cls-51" transform="translate(15.546 43.198)" d="M0 0h56.888"/><path id="선_79" data-name="선 79" class="cls-51" transform="translate(18.349 22.159)" d="M0 0h57.088"/></g><path id="선_80" data-name="선 80" class="cls-51" transform="translate(20.475)" d="M20.475 179.447L0 0"/><path id="선_81" data-name="선 81" class="cls-51" transform="translate(77.965)" d="M20.475 179.447L0 0"/><path id="선_82" data-name="선 82" class="cls-51" transform="translate(38.05 154.025)" d="M57.229 0H0"/><path id="선_83" data-name="선 83" class="cls-51" transform="translate(35.543 132.051)" d="M57.122 0H0"/><path id="선_84" data-name="선 84" class="cls-51" transform="translate(33.453 109.474)" d="M57.004 0H0"/><path id="선_85" data-name="선 85" class="cls-51" transform="translate(31.12 87.955)" d="M56.881 0H0"/><path id="선_86" data-name="선 86" class="cls-51" transform="translate(28.21 65.475)" d="M57.226 0H0"/><path id="선_87" data-name="선 87" class="cls-51" transform="translate(26.006 43.198)" d="M56.888 0H0"/><path id="선_88" data-name="선 88" class="cls-51" transform="translate(23.004 22.159)" d="M57.088 0H0"/></g><path id="사각형_331" data-name="사각형 331" transform="translate(11.798)" d="M0 0h74.111v5.193H0z" fill="#254bb7"/></g><g id="그룹_565" data-name="그룹 565" transform="translate(1.872)"><path id="패스_1386" data-name="패스 1386" class="cls-17" d="M347.018 244.955l-20.374 38.633h-53.8v-4.829h52.6l18.821-35.62z" transform="translate(-220.799 -179.942)"/><g id="그룹_561" data-name="그룹 561" transform="translate(7.625 102.765)"><g id="그룹_559" data-name="그룹 559" transform="translate(77.004 92.563)"><path id="사각형_332" data-name="사각형 332" class="cls-45" transform="rotate(6.832 -315.496 27.474)" d="M0 0h32.981v1.477H0z"/><path id="패스_1392" data-name="패스 1392" class="cls-50" d="M299.464 339.829l-2.915.337a63.2 63.2 0 00-2.239 6.1 29.934 29.934 0 00-.94 5.1l32.744 3.931s-.525-2.944-7.791-8.45a17.305 17.305 0 01-4.182-4.424z" transform="translate(-292.345 -313.638)"/><path id="패스_1393" data-name="패스 1393" class="cls-26" d="M292.742 327.772l4.214 22.588s1.169 1.821 6.741 2.49a42.761 42.761 0 0010.845-.234l-2.668-28.782" transform="translate(-292.742 -323.834)"/></g><path id="패스_1394" data-name="패스 1394" d="M319.18 290.689l5.139 76-29.927 3.9-5.945-67.2" transform="translate(-218.473 -252.402)" fill="#141744"/><path id="선_89" data-name="선 89" class="cls-25" transform="translate(75.67 108.814)" d="M0 3.766L28.716 0"/><g id="그룹_560" data-name="그룹 560" transform="translate(45.271 94.225)"><path id="사각형_333" data-name="사각형 333" class="cls-45" transform="rotate(24.77 -40.148 10.295)" d="M0 0h32.981v1.477H0z"/><path id="패스_1395" data-name="패스 1395" class="cls-50" d="M283.105 330.37l-2.876-.579s-2.551 2.927-4.016 5.107a30.02 30.02 0 00-2.473 4.565l29.944 13.837s.413-2.957-4.807-10.435a17.317 17.317 0 01-2.62-5.5z" transform="translate(-273.12 -321.699)"/><path id="패스_1396" data-name="패스 1396" class="cls-26" d="M282.1 324.849l-4.395 8.1s.554 2.1 5.64 4.456a43.043 43.043 0 0010.388 3.118l9-13.8" transform="translate(-270.595 -324.849)"/></g><path id="패스_1397" data-name="패스 1397" class="cls-17" d="M247.454 270.263s-9.226 49.337 14.822 49.337c18.8 0 40.62.308 49.265.442a2.777 2.777 0 012.578 3.669l-13.7 40.32 29.189 12.761s23.784-53.56 21.15-73.625-69.419-22.705-69.419-22.705l-6.908-13.162" transform="translate(-245.715 -267.304)"/><path id="패스_1398" data-name="패스 1398" class="cls-25" d="M254.554 272.845s-4.951 27.063 7.632 31.067 42.429 4.485 51.35 6.514a6.3 6.3 0 014.724 7.639l-16.228 45.347" transform="translate(-240.689 -263.771)"/><path id="패스_1399" data-name="패스 1399" class="cls-25" d="M272.99 274.966c-1.177 8.943-19.29 12.317-19.29 12.317" transform="translate(-240.623 -262.417)"/><path id="선_90" data-name="선 90" class="cls-25" transform="translate(56.37 91.867)" d="M0 0l29.507 13.028"/></g><g id="그룹_564" data-name="그룹 564" transform="translate(0 36.624)"><g id="그룹_563" data-name="그룹 563" transform="translate(92.419 65.198)"><g id="그룹_562" data-name="그룹 562"><path id="패스_1400" data-name="패스 1400" class="cls-26" d="M297.5 267.069c2.275-.149 12.551-.659 12.551-.049.012.593-3.389 1.306-3.213 1.6.259.413 2.9.4 4.375.271 1.323-.125 3.455-.115 3.591.457.237 1.079-7 1.67-7 1.67.066.327 7.661-2.092 7.964-1.216.422 1.277-7.783 3.186-7.986 3.535 0 0 6.643-3.625 6.97-2.688s-5.557 4.326-7.534 4.663c1.577-.583 5.957-4 6.182-3.325s-3.716 3.169-4.392 3.391a40.191 40.191 0 01-10.935 1.831" transform="translate(-297.499 -266.728)"/></g></g><path id="패스_1401" data-name="패스 1401" class="cls-12" d="M276.882 240.674c0 21.833 3.14 29.5 10.784 34.17 7.83 4.775 25.322 6.292 35.974 7.2l-1.23 16.685s-40.7-.818-51.123-6.487-12.012-36.948-12.012-36.948" transform="translate(-229.446 -218.138)"/><path id="패스_1402" data-name="패스 1402" class="cls-12" d="M286.7 231.62c10.5 10.244 14.792 76.04 14.792 76.04-25.154 1.357-60.435 1.643-60.435 1.643s3.091-48.188 12.378-63.147a55.187 55.187 0 0120.654-19.246 12.146 12.146 0 006.218 3.984 23.289 23.289 0 006.392.725" transform="translate(-241.057 -226.91)"/><path id="패스_1403" data-name="패스 1403" class="cls-54" d="M282.207 273.82c-11.953-4.629-11.614-30.127-11.614-30.127" transform="translate(-222.229 -216.211)"/><path id="패스_1404" data-name="패스 1404" class="cls-54" d="M291.62 293.208s-17.664-.049-25.891-15.183-9.456-32.185-9.456-32.185" transform="translate(-231.361 -214.845)"/></g><path id="패스_1388" data-name="패스 1388" class="cls-47" d="M273.709 236.527a19.122 19.122 0 01-7.471-1.316c-4.526-1.816-5.117-3.411-5.117-3.411l7.179-11.93 9.473 5.7z" transform="translate(-228.267 -194.772)"/><g id="그룹_789" data-name="그룹 789" transform="translate(29.447)"><path id="패스_1387" data-name="패스 1387" class="cls-47" d="M292.578 229.137c.413 9.59-1.729 17.788-9.861 18.123s-18.955-3.2-19.568-16.873c-.439-9.592 5.852-17.646 13.972-17.988s15.057 7.143 15.457 16.738z" transform="translate(-259.296 -208.563)"/><path id="패스_1389" data-name="패스 1389" class="cls-47" d="M274.81 219.122s3.313 6.355 2.986 7.383-3.276 1.167-3.276 1.167" transform="translate(-243.176 -199.022)"/><path id="패스_1390" data-name="패스 1390" class="cls-23" d="M274.055 232.194c1.257 2.437 4.827 4.094 6.228-.266s.835-5.6 3.04-6.052c2.769-.571 1.995 1.448 11.489 2.063 5.667.374 8.279-3.931 7.637-7.014a6.011 6.011 0 00-5-5.19c-5.049-.9-3.435.173-6.687-.862s-4.492-3.835-9.673-4.06a9.9 9.9 0 00-8.064 3.828s-4.18-1.914-7.539 2.715c-3.132 4.338-1.226 6.147-3.147 10.544-1.68 3.845-.481 10.381 1.448 12.3 5.09 5.056 10.2.205 10.2.205s-5.217-8.74-1.4-8.481" transform="translate(-261.543 -210.803)"/><path id="패스_1391" data-name="패스 1391" class="cls-26" d="M270.843 220.83s-1.365-2.712-3.982-1.36c-3.381 1.763-.833 7.737 1.226 9.08 2.08 1.343 3.308-1.033 3.308-1.033" transform="translate(-256.35 -199.062)"/><path id="패스_2248" data-name="패스 2248" class="cls-34" d="M0 1.238C-.014.728 2.206.129 3.528.019s1.788.266 1.8.776-1.588 1.058-2.91 1.168S.014 1.748 0 1.238z" transform="rotate(174.87 13.893 9.989)"/><path id="패스_2249" data-name="패스 2249" class="cls-34" d="M0 1.386C-.036.639.223.018.583 0s.684.573.724 1.321-.219 1.368-.579 1.386S.044 2.134 0 1.386z" transform="rotate(174.87 13.99 12.238)"/><path id="패스_2250" data-name="패스 2250" class="cls-34" d="M1.937 0A3.339 3.339 0 000 .886l.207.214A3.026 3.026 0 012.036.3c.876.067 1.615 1.313 1.622 1.325l.26-.148C3.885 1.421 3.093.083 2.058 0h-.121z" transform="rotate(174.87 14.64 17.55)"/></g></g></g></g></svg>