<svg id="img_6" xmlns="http://www.w3.org/2000/svg" width="411.751" height="460"><defs><style>.cls-4{fill:#fff}.cls-19,.cls-5{fill:#0d0a34}.cls-7{fill:#202263}.cls-8{fill:#ffac06}.cls-10{fill:#feb08c}.cls-11{fill:#000d41}.cls-13{fill:#e6e7e8}.cls-14{fill:#a7a9ac}.cls-15{fill:#6d6e71}.cls-16{fill:#bcbec0}.cls-17{fill:#d1d3d4}.cls-18{fill:#9e8fae}.cls-19{opacity:.2}.cls-20{fill:#eb926a}.cls-21{fill:#ff7d12}.cls-23{fill:#2e53ed}.cls-24{fill:#103bb2}</style></defs><circle id="타원_134" data-name="타원 134" cx="145.576" cy="145.576" r="145.576" transform="rotate(-45 248.513 102.938)" fill="#4a63fe"/><path id="패스_1561" data-name="패스 1561" d="M2225.774 965.273v-1.251q1.893 0 3.722-.037l.043 1.241c-1.262.026-2.503.047-3.765.047zm-3.765-.048c-1.241-.027-2.5-.069-3.7-.128l.043-1.241c1.219.059 2.481.1 3.679.128zm11.252-.128l-.021-1.241a196.57 196.57 0 003.679-.2l.085 1.235c-1.219.088-2.481.152-3.743.209zm-18.739-.209c-1.219-.075-2.5-.182-3.722-.289l.085-1.251c1.262.123 2.481.219 3.744.3zm26.247-.294l-.128-1.246a151.13 151.13 0 003.679-.368l.171 1.24c-1.219.144-2.46.262-3.722.374zm-33.691-.374c-1.241-.139-2.5-.3-3.743-.455l.171-1.24c1.241.166 2.481.316 3.679.46zm41.136-.471l-.15-1.235c1.2-.166 2.417-.342 3.658-.545l.193 1.229c-1.22.202-2.415.385-3.702.551zm-48.58-.546a125.27 125.27 0 01-3.7-.625l.214-1.23c1.241.225 2.438.439 3.679.636zm56-.636l-.235-1.225c1.2-.225 2.438-.455 3.679-.706l.235 1.214c-1.213.25-2.458.493-3.677.718zm-63.361-.706c-1.241-.257-2.46-.519-3.7-.8l.3-1.214c1.219.278 2.417.54 3.658.791zm70.7-.808l-.257-1.219c1.177-.273 2.417-.578 3.594-.877l.321 1.209c-1.219.3-2.46.605-3.658.888zm-78.036-.877c-1.2-.3-2.4-.636-3.636-.968l.364-1.209a88.23 88.23 0 003.594.963zm85.309-.979l-.342-1.2c1.219-.337 2.4-.69 3.573-1.043l.385 1.193c-1.198.362-2.439.704-3.616 1.053zm-92.518-1.043a144.92 144.92 0 01-3.594-1.134l.364-1.187c1.177.39 2.4.765 3.594 1.128zm99.684-1.15l-.364-1.177c1.177-.4 2.31-.8 3.465-1.2l.449 1.16c-1.175.413-2.352.834-3.549 1.219zm-106.871-1.2c-1.155-.428-2.353-.861-3.508-1.31l.449-1.16c1.155.439 2.332.877 3.508 1.294zm113.93-1.316l-.449-1.155c1.177-.449 2.332-.909 3.487-1.38l.449 1.155a68.644 68.644 0 01-3.486 1.385zm-120.947-1.38a98.863 98.863 0 01-3.444-1.455l.47-1.144c1.155.492 2.268.984 3.444 1.444zm127.9-1.449l-.492-1.134c1.134-.5 2.289-1.005 3.4-1.524l.471 1.128c-1.09.534-2.245 1.037-3.379 1.535zm-134.766-1.546a109.198 109.198 0 01-3.4-1.62l.556-1.112a90.918 90.918 0 003.337 1.6zm141.547-1.594l-.535-1.112c1.091-.551 2.2-1.1 3.294-1.674l.578 1.107q-1.637.86-3.342 1.684zm-148.328-1.717c-1.113-.588-2.182-1.171-3.316-1.776l.6-1.1c1.091.6 2.225 1.193 3.316 1.765zm154.959-1.727l-.6-1.086c1.091-.6 2.2-1.2 3.23-1.829l.642 1.086a136.7 136.7 0 01-3.272 1.834zm-161.548-1.893a281.564 281.564 0 01-3.23-1.925l.663-1.054q1.572.971 3.208 1.9zm168.029-1.856l-.642-1.059a67.466 67.466 0 003.145-1.963l.706 1.043c-1.069.68-2.139 1.353-3.208 1.984zm-174.425-2.054c-1.07-.685-2.1-1.369-3.166-2.064l.749-1.032c1.005.7 2.032 1.374 3.08 2.048zm180.736-1.984l-.685-1.027c1.048-.7 2.032-1.4 3.059-2.118l.727 1.021c-1.047.723-2.052 1.436-3.101 2.13zm-186.961-2.225a264.11 264.11 0 01-3.059-2.193l.727-1.005c1.027.738 2.032 1.476 3.038 2.187zm193.1-2.091l-.749-1c.984-.738 1.968-1.5 2.952-2.257l.77.989c-.983.766-2.01 1.525-2.972 2.274zm-199.154-2.385c-.962-.765-1.947-1.535-2.888-2.332l.749-.968c.962.781 1.9 1.562 2.93 2.316zm205.058-2.219l-.813-.968a74.076 74.076 0 002.866-2.369l.813.947a126.53 126.53 0 01-2.865 2.396zm-210.871-2.519c-.92-.808-1.882-1.62-2.824-2.465l.834-.925c.963.829 1.861 1.642 2.8 2.449zm216.588-2.332l-.834-.925c.92-.834 1.84-1.674 2.738-2.513l.877.92c-.925.85-1.888 1.69-2.786 2.519zm-222.171-2.658c-.9-.866-1.818-1.722-2.717-2.594l.9-.888c.856.866 1.8 1.717 2.7 2.572zm227.647-2.465l-.856-.882c.877-.872 1.754-1.743 2.631-2.636l.9.872a159.03 159.03 0 01-2.68 2.647zm-233.016-2.786c-.9-.893-1.733-1.8-2.567-2.711l.9-.85q1.284 1.364 2.567 2.69zm238.3-2.562l-.941-.856a95.704 95.704 0 002.5-2.749l.963.84c-.858.931-1.693 1.846-2.527 2.766zm-243.391-2.915a93.979 93.979 0 01-2.481-2.829l.963-.808c.77.941 1.626 1.877 2.438 2.8zm248.333-2.69l-.941-.8c.855-.947 1.6-1.9 2.4-2.866l.984.786c-.802.972-1.614 1.939-2.449 2.881zm-253.231-3.022c-.749-.963-1.54-1.952-2.332-2.931l1.006-.765c.77.984 1.519 1.952 2.31 2.909zm258-2.786l-.963-.765c.727-.984 1.5-1.973 2.246-2.973l.984.754c-.731.996-1.526 1.996-2.271 2.985zm-262.584-3.133a87.028 87.028 0 01-2.182-3.038l.984-.717c.749 1.011 1.455 2.021 2.2 3.016zm267.072-2.9l-1.027-.717a172.14 172.14 0 002.1-3.064l1.048.7c-.688 1.035-1.437 2.067-2.121 3.081zm-271.393-3.214c-.706-1.037-1.369-2.086-2.053-3.139l1.048-.663a110.272 110.272 0 002.054 3.107zm275.564-3.011l-1.07-.674c.706-1.048 1.348-2.1 2.032-3.15l1.027.636c-.663 1.078-1.307 2.137-1.989 3.19zm-279.585-3.3a74.663 74.663 0 01-1.9-3.219l1.07-.62c.62 1.075 1.241 2.134 1.882 3.193zm283.521-3.107l-1.069-.631c.62-1.075 1.219-2.155 1.818-3.252l1.112.6q-.93 1.652-1.861 3.285zm-287.308-3.368c-.577-1.1-1.177-2.193-1.733-3.3l1.091-.572c.6 1.1 1.177 2.193 1.775 3.278zm290.923-3.225l-1.112-.572c.556-1.1 1.155-2.214 1.69-3.326l1.134.54c-.581 1.129-1.134 2.253-1.712 3.36zm-294.345-3.417a503.808 503.808 0 01-1.6-3.375l1.134-.529c.535 1.134 1.027 2.246 1.562 3.358zm297.64-3.332l-1.091-.519c.47-1.134 1.005-2.267 1.476-3.412l1.177.5a110.625 110.625 0 01-1.562 3.433zm-300.764-3.453a57.666 57.666 0 01-1.455-3.439l1.134-.471c.47 1.144.941 2.278 1.455 3.412zm303.758-3.439l-1.155-.471a118.11 118.11 0 001.39-3.476l1.177.444c-.449 1.169-.92 2.343-1.412 3.503zm-306.624-3.5c-.406-1.166-.856-2.342-1.283-3.524l1.177-.412c.428 1.171.856 2.337 1.3 3.5zm309.319-3.535l-1.155-.417c.406-1.177.834-2.358 1.219-3.535l1.155.385c-.405 1.201-.79 2.383-1.218 3.568zm-311.8-3.535c-.428-1.177-.77-2.374-1.134-3.572l1.177-.364c.364 1.193.727 2.374 1.113 3.551zm314.133-3.62l-1.177-.364c.364-1.187.706-2.374 1.07-3.567l1.2.332c-.366 1.211-.687 2.409-1.094 3.601zM2067.028 845q-.449-1.8-.963-3.621l1.219-.31c.3 1.2.62 2.4.941 3.588zm318.411-3.679l-1.2-.3c.3-1.2.62-2.4.9-3.62l1.177.289a72.664 72.664 0 01-.877 3.626zm-320.229-3.583c-.278-1.225-.578-2.444-.813-3.674l1.2-.251c.257 1.219.535 2.428.813 3.637zm321.919-3.722l-1.219-.251c.235-1.214.492-2.428.749-3.653l1.2.225c-.238 1.225-.474 2.444-.73 3.674zm-323.48-3.631c-.214-1.23-.406-2.46-.6-3.7l1.219-.2c.214 1.23.406 2.449.62 3.663zm324.828-3.744l-1.241-.2c.235-1.23.385-2.449.556-3.7l1.241.176c-.193 1.249-.343 2.489-.556 3.719zm-326-3.669c-.128-1.241-.3-2.476-.471-3.717l1.262-.139c.15 1.235.278 2.46.449 3.7zm327.01-3.765l-1.241-.15c.15-1.23.257-2.455.364-3.7l1.262.112a119.52 119.52 0 01-.39 3.731zm-327.844-3.685a210.484 210.484 0 01-.278-3.743l1.241-.075c.085 1.235.192 2.476.3 3.706zm328.529-3.792l-1.241-.08c.085-1.241.128-2.476.214-3.717l1.241.053c-.07 1.248-.134 2.5-.219 3.74zm-329.042-3.69c-.043-1.246-.086-2.5-.107-3.749l1.241-.032c0 1.246.085 2.487.128 3.722zm329.363-3.8l-1.219-.027c.021-1.235.021-2.481.021-3.727l1.241-.091v.091c-.006 1.261-.006 2.502-.049 3.748zm-329.534-3.706v-.091c0-1.193.043-2.417.064-3.653l1.219.027v3.669zm328.315-3.856l-.128-3.738 1.241-.054c.021 1.246.086 2.5.107 3.754zm-326.882-3.583l-1.262-.054c.064-1.251.15-2.5.214-3.743l1.262.08c-.134 1.23-.156 2.471-.22 3.711zm326.54-3.861c-.107-1.246-.193-2.481-.321-3.711l1.262-.112c.086 1.241.214 2.487.3 3.743zm-326.047-3.572l-1.241-.1c.107-1.251.214-2.5.364-3.738l1.241.144c-.114 1.232-.264 2.452-.371 3.688zm325.363-3.845a103.8 103.8 0 00-.47-3.685l1.262-.176c.15 1.235.278 2.471.449 3.722zm-324.529-3.551l-1.241-.16c.171-1.246.364-2.481.578-3.717l1.219.2a62.941 62.941 0 00-.562 3.671zm323.523-3.824l-.642-3.674 1.241-.219c.214 1.225.406 2.465.62 3.7zm-322.347-3.524l-1.241-.225c.257-1.23.492-2.46.749-3.679l1.2.251c-.265 1.203-.478 2.422-.714 3.647zm321-3.792a105.153 105.153 0 00-.813-3.642l1.24-.283c.257 1.225.556 2.444.813 3.663zm-319.48-3.5l-1.241-.278q.417-1.829.9-3.647l1.177.31c-.287 1.189-.586 2.398-.843 3.606zm317.833-3.754c-.342-1.2-.663-2.406-.984-3.6l1.2-.326c.321 1.2.62 2.407.962 3.62zm-316.015-3.46l-1.2-.337c.342-1.2.685-2.4 1.07-3.594l1.177.364c-.369 1.168-.712 2.365-1.054 3.555zm313.983-3.706c-.364-1.193-.749-2.38-1.113-3.551l1.134-.4c.428 1.187.792 2.38 1.155 3.583zm-311.8-3.417l-1.2-.4c.406-1.2.792-2.385 1.219-3.572l1.177.422a59.652 59.652 0 00-1.204 3.541zm309.448-3.658c-.385-1.166-.855-2.332-1.262-3.5l1.155-.433c.449 1.166.9 2.337 1.3 3.524zm-306.966-3.391l-1.177-.444c.492-1.171.92-2.337 1.412-3.508l1.155.476c-.5 1.136-.949 2.301-1.399 3.467zm304.314-3.567a105.496 105.496 0 00-1.455-3.412l1.155-.5c.513 1.139.984 2.289 1.455 3.439zm-301.469-3.348l-1.177-.5c.535-1.15 1.027-2.294 1.562-3.433l1.134.519c-.522 1.133-1.057 2.261-1.527 3.405zm298.538-3.444c-.578-1.134-1.07-2.246-1.6-3.358l1.113-.545c.513 1.112 1.07 2.246 1.583 3.369zm-295.415-3.332l-1.134-.545c.556-1.128 1.134-2.246 1.69-3.353l1.112.567c-.564 1.093-1.12 2.21-1.676 3.323zm292.121-3.337a72.07 72.07 0 00-1.776-3.278l1.134-.6c.578 1.1 1.177 2.193 1.775 3.3zm-288.687-3.297l-1.091-.594c.578-1.1 1.2-2.193 1.818-3.273l1.07.626q-.897 1.612-1.797 3.241zm285.1-3.235c-.642-1.059-1.262-2.123-1.9-3.182l1.07-.647a157.017 157.017 0 011.9 3.219zm-281.361-3.214l-1.112-.652c.685-1.064 1.348-2.128 2.053-3.187l.984.685c-.614 1.041-1.277 2.094-1.919 3.153zm277.489-3.123c-.663-1.037-1.348-2.075-2.011-3.1l1.005-.7c.685 1.032 1.369 2.08 2.053 3.134zm-273.51-3.15l-.984-.7c.706-1.037 1.412-2.07 2.1-3.1l1.027.722c-.704 1.018-1.41 2.045-2.137 3.077zm269.339-3.011a98.724 98.724 0 00-2.16-3.011l1.005-.743c.749 1 1.5 2.011 2.182 3.038zm-265.018-3.07l-.984-.743c.727-1.005 1.5-2.005 2.268-2.989l.962.759c-.721.983-1.491 1.973-2.24 2.973zm260.611-2.9c-.77-.984-1.519-1.952-2.332-2.9l.984-.8c.813.968 1.54 1.952 2.332 2.936zm-256.05-2.983l-.941-.791c.792-.968 1.583-1.925 2.4-2.877l.963.807c-.838.941-1.586 1.893-2.422 2.861zm251.327-2.792c-.792-.941-1.562-1.872-2.417-2.8l.941-.834c.813.936 1.626 1.877 2.46 2.829zm-246.471-2.877l-.9-.829c.813-.936 1.69-1.861 2.524-2.77l.9.856c-.833.898-1.688 1.818-2.523 2.743zm241.53-2.674c-.834-.909-1.711-1.8-2.546-2.69l.856-.872q1.315 1.34 2.631 2.711zm-236.417-2.76l-.9-.877c.9-.893 1.754-1.776 2.631-2.653l.9.9q-1.347 1.291-2.63 2.631zm231.219-2.562c-.9-.861-1.754-1.727-2.7-2.567l.877-.914c.9.856 1.818 1.711 2.7 2.583zm-225.957-2.647l-.834-.909c.963-.85 1.861-1.69 2.8-2.524l.813.93c-.938.825-1.837 1.654-2.778 2.504zm220.524-2.444c-.9-.818-1.861-1.631-2.781-2.449l.792-.947c.941.813 1.9 1.636 2.8 2.465zm-214.9-2.5l-.834-.947c.963-.818 1.9-1.615 2.888-2.412l.749.973c-.939.785-1.88 1.582-2.8 2.384zm209.229-2.332c-.963-.781-1.947-1.556-2.909-2.316l.792-.984c.963.775 1.968 1.551 2.931 2.337zm-203.5-2.364l-.77-.989q1.476-1.147 3.016-2.262l.727.995c-1.019.747-1.957 1.496-2.966 2.255zm197.592-2.2a99.036 99.036 0 00-2.995-2.193l.727-1.016c1.027.722 2.011 1.46 3.016 2.2zm-191.624-2.225l-.728-1.021c1.048-.722 2.054-1.433 3.081-2.123l.749 1.032c-1.041.68-2.047 1.391-3.095 2.108zm185.592-2.08c-1.07-.7-2.075-1.374-3.123-2.048l.685-1.054c1.027.674 2.075 1.369 3.1 2.07zm-179.41-2.075l-.684-1.043a82.26 82.26 0 013.187-1.984l.642 1.054c-1.041.648-2.09 1.3-3.138 1.969zm173.121-1.947c-1.048-.652-2.139-1.284-3.209-1.909l.6-1.075c1.091.626 2.161 1.273 3.251 1.915zm-166.81-1.925l-.578-1.08c1.07-.626 2.161-1.225 3.251-1.829l.582 1.084c-1.045.6-2.157 1.2-3.248 1.821zM2304.3 657a106.443 106.443 0 00-3.316-1.754l.62-1.107c1.091.578 2.225 1.166 3.294 1.77zm-153.8-1.754l-.556-1.1a120.725 120.725 0 013.316-1.685l.556 1.118a93.112 93.112 0 00-3.316 1.669zm147.173-1.685c-1.112-.54-2.225-1.08-3.337-1.6l.471-1.128a143.06 143.06 0 013.423 1.615zm-140.52-1.583l-.492-1.123c1.134-.529 2.225-1.043 3.423-1.54l.47 1.144c-1.154.495-2.27 1.003-3.404 1.522zm133.76-1.54c-1.155-.5-2.267-.989-3.465-1.46l.513-1.15c1.155.471 2.267.963 3.465 1.46zm-126.958-1.417l-.449-1.155c1.155-.465 2.289-.936 3.444-1.38l.449 1.166c-1.158.448-2.27.896-3.446 1.372zM2284 647.612c-1.2-.438-2.353-.866-3.508-1.289l.428-1.171c1.134.417 2.353.856 3.53 1.3zm-113.1-1.246l-.385-1.171c1.155-.422 2.332-.824 3.53-1.219l.406 1.182c-1.193.389-2.37.791-3.551 1.208zm106.059-1.251c-1.219-.385-2.4-.759-3.573-1.123l.364-1.193c1.177.364 2.417.743 3.572 1.139zm-98.978-1.08l-.364-1.193c1.177-.364 2.417-.711 3.594-1.054l.364 1.2c-1.194.335-2.392.688-3.59 1.046zm91.833-1.086c-1.2-.342-2.417-.658-3.615-.963l.3-1.209c1.241.316 2.417.631 3.658.973zm-84.667-.92l-.321-1.2c1.219-.321 2.439-.61 3.658-.9l.278 1.225c-1.172.27-2.413.564-3.611.875zm77.458-.914c-1.219-.283-2.417-.54-3.658-.8l.257-1.214c1.241.257 2.438.519 3.658.8zm-70.185-.765l-.257-1.219c1.2-.257 2.417-.492 3.679-.717l.214 1.219c-1.193.23-2.433.467-3.631.716zm62.891-.738c-1.241-.23-2.46-.433-3.679-.626l.192-1.225c1.241.182 2.46.4 3.7.62zm-55.575-.6l-.193-1.235a195.7 195.7 0 013.679-.556l.192 1.241c-1.235.165-2.454.347-3.674.545zm48.216-.567a125.822 125.822 0 00-3.679-.455l.128-1.246c1.241.144 2.481.294 3.722.465zM2207.1 638l-.128-1.235c1.219-.144 2.481-.273 3.722-.385l.107 1.241c-1.221.108-2.461.231-3.701.379zm33.435-.39c-1.219-.107-2.438-.2-3.7-.294l.086-1.235c1.262.08 2.5.182 3.722.294zm-26.012-.273l-.085-1.251c1.219-.086 2.481-.155 3.722-.214l.085 1.246c-1.263.049-2.504.13-3.723.215zm18.611-.225c-1.241-.053-2.5-.1-3.7-.123l.021-1.241c1.241.027 2.5.07 3.7.118zm-11.145-.123l-.043-1.241c1.241-.027 2.5-.043 3.744-.043v1.241c-1.242-.003-2.505.013-3.702.04z" transform="translate(-2019.864 -594.614)" fill="#cbe0ff"/><circle id="타원_135" data-name="타원 135" cx="98.635" cy="98.635" r="98.635" transform="rotate(-45 281.706 22.803)" fill="#82a4ff"/><path id="패스_2066" data-name="패스 2066" class="cls-4" d="M2193.527 826.866l-47.746-47.724 15.466-15.466 33.264 33.264 68.966-60.313 14.4 16.45z" transform="translate(-2001.173 -572.374)"/><g id="그룹_676" data-name="그룹 676" transform="translate(31.08 231.194)"><path id="패스_2067" data-name="패스 2067" class="cls-5" d="M2087.033 971.234v7.241a2.166 2.166 0 002.182 2.193h3.893l.321-.5a.928.928 0 011.6.032l.3.471h11.958a.906.906 0 00.6-1.583l-8.941-7.851z" transform="translate(-2045.2 -751.861)"/><path id="패스_2068" data-name="패스 2068" d="M2087.916 991.868h11.936l7.148-49.907-2.567-64.334-21.477 2.642 6.7 62.078z" transform="translate(-2046.117 -772.488)" fill="#141744"/><path id="패스_2069" data-name="패스 2069" class="cls-5" d="M2071.476 971.234v7.241a2.2 2.2 0 002.225 2.193h3.915l.321-.5a.91.91 0 011.583.032l.3.471h11.958a.9.9 0 00.6-1.583l-8.963-7.851z" transform="translate(-2048.622 -751.861)"/><path id="패스_2070" data-name="패스 2070" class="cls-7" d="M2102.156 818.816l-7.53-1.23h-10.14l-19.616 6.15c-1.177 1.155-1.883 2.385-1.326 8.011l5.2 49.735h39.656l5.626-50.238c.663-.685.963-6.129.963-6.129l-7.551-4.375a15.654 15.654 0 00-5.282-1.924z" transform="translate(-2050.436 -785.719)"/><path id="패스_2071" data-name="패스 2071" class="cls-4" d="M2080.672 817.586l7.38 6.236-5.476 3.444z" transform="translate(-2046.617 -785.719)"/><path id="패스_2072" data-name="패스 2072" class="cls-4" d="M2093.5 818.125l-6.76 5.572 5.519 3.444z" transform="translate(-2045.296 -785.606)"/><g id="그룹_672" data-name="그룹 672" transform="translate(37.763 38.095)"><path id="패스_2073" data-name="패스 2073" class="cls-8" d="M2084.674 824.256l2.481-1.562 2.524 1.562-2.182 1.861z" transform="translate(-2083.465 -822.695)"/><path id="패스_2074" data-name="패스 2074" class="cls-8" d="M2087.363 824.991l-3.658 34.461 4.492 3.048 3.829-2.781-3.829-34.729z" transform="translate(-2083.705 -822.19)"/></g><path id="패스_2075" data-name="패스 2075" class="cls-7" d="M2067.83 869.947s-1.433 12.846.92 34.718c2.417 22.45 3.316 88.881 3.316 88.881h12.385s8.3-93.887 8.813-94.4c.535-.513 7-3.027 10.888-8 5.583-7.048 3.38-21.2 3.38-21.2z" transform="translate(-2049.542 -774.186)"/><g id="그룹_675" data-name="그룹 675" transform="translate(108.993 13.563)"><path id="패스_2080" data-name="패스 2080" d="M2147.09 826.376s1.07.578 3.465-1.391c2.332-1.936 4.086-7.519 4.086-7.519l-4.877-3.636-3.594 4.043-2.054 5.551z" transform="translate(-2141.62 -800.115)" fill="#fe91a6"/><path id="패스_2081" data-name="패스 2081" class="cls-5" d="M2148.184 825.116a.958.958 0 01.064-1.3l23.081-20.985a.93.93 0 011.3.075.966.966 0 01-.043 1.294l-23.076 20.97a.944.944 0 01-1.326-.054z" transform="translate(-2140.771 -802.593)"/><g id="그룹_674" data-name="그룹 674" transform="translate(6.286 17.258)"><path id="패스_2082" data-name="패스 2082" class="cls-10" d="M2150.712 818.986l3.038 2.161a1.3 1.3 0 001.775-.3 1.216 1.216 0 00-.342-1.722l-3.059-2.171a1.249 1.249 0 00-1.733.31 1.21 1.21 0 00.321 1.722z" transform="translate(-2146.568 -816.734)"/><path id="패스_2083" data-name="패스 2083" class="cls-10" d="M2149.544 820.336l2.738 1.9a1.047 1.047 0 001.476-.267 1.084 1.084 0 00-.214-1.519l-2.738-1.9a1.067 1.067 0 00-1.519.278 1.081 1.081 0 00.257 1.508z" transform="translate(-2146.811 -816.373)"/><path id="패스_2084" data-name="패스 2084" class="cls-10" d="M2148.537 821.638l2.545 1.765a.963.963 0 001.369-.257 1 1 0 00-.214-1.412l-2.524-1.754a1.01 1.01 0 00-1.412.246 1 1 0 00.236 1.412z" transform="translate(-2147.014 -816.06)"/><path id="패스_2085" data-name="패스 2085" class="cls-10" d="M2147.615 822.771l2.246 1.583a.9.9 0 001.241-.225.873.873 0 00-.193-1.273l-2.289-1.572a.889.889 0 00-1.241.225.9.9 0 00.236 1.262z" transform="translate(-2147.219 -815.768)"/></g><path id="패스_2086" data-name="패스 2086" class="cls-10" d="M2142.07 821.388l4.021-6.877a4.393 4.393 0 012.417-1.925l1.69-.535a2.333 2.333 0 012.567.824l3.808 5.07s-2.823 1.348-4.342-.15l-1.177-1.551s.043 7.241-5.284 8.813z" transform="translate(-2142.07 -800.536)"/></g><path id="패스_2087" data-name="패스 2087" class="cls-7" d="M2081.807 834.695c2.246-11.049-12.236-17.573-18.8-8.428a7.322 7.322 0 00-.685 1.048c-4.792 8.728-9.562 39.424-9.562 42.237s16.322 21.1 16.322 21.1l6.738-4.214-9.99-19.99 15.359-28.718z" transform="translate(-2052.758 -784.766)"/><path id="패스_2088" data-name="패스 2088" class="cls-11" d="M2082.854 836.627H2071.2a.281.281 0 110-.556h11.658a.278.278 0 010 .556z" transform="translate(-2048.777 -781.653)"/><path id="패스_2089" data-name="패스 2089" class="cls-11" d="M2073.057 838.722h-1.857a.309.309 0 01-.321-.278.293.293 0 01.321-.267h1.861a.246.246 0 01.278.267.258.258 0 01-.282.278z" transform="translate(-2048.777 -781.188)"/><path id="패스_2090" data-name="패스 2090" class="cls-4" d="M2064.586 877.3c1.155 1.316 1.882 2.128 1.882 2.128l6.781-4.214-1.177-2.332z" transform="translate(-2050.155 -773.541)"/><path id="패스_2091" data-name="패스 2091" class="cls-10" d="M2066.375 878.823l1.155 3.872a4.516 4.516 0 00.9 1.722l3.423 4.129.941 1.433a1.326 1.326 0 001.668.492 1.307 1.307 0 00.706-1.669l-.171-.492.257-.2 1.241 1.626a1.323 1.323 0 001.8.289 1.274 1.274 0 00.449-1.455l-.535-1.7.257-.171 1.8 2.107a1.12 1.12 0 001.455.225 1.123 1.123 0 00.471-1.08l-.535-3.679.663 1.6a1.888 1.888 0 00.663-2.054l-1.262-4.332a3.65 3.65 0 00-2.353-2.439l-6.524-2.257z" transform="translate(-2049.754 -773.121)"/><path id="패스_2092" data-name="패스 2092" class="cls-10" d="M2094.556 799.549l1.968 5.241 4.214 3.455-3.08 2.877s.535 3.947-1.177 5.69c-.9.888-1.754 1.765-2.375 2.4a1.656 1.656 0 00-.043 2.161l1.177 1.4-6.738 5.572-7.423-6.236c2.2-1.508 2.567-3.3 1.861-5.294 0 0-3.53-.909-4.107-3.53-.492-2.62.578-12.9 4.3-14.985 3.787-2.1 10.397-1.447 11.423 1.249z" transform="translate(-2047.025 -790.247)"/><path id="패스_2093" data-name="패스 2093" class="cls-5" d="M2085.56 812.44a5.806 5.806 0 01.62 2.9h1.2s-1.9-4.182-.749-6.792c0 0-2.61-2.332-.449-4.5 0 0 1.326 1.241 3.7-1.166 0 0 4.3 1.989 6.032-2.086 0 0 3.487-.845 3.487-3.252s-2.161-5.027-7.4-2.941c0 0-4.3-4.92-9.519-2.407a2.7 2.7 0 00-1.39 2.513s-5.156-.107-6.7 3.145c-1.583 3.252 1.112 3.669 1.112 3.669s-3.038.631-3.038 3.348 3.038 3.562 3.038 3.562a2.716 2.716 0 00-1.562 3.669 2.869 2.869 0 003.765 1.84s-2.5.791-.877 2.439a3.967 3.967 0 003.7 1.059s-.578 2.021 1.07 2.813a3.9 3.9 0 002.952.31c1.005-.749.92-1.572-.235-2.513 0 0-4.492-1.38-3.166-5.476a2.1 2.1 0 01.962-1.1 2.55 2.55 0 013.447.966z" transform="translate(-2048.408 -791.478)"/><path id="패스_2094" data-name="패스 2094" class="cls-11" d="M2089.387 808.324a2.387 2.387 0 01-1.626-.674 2.942 2.942 0 01-.855-1.882 2.734 2.734 0 01.47-2.043 2.324 2.324 0 011.69-1.005 2.228 2.228 0 011.818.652 3.156 3.156 0 01.9 1.893 2.641 2.641 0 01-2.161 3.048 1.732 1.732 0 01-.236.011zm-.107-5.059h-.192a1.889 1.889 0 00-1.262.781 2.583 2.583 0 00-.406 1.669 2.427 2.427 0 00.749 1.54 1.846 1.846 0 001.39.513 2.133 2.133 0 001.69-2.449 2.634 2.634 0 00-.727-1.551 1.916 1.916 0 00-1.242-.503z" transform="translate(-2045.257 -789.004)"/><path id="패스_2095" data-name="패스 2095" class="cls-11" d="M2094.367 806.19a2.7 2.7 0 01-2.417-2.567 3.1 3.1 0 01.471-2.021A2.2 2.2 0 012094 800.6a2.631 2.631 0 012.61 2.556 3.2 3.2 0 01-.47 2.011 2.18 2.18 0 01-1.583 1.016 1.3 1.3 0 01-.19.007zm-.171-5.07c-.064 0-.085.011-.171.011a1.678 1.678 0 00-1.177.77 2.736 2.736 0 00-.364 1.669 2.087 2.087 0 002.011 2.075 1.712 1.712 0 001.219-.77 2.572 2.572 0 00.342-1.669 2.14 2.14 0 00-1.856-2.086z" transform="translate(-2044.123 -789.474)"/><path id="패스_2096" data-name="패스 2096" class="cls-11" d="M2090.685 804.976a.35.35 0 01-.278-.16.271.271 0 01.171-.342l2.075-.963a.277.277 0 01.364.139.283.283 0 01-.128.364l-2.1.941a.384.384 0 01-.104.021z" transform="translate(-2044.467 -788.838)"/><path id="패스_2097" data-name="패스 2097" class="cls-11" d="M2081.065 807.24c-.171 0-.278-.086-.278-.225a.277.277 0 01.235-.31l7.487-1.433a.3.3 0 01.342.214.329.329 0 01-.257.31l-7.487 1.444z" transform="translate(-2046.588 -788.443)"/><path id="패스_2099" data-name="패스 2099" class="cls-7" d="M2099.486 820.166l26.8 14.814 23.83-14.814 5.412 6.524s-23.1 20.953-28.023 20.953c-4.9 0-24.279-6.578-24.279-6.578z" transform="translate(-2042.462 -785.155)"/><path id="패스_2100" data-name="패스 2100" class="cls-4" d="M2140.961 820.38l1.647-1.134 5.647 6.022-1.9 1.636z" transform="translate(-2033.317 -785.358)"/></g><g id="그룹_694" data-name="그룹 694" transform="translate(229.719 276.164)"><g id="그룹_689" data-name="그룹 689"><g id="그룹_679" data-name="그룹 679" transform="translate(59.816 57.876)"><g id="그룹_677" data-name="그룹 677" transform="translate(22.723 48.053)"><path id="패스_2102" data-name="패스 2102" class="cls-13" d="M2325.771 987.934l1.99-.545-15.7-72.259h-15.573l-12.065 72.323 2.032.428 11.723-70.7h12.322z" transform="translate(-2282.876 -915.13)"/><circle id="타원_137" data-name="타원 137" class="cls-14" cx="2.546" cy="2.546" r="2.546" transform="translate(41.405 70.773)"/><path id="패스_2103" data-name="패스 2103" class="cls-14" d="M2283.164 975.656a2.546 2.546 0 102.546-2.535 2.538 2.538 0 00-2.546 2.535z" transform="translate(-2283.164 -902.348)"/></g><g id="그룹_678" data-name="그룹 678" transform="translate(2.021 48.053)"><path id="패스_2104" data-name="패스 2104" class="cls-15" d="M2308.764 987.934l1.99-.545-15.68-72.259h-15.552l-12.065 72.323 2.032.428 11.68-70.7h12.343z" transform="translate(-2265.912 -915.13)"/><circle id="타원_138" data-name="타원 138" class="cls-15" cx="2.546" cy="2.546" r="2.546" transform="translate(41.405 70.773)"/><path id="패스_2105" data-name="패스 2105" class="cls-15" d="M2266.2 975.656a2.546 2.546 0 102.546-2.535 2.552 2.552 0 00-2.546 2.535z" transform="translate(-2266.195 -902.348)"/></g><path id="패스_2106" data-name="패스 2106" class="cls-16" d="M2325.328 875.752h-36.323l-1.369 25.777a30.158 30.158 0 01-11.594 22.194l-9.113 7.081h44.836l4.792-4.482a34.813 34.813 0 0011-23.851l1.07-23.242a3.3 3.3 0 00-3.299-3.477z" transform="translate(-2264.037 -875.752)"/><path id="패스_2107" data-name="패스 2107" class="cls-13" d="M2317.111 902.47l1.07-23.242a3.338 3.338 0 00-3.359-3.476h2.931a3.346 3.346 0 013.337 3.476L2320 902.47a34.86 34.86 0 01-11.038 23.851l-3.7 3.69-3.979.8 4.792-4.492a35.044 35.044 0 0011.036-23.849z" transform="translate(-2256.445 -875.752)"/><path id="패스_2108" data-name="패스 2108" class="cls-17" d="M2266.122 921.414h45.906a1.532 1.532 0 001.519-1.519 1.553 1.553 0 00-1.519-1.551h-45.906a1.566 1.566 0 00-1.583 1.551 1.546 1.546 0 001.583 1.519z" transform="translate(-2264.539 -866.369)"/></g><g id="그룹_680" data-name="그룹 680" transform="translate(114.401 74.273)"><path id="패스_2109" data-name="패스 2109" class="cls-18" d="M2311.409 996.775h1.283l2.2-107.588h-5.626z" transform="translate(-2309.27 -889.188)"/><path id="패스_2110" data-name="패스 2110" class="cls-19" d="M2309.27 889.188h5.626l-.15 6.236-5.455-3.808z" transform="translate(-2309.27 -889.188)"/></g><g id="그룹_681" data-name="그룹 681" transform="translate(12.749 74.273)"><path id="패스_2111" data-name="패스 2111" class="cls-18" d="M2228.139 996.775h1.262l2.182-107.588h-5.6z" transform="translate(-2225.979 -889.188)"/><path id="패스_2112" data-name="패스 2112" class="cls-19" d="M2225.979 889.188h5.6l-.15 6.236-5.412-3.808z" transform="translate(-2225.979 -889.188)"/></g><g id="그룹_683" data-name="그룹 683" transform="translate(48.245 34.336)"><g id="그룹_682" data-name="그룹 682" transform="translate(0 30.703)"><path id="패스_2113" data-name="패스 2113" class="cls-10" d="M2266.171 887.717a12.074 12.074 0 01-4.792 1.433s-2.054.16-1.6-.717a6.528 6.528 0 012.075-1.775h-2.139v.032a2.4 2.4 0 01-2.438 1.476 2.429 2.429 0 01-2.075-3.219 4.564 4.564 0 011.947-2.717c1.947-.834 7.679-.567 7.679-.567s2.884 3.305 1.343 6.054z" transform="translate(-2255.057 -881.622)"/><path id="패스_2114" data-name="패스 2114" class="cls-20" d="M2258.875 885.948s.642-.888 1.112-.93c.492-.032 2.332 0 2.332 0l-1.3.9z" transform="translate(-2254.214 -880.876)"/></g><path id="패스_2115" data-name="패스 2115" class="cls-21" d="M2284.8 856.462s-6.417 3.636-6.567 6.118c-.107 2.46 3.294 23.1 3.294 23.1l-19.231 1.369s3.294 1.8 2.075 6.888c0 0 18.7.2 23.231-1.209s-2.802-36.266-2.802-36.266z" transform="translate(-2253.481 -856.462)"/></g><g id="그룹_684" data-name="그룹 684" transform="translate(132.25 16.157)"><path id="패스_2116" data-name="패스 2116" class="cls-10" d="M2325.747 857.154s-3.4-6.214-.984-8.417c2.375-2.171 3.979-1.733 3.979-1.733s1.241 1.187-.085 1.85c-1.283.663-2.225 2.4-.877 2.642 1.391.246 2.546.31 2.631-1.123.043-1.433 0-2.941 0-2.941a1.452 1.452 0 01-1.669-.727 1.862 1.862 0 011.69-2.492c1.262-.053 2.375 1.005 2.332 1.562-.064.513 1.989-2.546 4.6-4.064a1.1 1.1 0 011.241.107v.021a1.065 1.065 0 01-.15 1.733 11.642 11.642 0 00-4.021 3.861l.513.46s2.76-1.989 4.364-2.973a1.052 1.052 0 011.476.4l.085.16a1.044 1.044 0 01-.364 1.465l-4.514 2.749.193.877 3.487-1.5a1.069 1.069 0 011.476.717 1.018 1.018 0 01-.62 1.262l-4.171 1.818s-1.412 5.54-2.931 6.995c-1.478 1.452-6.847-.955-7.681-2.709z" transform="translate(-2323.895 -841.567)"/><path id="패스_2117" data-name="패스 2117" class="cls-20" d="M2329.234 846.375h1.048l-1.048 2.931z" transform="translate(-2322.721 -840.508)"/><path id="패스_2118" data-name="패스 2118" d="M2330.807 856.035h-.043a.211.211 0 01-.192-.257c.364-4.781-3.273-5.348-3.423-5.348a.334.334 0 01-.235-.267c.043-.128.15-.225.257-.193.086 0 4.278.642 3.851 5.861a.238.238 0 01-.215.204z" transform="translate(-2323.208 -839.716)" fill="#eb8195"/></g><g id="그룹_685" data-name="그룹 685" transform="translate(39.286 151.89)"><path id="패스_2119" data-name="패스 2119" class="cls-10" d="M2259.806 970.754l3.08-17.862s6.824-1.07 11.851 3.69l-6.7 16.707-1.754-.535v.15l-4.407 3.872-3.722-.086-1.647-1.722z" transform="translate(-2245.787 -952.789)"/><path id="패스_2120" data-name="패스 2120" class="cls-23" d="M2269.936 969.94s.792 8.011.449 9.455c-.364 1.444-15.937 2.086-20.792 0-4.9-2.075 1.091-5.69 3.337-5.69 2.267 0 6.182-3.765 6.182-3.765s.92 3.219 2.61 1.594c1.711-1.626 4.898-6.075 8.214-1.594z" transform="translate(-2247.717 -949.438)"/></g><path id="패스_2121" data-name="패스 2121" class="cls-24" d="M2285.463 896.713h-32.021s-8.407 1.529 0 13.284a73.516 73.516 0 0019.594 18.418s-1.283-10.193 7.188-7.84l-8.557-10.375s17.667 5.284 23.7 5.487c6.097.193 6.182-17.551-9.904-18.974z" transform="translate(-2207.985 -813.257)"/><path id="패스_2122" data-name="패스 2122" class="cls-24" d="M2317.626 897.219s-.577 13.787-5.3 20.8c-4.663 7.016-25.285 20.91-25.285 20.91s-12.086 25.424-13.477 30.5c0 0-5.54-3.679-11.829-3.679 0 0 9.5-30.953 11.145-33.424 1.626-2.471 13.455-22.7 13.455-22.7s-4.535-6.129-2.054-12.418c2.456-6.278 33.345.011 33.345.011z" transform="translate(-2205.354 -813.761)"/><path id="패스_2123" data-name="패스 2123" class="cls-5" d="M2271 926.134a83.56 83.56 0 002.2-3.626c1.519 2.128 8.556 12.257 5.711 9.241-2.353-2.481-6.567-3.679-8.621-4.15a10.03 10.03 0 01.71-1.465z" transform="translate(-2203.475 -807.571)"/><path id="패스_2124" data-name="패스 2124" class="cls-21" d="M2303.153 853.738s11.4 1.764 13.541 5.839c1.647 3.112-3.979 19.306-6.738 26.729a10.444 10.444 0 00.064 7.466l4.856 12.525c-10.1 3.519-21.776 3.369-34.825 0 0 0 4.428-11.337 2.952-17.99-1.519-6.642-11.423-10.514-8.15-16.3s6.909-9.423 6.246-12.653c-.6-3.2 7.1-4.385 10.952-5.614 3.829-1.232 11.102-.002 11.102-.002z" transform="translate(-2202.569 -822.848)"/><path id="패스_2125" data-name="패스 2125" d="M2280.453 890.354l29.478-1.112 1.2 2.984-30.675-1.872z" transform="translate(-2201.222 -814.903)" fill="#e56901"/><path id="패스_2126" data-name="패스 2126" class="cls-4" d="M2303.282 854.831s2.845 4.268-6.931 5.252-10.289-4.535-10.289-4.535.171-2.289 3.636-2.92c4.128-.749 7.979.578 9.07.182s3.701.555 4.514 2.021z" transform="translate(-2199.981 -823.026)"/><g id="그룹_686" data-name="그룹 686" transform="translate(84.333)"><path id="패스_2127" data-name="패스 2127" class="cls-5" d="M2298.992 832.07s5.219-6.043 10.46-2.77c5.219 3.262 1.3 11.765 6.375 13.883 0 0-6.546 5.551-12.749-2.289-6.225-7.84-4.086-8.824-4.086-8.824z" transform="translate(-2281.537 -828.328)"/><path id="패스_2128" data-name="패스 2128" class="cls-5" d="M2299.3 840.679a38.108 38.108 0 01-11.872.588 3.241 3.241 0 01-2.781-3.508 9.313 9.313 0 017.38-8.867c9.156-2.439 12.471 3.808 12.471 3.808s8.022 10.952-.749 17.509c-8.666 6.556-4.449-9.53-4.449-9.53z" transform="translate(-2284.631 -828.327)"/><path id="패스_2129" data-name="패스 2129" class="cls-10" d="M2286.083 838.039s-.535 6.343.877 9.177c1.369 2.824 4.021 2.374 3.872 4.706a15.227 15.227 0 01-1.476 4.76 2.022 2.022 0 00.214 2.278c.62.759 1.883 1.5 4.471 1.562a15.826 15.826 0 004-.342 2.141 2.141 0 001.326-3.166c-1.07-1.765-2.161-4.428-.342-6.257 2.995-2.963 5.391-5.262 4.128-7.327a2.068 2.068 0 00-3.187-.513l-.941-4.375s-11.894.642-12.942-.503z" transform="translate(-2284.328 -826.185)"/></g><path id="패스_2130" data-name="패스 2130" class="cls-21" d="M2310.54 859.425s6.353 10 7.893 16.835c1.519 6.824 11.594-22.407 11.594-22.407a9.341 9.341 0 008.942 3.187s-8.578 26.237-16.75 34.782c-8.107 8.535-20.086-22.6-20.086-22.6s2.203-12 8.407-9.797z" transform="translate(-2196.454 -822.703)"/><path id="패스_2131" data-name="패스 2131" class="cls-4" d="M2325.314 853.853a9.423 9.423 0 008.963 3.187s-.706 2.054-1.818 5.2c-4.813-.332-7.53-1.733-9.006-3.123 1.091-3.061 1.861-5.264 1.861-5.264z" transform="translate(-2191.747 -822.703)"/><path id="패스_2132" data-name="패스 2132" class="cls-10" d="M2276.087 916.353l9.241 10.578-6.054 6.268-10.4-9.006s-2.264-10.593 7.213-7.84z" transform="translate(-2203.841 -809.032)"/><path id="패스_2133" data-name="패스 2133" class="cls-10" d="M2284.283 924.95s10.61 4.813 8.428 8.022c-2.16 3.219-12.471 12.407-17.669 9.541s3.187-5.465 3.209-11.295a5.919 5.919 0 016.032-6.268z" transform="translate(-2202.786 -807.042)"/><path id="패스_2134" data-name="패스 2134" class="cls-23" d="M2281.331 931.441c1.455-.93 0-1.936 1.519-3.883s5.711-.642 5.754-.642c2.631 1.669 5.326 3.936 4.128 5.711-2.161 3.209-12.493 12.407-17.691 9.53-4.77-2.642 1.925-5.038 3.059-9.947a6.22 6.22 0 003.231-.769z" transform="translate(-2202.792 -806.699)"/><path id="패스_2135" data-name="패스 2135" d="M2280.628 938.959c3.166-1.048 9.391-7.123 10.7-8 .577-.406.92-.332 1.134-.118a1.724 1.724 0 01-.3.866c-1.925 2.866-10.354 10.492-15.873 10.054-1.089-1.176 1.131-1.721 4.339-2.802z" transform="translate(-2202.192 -805.77)" fill="#1957c2"/><path id="패스_2136" data-name="패스 2136" d="M2305.6 877.1a.249.249 0 01-.257-.182c-.171-.481-3.722-11.776.941-18.268a.268.268 0 01.364-.064.265.265 0 01.085.385c-4.492 6.257-.92 17.659-.9 17.776a.253.253 0 01-.15.342c.001.011-.064.011-.083.011z" transform="translate(-2196.074 -821.67)" fill="#e86d08"/><path id="패스_2137" data-name="패스 2137" class="cls-18" d="M2219.178 890.6h121.7a1.189 1.189 0 001.134-1.187 1.184 1.184 0 00-1.134-1.2h-121.7a1.192 1.192 0 00-1.177 1.2 1.2 1.2 0 001.177 1.187z" transform="translate(-2214.996 -815.129)"/><g id="그룹_688" data-name="그룹 688" transform="translate(0 47.028)"><path id="패스_2138" data-name="패스 2138" class="cls-17" d="M2272.758 888.548H2233.4a1.853 1.853 0 01-1.861-1.85h43.04a1.831 1.831 0 01-1.821 1.85z" transform="translate(-2211.996 -862.496)"/><path id="패스_2139" data-name="패스 2139" class="cls-13" d="M2269.245 888.548h-43.253a1.831 1.831 0 01-1.818-1.85h42.911c.363.812.791 1.85 2.16 1.85z" transform="translate(-2213.617 -862.496)"/><g id="그룹_687" data-name="그룹 687" transform="translate(46.55 24.824)"><path id="패스_2140" data-name="패스 2140" class="cls-16" d="M2255.661 887.93h-1.626a.348.348 0 01-.364-.364.354.354 0 01.364-.364h1.626a.368.368 0 01.364.364.361.361 0 01-.364.364z" transform="translate(-2253.672 -887.203)"/><circle id="타원_139" data-name="타원 139" class="cls-16" cx=".365" cy=".365" r=".365" transform="translate(2.954)"/></g><path id="패스_2141" data-name="패스 2141" class="cls-4" d="M2217.343 866.863h38.184a3.138 3.138 0 012.845 1.765l10.76 22.44h-43.061l-10.371-21.606a1.836 1.836 0 011.643-2.599z" transform="translate(-2215.528 -866.863)"/><path id="패스_2142" data-name="패스 2142" class="cls-13" d="M2248.26 866.863h1.134a3.115 3.115 0 012.845 1.765l10.781 22.44h-1.155l-10.781-22.44a3.13 3.13 0 00-2.824-1.765z" transform="translate(-2208.306 -866.863)"/></g></g></g></svg>