<svg id="img_3" xmlns="http://www.w3.org/2000/svg" width="389.957" height="350"><defs><style>.cls-2{fill:#4f5569}.cls-3{fill:#4a63fe}.cls-4{fill:#e6eff8}.cls-5{fill:#f4f8fc}.cls-8{fill:#f8f8f8}.cls-10{fill:#ff7d12}.cls-11{fill:#fff}.cls-12{fill:#f0f8ff}.cls-15{fill:#e56304}.cls-16{fill:#febeb5}.cls-19{fill:#9e8fae}.cls-20{fill:#103bb2}.cls-22{fill:#2e53ed}.cls-23{fill:#0049dc}.cls-25{fill:#2c1817}</style></defs><g id="그룹_454" data-name="그룹 454"><g id="그룹_212" data-name="그룹 212"><g id="그룹_187" data-name="그룹 187" transform="translate(39.544 25.829)"><path id="사각형_100" data-name="사각형 100" transform="translate(68.752)" d="M0 0h.601v214.44H0z" fill="#cecece"/><path id="패스_508" data-name="패스 508" class="cls-2" d="M179.046 509.365a1.921 1.921 0 01-1.917-1.932 1.914 1.914 0 011.917-1.916 1.919 1.919 0 011.924 1.916 1.926 1.926 0 01-1.924 1.932z" transform="translate(-99.948 -493.322)"/><path id="패스_509" data-name="패스 509" class="cls-2" d="M179.046 523.627a1.924 1.924 0 01-1.917-1.943 1.925 1.925 0 011.917-1.916 1.93 1.93 0 011.924 1.916 1.929 1.929 0 01-1.924 1.943z" transform="translate(-99.948 -496.255)"/><path id="패스_510" data-name="패스 510" class="cls-2" d="M179.046 537.869a1.921 1.921 0 01-1.917-1.932 1.915 1.915 0 011.917-1.916 1.92 1.92 0 011.924 1.916 1.926 1.926 0 01-1.924 1.932z" transform="translate(-99.948 -499.195)"/><path id="패스_511" data-name="패스 511" class="cls-2" d="M179.046 552.125a1.929 1.929 0 01-1.917-1.937 1.914 1.914 0 011.917-1.916 1.919 1.919 0 011.924 1.916 1.934 1.934 0 01-1.924 1.937z" transform="translate(-99.948 -502.117)"/><path id="패스_512" data-name="패스 512" class="cls-2" d="M179.046 566.37a1.915 1.915 0 01-1.917-1.916 1.928 1.928 0 011.917-1.932 1.933 1.933 0 011.924 1.932 1.92 1.92 0 01-1.924 1.916z" transform="translate(-99.948 -505.056)"/><path id="패스_513" data-name="패스 513" class="cls-2" d="M179.046 580.632a1.926 1.926 0 01-1.917-1.937 1.919 1.919 0 011.917-1.922 1.924 1.924 0 011.924 1.922 1.931 1.931 0 01-1.924 1.937z" transform="translate(-99.948 -507.986)"/><path id="패스_514" data-name="패스 514" class="cls-2" d="M179.046 594.878a1.916 1.916 0 01-1.917-1.922 1.918 1.918 0 011.917-1.932 1.923 1.923 0 011.924 1.932 1.921 1.921 0 01-1.924 1.922z" transform="translate(-99.948 -510.924)"/><path id="패스_515" data-name="패스 515" class="cls-2" d="M179.046 609.129a1.919 1.919 0 01-1.917-1.937 1.918 1.918 0 011.917-1.916 1.923 1.923 0 011.924 1.916 1.924 1.924 0 01-1.924 1.937z" transform="translate(-99.948 -513.855)"/><path id="패스_516" data-name="패스 516" class="cls-2" d="M179.046 623.193a1.916 1.916 0 01-1.917-1.922 1.928 1.928 0 011.917-1.932 1.933 1.933 0 011.924 1.932 1.921 1.921 0 01-1.924 1.922z" transform="translate(-99.948 -516.75)"/><path id="패스_517" data-name="패스 517" class="cls-2" d="M179.046 637.439a1.921 1.921 0 01-1.917-1.932 1.915 1.915 0 011.917-1.916 1.919 1.919 0 011.924 1.916 1.926 1.926 0 01-1.924 1.932z" transform="translate(-99.948 -519.681)"/><path id="패스_518" data-name="패스 518" class="cls-2" d="M179.046 651.674a1.917 1.917 0 01-1.917-1.911 1.909 1.909 0 011.917-1.922 1.914 1.914 0 011.924 1.922 1.922 1.922 0 01-1.924 1.911z" transform="translate(-99.948 -522.619)"/><path id="패스_519" data-name="패스 519" class="cls-2" d="M179.046 665.94a1.907 1.907 0 01-1.917-1.911 1.926 1.926 0 011.917-1.937 1.931 1.931 0 011.924 1.937 1.911 1.911 0 01-1.924 1.911z" transform="translate(-99.948 -525.549)"/><path id="패스_520" data-name="패스 520" class="cls-2" d="M179.046 680.191a1.92 1.92 0 01-1.917-1.927 1.922 1.922 0 011.917-1.922 1.927 1.927 0 011.924 1.922 1.925 1.925 0 01-1.924 1.927z" transform="translate(-99.948 -528.487)"/><path id="패스_521" data-name="패스 521" class="cls-2" d="M179.046 694.256a1.927 1.927 0 01-1.917-1.927 1.909 1.909 0 011.917-1.922 1.914 1.914 0 011.924 1.922 1.932 1.932 0 01-1.924 1.927z" transform="translate(-99.948 -531.383)"/><path id="패스_522" data-name="패스 522" class="cls-2" d="M179.046 708.485a1.921 1.921 0 01-1.917-1.916 1.906 1.906 0 011.917-1.911 1.911 1.911 0 011.924 1.911 1.926 1.926 0 01-1.924 1.916z" transform="translate(-99.948 -534.306)"/><path id="패스_523" data-name="패스 523" class="cls-2" d="M179.046 722.762a1.926 1.926 0 01-1.917-1.937 1.911 1.911 0 011.917-1.916 1.916 1.916 0 011.924 1.916 1.931 1.931 0 01-1.924 1.937z" transform="translate(-99.948 -537.244)"/><path id="패스_524" data-name="패스 524" class="cls-2" d="M179.046 737.013a1.937 1.937 0 01-1.917-1.927 1.924 1.924 0 011.917-1.927 1.929 1.929 0 011.924 1.927 1.942 1.942 0 01-1.924 1.927z" transform="translate(-99.948 -540.182)"/><path id="패스_525" data-name="패스 525" class="cls-2" d="M179.046 751.244a1.921 1.921 0 01-1.917-1.916 1.915 1.915 0 011.917-1.916 1.92 1.92 0 011.924 1.916 1.926 1.926 0 01-1.924 1.916z" transform="translate(-99.948 -543.113)"/><g id="그룹_185" data-name="그룹 185" transform="translate(0 2.461)"><path id="패스_526" data-name="패스 526" class="cls-3" d="M82.306 497.982a2.356 2.356 0 01-2.362-2.36 2.367 2.367 0 012.362-2.366 2.367 2.367 0 012.361 2.366 2.356 2.356 0 01-2.361 2.36z" transform="translate(-79.944 -493.256)"/><rect id="사각형_101" data-name="사각형 101" class="cls-4" width="21.584" height="2.409" rx="1.204" transform="translate(6.553 1.06)"/><path id="패스_527" data-name="패스 527" class="cls-3" d="M82.306 531.345a2.36 2.36 0 01-2.362-2.366 2.361 2.361 0 012.362-2.355 2.361 2.361 0 012.361 2.355 2.36 2.36 0 01-2.361 2.366z" transform="translate(-79.944 -500.132)"/><rect id="사각형_102" data-name="사각형 102" class="cls-4" width="21.584" height="2.409" rx="1.204" transform="translate(6.553 27.559)"/><path id="패스_528" data-name="패스 528" class="cls-3" d="M82.306 574.782a2.36 2.36 0 01-2.362-2.366 2.351 2.351 0 012.362-2.355 2.351 2.351 0 012.361 2.355 2.36 2.36 0 01-2.361 2.366z" transform="translate(-79.944 -509.069)"/><rect id="사각형_103" data-name="사각형 103" class="cls-4" width="21.584" height="2.409" rx="1.204" transform="translate(6.553 62.055)"/><path id="패스_529" data-name="패스 529" class="cls-3" d="M82.306 586a2.353 2.353 0 01-2.362-2.366 2.349 2.349 0 012.362-2.349 2.35 2.35 0 012.361 2.349A2.353 2.353 0 0182.306 586z" transform="translate(-79.944 -511.375)"/><rect id="사각형_104" data-name="사각형 104" class="cls-4" width="21.584" height="2.409" rx="1.204" transform="translate(6.553 70.968)"/><path id="패스_530" data-name="패스 530" class="cls-3" d="M90.556 506.714a2.359 2.359 0 01-2.361-2.36 2.359 2.359 0 012.361-2.36 2.359 2.359 0 012.36 2.36 2.359 2.359 0 01-2.36 2.36z" transform="translate(-81.642 -495.055)"/><rect id="사각형_105" data-name="사각형 105" class="cls-4" width="21.584" height="2.409" rx="1.204" transform="translate(13.105 7.998)"/><path id="패스_531" data-name="패스 531" class="cls-3" d="M90.556 515.45a2.36 2.36 0 01-2.361-2.366 2.358 2.358 0 012.361-2.355 2.358 2.358 0 012.36 2.355 2.36 2.36 0 01-2.36 2.366z" transform="translate(-81.642 -496.853)"/><rect id="사각형_106" data-name="사각형 106" class="cls-4" width="29.775" height="2.409" rx="1.204" transform="translate(13.105 14.936)"/><path id="패스_532" data-name="패스 532" class="cls-3" d="M90.556 539.717a2.361 2.361 0 01-2.361-2.372A2.36 2.36 0 0190.556 535a2.36 2.36 0 012.36 2.349 2.362 2.362 0 01-2.36 2.368z" transform="translate(-81.642 -501.846)"/><rect id="사각형_107" data-name="사각형 107" class="cls-4" width="36.231" height="2.409" rx="1.204" transform="translate(13.105 34.207)"/><path id="패스_533" data-name="패스 533" class="cls-3" d="M90.556 548.458A2.362 2.362 0 0188.2 546.1a2.367 2.367 0 012.361-2.366 2.367 2.367 0 012.36 2.366 2.363 2.363 0 01-2.365 2.358z" transform="translate(-81.642 -503.644)"/><rect id="사각형_108" data-name="사각형 108" class="cls-4" width="24.475" height="2.409" rx="1.204" transform="translate(13.105 41.145)"/><path id="패스_534" data-name="패스 534" class="cls-3" d="M98.31 556.673a1.869 1.869 0 01-1.864-1.873 1.857 1.857 0 011.864-1.847 1.857 1.857 0 011.864 1.847 1.87 1.87 0 01-1.864 1.873z" transform="translate(-83.341 -505.548)"/><path id="패스_535" data-name="패스 535" class="cls-4" d="M142.317 555.922h-38.409a.958.958 0 01-.95-.947.963.963 0 01.95-.969h38.409a.964.964 0 01.953.969.96.96 0 01-.953.947z" transform="translate(-84.682 -505.759)"/><path id="패스_536" data-name="패스 536" class="cls-3" d="M98.31 563.568a1.863 1.863 0 01-1.864-1.862 1.852 1.852 0 011.864-1.857 1.853 1.853 0 011.864 1.857 1.864 1.864 0 01-1.864 1.862z" transform="translate(-83.341 -506.962)"/><path id="패스_537" data-name="패스 537" class="cls-4" d="M126.611 562.8h-22.7a.954.954 0 01-.95-.958.943.943 0 01.95-.937h22.7a.941.941 0 01.949.937.953.953 0 01-.949.958z" transform="translate(-84.682 -507.181)"/></g><g id="그룹_186" data-name="그룹 186" transform="translate(0 82.342)"><path id="패스_538" data-name="패스 538" class="cls-3" d="M82.306 598.557a2.36 2.36 0 01-2.362-2.366 2.357 2.357 0 012.362-2.349 2.357 2.357 0 012.361 2.349 2.36 2.36 0 01-2.361 2.366z" transform="translate(-79.944 -593.842)"/><rect id="사각형_109" data-name="사각형 109" class="cls-4" width="21.584" height="2.409" rx="1.204" transform="translate(6.553 1.06)"/><path id="패스_539" data-name="패스 539" class="cls-3" d="M82.306 631.93a2.351 2.351 0 01-2.362-2.355 2.363 2.363 0 012.362-2.366 2.364 2.364 0 012.361 2.366 2.351 2.351 0 01-2.361 2.355z" transform="translate(-79.944 -600.716)"/><rect id="사각형_110" data-name="사각형 110" class="cls-4" width="21.584" height="2.409" rx="1.204" transform="translate(6.553 27.559)"/><path id="패스_542" data-name="패스 542" class="cls-3" d="M90.556 607.3a2.358 2.358 0 01-2.361-2.355 2.36 2.36 0 012.361-2.366 2.36 2.36 0 012.36 2.366 2.358 2.358 0 01-2.36 2.355z" transform="translate(-81.642 -595.64)"/><rect id="사각형_113" data-name="사각형 113" class="cls-4" width="21.584" height="2.409" rx="1.204" transform="translate(13.105 7.998)"/><path id="패스_543" data-name="패스 543" class="cls-3" d="M90.556 616.035a2.36 2.36 0 01-2.361-2.366 2.361 2.361 0 012.361-2.355 2.362 2.362 0 012.36 2.355 2.36 2.36 0 01-2.36 2.366z" transform="translate(-81.642 -597.438)"/><rect id="사각형_114" data-name="사각형 114" class="cls-4" width="29.775" height="2.409" rx="1.204" transform="translate(13.105 14.936)"/><path id="패스_544" data-name="패스 544" class="cls-3" d="M90.556 640.3a2.357 2.357 0 01-2.356-2.37 2.356 2.356 0 012.361-2.349 2.357 2.357 0 012.36 2.349 2.357 2.357 0 01-2.365 2.37z" transform="translate(-81.642 -602.431)"/><rect id="사각형_115" data-name="사각형 115" class="cls-4" width="36.231" height="2.409" rx="1.204" transform="translate(13.105 34.208)"/><path id="패스_545" data-name="패스 545" class="cls-3" d="M90.556 649.032a2.356 2.356 0 01-2.361-2.349 2.363 2.363 0 012.361-2.366 2.364 2.364 0 012.36 2.366 2.357 2.357 0 01-2.36 2.349z" transform="translate(-81.642 -604.23)"/><rect id="사각형_116" data-name="사각형 116" class="cls-4" width="24.475" height="2.409" rx="1.204" transform="translate(13.105 41.145)"/><path id="패스_546" data-name="패스 546" class="cls-3" d="M98.31 657.275a1.88 1.88 0 01-1.864-1.874 1.86 1.86 0 011.864-1.862 1.861 1.861 0 011.864 1.862 1.88 1.88 0 01-1.864 1.874z" transform="translate(-83.341 -606.134)"/><path id="패스_547" data-name="패스 547" class="cls-4" d="M142.317 656.491h-38.409a.948.948 0 01-.95-.947.953.953 0 01.95-.953h38.409a.954.954 0 01.953.953.949.949 0 01-.953.947z" transform="translate(-84.682 -606.345)"/><path id="패스_548" data-name="패스 548" class="cls-3" d="M98.31 664.148a1.862 1.862 0 01-1.864-1.857 1.858 1.858 0 011.864-1.857 1.859 1.859 0 011.864 1.857 1.863 1.863 0 01-1.864 1.857z" transform="translate(-83.341 -607.547)"/><path id="패스_549" data-name="패스 549" class="cls-4" d="M126.611 663.4h-22.7a.962.962 0 01-.95-.963.958.958 0 01.95-.947h22.7a.957.957 0 01.949.947.961.961 0 01-.949.963z" transform="translate(-84.682 -607.765)"/></g><path id="패스_550" data-name="패스 550" class="cls-2" d="M179.046 495.114a1.915 1.915 0 01-1.917-1.922 1.92 1.92 0 011.917-1.927 1.925 1.925 0 011.924 1.927 1.92 1.92 0 01-1.924 1.922z" transform="translate(-99.948 -490.386)"/><path id="패스_551" data-name="패스 551" class="cls-5" d="M210.387 495.114h-19.274a1.916 1.916 0 01-1.921-1.922 1.921 1.921 0 011.921-1.927h19.273a1.925 1.925 0 011.924 1.927 1.92 1.92 0 01-1.923 1.922z" transform="translate(-102.431 -490.386)"/><path id="패스_552" data-name="패스 552" class="cls-5" d="M265.738 495.114h-38.316a1.924 1.924 0 01-1.927-1.922 1.929 1.929 0 011.927-1.927h38.317a1.926 1.926 0 011.927 1.927 1.921 1.921 0 01-1.928 1.922z" transform="translate(-109.902 -490.386)"/><path id="패스_553" data-name="패스 553" class="cls-5" d="M244.884 509.365h-53.771a1.922 1.922 0 01-1.921-1.932 1.915 1.915 0 011.921-1.916h53.771a1.919 1.919 0 011.924 1.916 1.926 1.926 0 01-1.924 1.932z" transform="translate(-102.431 -493.322)"/><path id="패스_554" data-name="패스 554" class="cls-5" d="M368.667 509.365h-97.806a1.926 1.926 0 01-1.927-1.932 1.92 1.92 0 011.927-1.916h97.806a1.92 1.92 0 011.927 1.916 1.926 1.926 0 01-1.927 1.932z" transform="translate(-118.842 -493.322)"/><rect id="사각형_117" data-name="사각형 117" class="cls-5" width="23.119" height="3.846" rx="1.923" transform="translate(86.761 23.515)"/><path id="패스_555" data-name="패스 555" class="cls-5" d="M200.648 537.869h-9.535a1.922 1.922 0 01-1.921-1.932 1.916 1.916 0 011.921-1.916h9.535a1.917 1.917 0 011.919 1.916 1.923 1.923 0 01-1.919 1.932z" transform="translate(-102.431 -499.195)"/><path id="패스_556" data-name="패스 556" class="cls-5" d="M249.835 537.869h-34.677a1.927 1.927 0 01-1.927-1.932 1.92 1.92 0 011.927-1.916h34.677a1.919 1.919 0 011.922 1.916 1.926 1.926 0 01-1.922 1.932z" transform="translate(-107.38 -499.195)"/><path id="패스_557" data-name="패스 557" class="cls-5" d="M224.94 552.125h-19.268a1.932 1.932 0 01-1.924-1.937 1.917 1.917 0 011.924-1.916h19.268a1.92 1.92 0 011.927 1.916 1.935 1.935 0 01-1.927 1.937z" transform="translate(-105.426 -502.117)"/><path id="패스_558" data-name="패스 558" class="cls-5" d="M289.007 552.125h-47.036a1.934 1.934 0 01-1.921-1.937 1.918 1.918 0 011.921-1.916h47.035a1.919 1.919 0 011.921 1.916 1.934 1.934 0 01-1.92 1.937z" transform="translate(-112.9 -502.117)"/><path id="패스_559" data-name="패스 559" class="cls-5" d="M375.113 566.37H205.672a1.918 1.918 0 01-1.924-1.916 1.931 1.931 0 011.924-1.932h169.441a1.934 1.934 0 011.927 1.932 1.92 1.92 0 01-1.927 1.916z" transform="translate(-105.426 -505.056)"/><path id="패스_560" data-name="패스 560" class="cls-5" d="M452.251 566.37H432.71a1.914 1.914 0 01-1.927-1.916 1.927 1.927 0 011.927-1.932h19.541a1.928 1.928 0 011.916 1.932 1.915 1.915 0 01-1.916 1.916z" transform="translate(-152.163 -505.056)"/><path id="패스_561" data-name="패스 561" class="cls-5" d="M452.251 565.951H432.71a1.917 1.917 0 01-1.927-1.916 1.916 1.916 0 011.927-1.916h19.541a1.917 1.917 0 011.916 1.916 1.918 1.918 0 01-1.916 1.916z" transform="translate(-152.163 -504.971)"/><path id="패스_562" data-name="패스 562" class="cls-5" d="M362.711 594.878H222.386a1.92 1.92 0 01-1.922-1.922 1.922 1.922 0 011.922-1.932h140.325a1.925 1.925 0 011.924 1.932 1.922 1.922 0 01-1.924 1.922z" transform="translate(-108.866 -510.924)"/><path id="패스_563" data-name="패스 563" class="cls-5" d="M447.927 594.878h-36.251a1.924 1.924 0 01-1.927-1.922 1.927 1.927 0 011.927-1.932h36.251a1.924 1.924 0 011.927 1.932 1.921 1.921 0 01-1.927 1.922z" transform="translate(-147.829 -510.924)"/><path id="패스_564" data-name="패스 564" class="cls-5" d="M215.1 609.129h-9.425a1.922 1.922 0 01-1.924-1.937 1.921 1.921 0 011.924-1.916h9.425a1.92 1.92 0 011.927 1.916 1.921 1.921 0 01-1.927 1.937z" transform="translate(-105.426 -513.855)"/><path id="패스_565" data-name="패스 565" class="cls-5" d="M224.94 623.193h-19.268a1.919 1.919 0 01-1.924-1.922 1.931 1.931 0 011.924-1.932h19.268a1.934 1.934 0 011.927 1.932 1.921 1.921 0 01-1.927 1.922z" transform="translate(-105.426 -516.75)"/><path id="패스_566" data-name="패스 566" class="cls-5" d="M289.007 623.193h-47.036a1.92 1.92 0 01-1.921-1.922 1.932 1.932 0 011.921-1.932h47.035a1.932 1.932 0 011.921 1.932 1.92 1.92 0 01-1.92 1.922z" transform="translate(-112.9 -516.75)"/><path id="패스_567" data-name="패스 567" class="cls-5" d="M375.113 637.439H205.672a1.925 1.925 0 01-1.924-1.932 1.918 1.918 0 011.924-1.916h169.441a1.92 1.92 0 011.927 1.916 1.927 1.927 0 01-1.927 1.932z" transform="translate(-105.426 -519.681)"/><path id="패스_568" data-name="패스 568" class="cls-5" d="M452.251 637.439H432.71a1.92 1.92 0 01-1.927-1.932 1.913 1.913 0 011.927-1.916h19.541a1.915 1.915 0 011.916 1.916 1.921 1.921 0 01-1.916 1.932z" transform="translate(-152.163 -519.681)"/><path id="패스_570" data-name="패스 570" class="cls-5" d="M457.357 651.674H222.386a1.921 1.921 0 01-1.922-1.911 1.913 1.913 0 011.922-1.922h234.971a1.913 1.913 0 011.922 1.922 1.921 1.921 0 01-1.922 1.911z" transform="translate(-108.866 -522.619)"/><path id="패스_571" data-name="패스 571" class="cls-5" d="M261.57 665.94h-39.184a1.911 1.911 0 01-1.922-1.911 1.93 1.93 0 011.922-1.937h39.184a1.926 1.926 0 011.919 1.937 1.907 1.907 0 01-1.919 1.911z" transform="translate(-108.866 -525.549)"/><path id="패스_572" data-name="패스 572" class="cls-5" d="M375.822 665.94h-89.751a1.912 1.912 0 01-1.927-1.911 1.931 1.931 0 011.927-1.937h89.752a1.929 1.929 0 011.924 1.937 1.91 1.91 0 01-1.925 1.911z" transform="translate(-121.973 -525.549)"/><path id="패스_573" data-name="패스 573" class="cls-5" d="M447.927 665.94h-36.251a1.915 1.915 0 01-1.927-1.911 1.934 1.934 0 011.927-1.937h36.251a1.931 1.931 0 011.927 1.937 1.912 1.912 0 01-1.927 1.911z" transform="translate(-147.829 -525.549)"/><rect id="사각형_118" data-name="사각형 118" class="cls-5" width="13.276" height="3.846" rx="1.923" transform="translate(98.321 147.862)"/><path id="패스_574" data-name="패스 574" class="cls-5" d="M224.94 694.256h-19.268a1.93 1.93 0 01-1.924-1.927 1.912 1.912 0 011.924-1.922h19.268a1.914 1.914 0 011.927 1.922 1.932 1.932 0 01-1.927 1.927z" transform="translate(-105.426 -531.383)"/><path id="패스_575" data-name="패스 575" d="M289.007 694.256h-47.036a1.931 1.931 0 01-1.921-1.927 1.913 1.913 0 011.921-1.922h47.035a1.913 1.913 0 011.921 1.922 1.931 1.931 0 01-1.92 1.927z" transform="translate(-112.9 -531.383)" fill="#bababa"/><path id="패스_576" data-name="패스 576" class="cls-5" d="M375.113 708.485H205.672a1.924 1.924 0 01-1.924-1.916 1.91 1.91 0 011.924-1.911h169.441a1.912 1.912 0 011.927 1.911 1.927 1.927 0 01-1.927 1.916z" transform="translate(-105.426 -534.306)"/><path id="패스_578" data-name="패스 578" class="cls-5" d="M452.251 708.108H432.71a1.922 1.922 0 01-1.927-1.927 1.912 1.912 0 011.927-1.926h19.541a1.913 1.913 0 011.916 1.926 1.923 1.923 0 01-1.916 1.927z" transform="translate(-152.163 -534.229)"/><path id="패스_579" data-name="패스 579" class="cls-5" d="M457.357 722.762H222.386a1.93 1.93 0 01-1.922-1.937 1.915 1.915 0 011.922-1.916h234.971a1.915 1.915 0 011.922 1.916 1.93 1.93 0 01-1.922 1.937z" transform="translate(-108.866 -537.244)"/><path id="패스_580" data-name="패스 580" class="cls-5" d="M362.711 737.013H222.386a1.942 1.942 0 01-1.922-1.927 1.928 1.928 0 011.922-1.927h140.325a1.93 1.93 0 011.924 1.927 1.944 1.944 0 01-1.924 1.927z" transform="translate(-108.866 -540.182)"/><path id="패스_581" data-name="패스 581" class="cls-5" d="M447.927 737.013h-36.251a1.946 1.946 0 01-1.927-1.927 1.932 1.932 0 011.927-1.927h36.251a1.929 1.929 0 011.927 1.927 1.943 1.943 0 01-1.927 1.927z" transform="translate(-147.829 -540.182)"/><path id="패스_582" data-name="패스 582" class="cls-5" d="M508.865 737.013H472.6a1.94 1.94 0 01-1.916-1.927 1.927 1.927 0 011.916-1.927h36.262a1.923 1.923 0 011.916 1.927 1.937 1.937 0 01-1.913 1.927z" transform="translate(-160.374 -540.182)"/><path id="패스_583" data-name="패스 583" d="M215.1 751.244h-9.425a1.925 1.925 0 01-1.924-1.916 1.918 1.918 0 011.924-1.916h9.425a1.917 1.917 0 011.927 1.916 1.924 1.924 0 01-1.927 1.916z" transform="translate(-105.426 -543.113)" fill="#f5ab35"/></g><g id="그룹_189" data-name="그룹 189" transform="translate(87.987)"><rect id="사각형_119" data-name="사각형 119" class="cls-3" width="53.803" height="33.86" rx="6.041"/><g id="그룹_188" data-name="그룹 188" transform="translate(9.125 7.442)"><path id="패스_584" data-name="패스 584" class="cls-8" d="M138.654 471.988h3.506l10.085-18.979h-3.507z" transform="translate(-127.991 -453.008)"/><path id="패스_585" data-name="패스 585" class="cls-8" d="M167.617 463.668h-.023L162.167 456h-3.722l5.438 7.7-5.438 7.338h3.722l5.427-7.311h.023l-.013-.027z" transform="translate(-132.064 -453.625)"/><path id="패스_586" data-name="패스 586" class="cls-8" d="M125.227 463.668h.025L130.68 456h3.4l-5.438 7.7 5.438 7.338h-3.4l-5.427-7.311h-.025l.013-.027z" transform="translate(-125.227 -453.625)"/></g></g><g id="그룹_191" data-name="그룹 191" transform="translate(267.432 25.95)"><path id="사각형_120" data-name="사각형 120" d="M7.225 0h49.9a7.224 7.224 0 017.224 7.224v26.047a7.224 7.224 0 01-7.227 7.229H7.225A7.225 7.225 0 010 33.27V7.225A7.225 7.225 0 017.225 0z" fill="#ffac06"/><g id="그룹_190" data-name="그룹 190" transform="translate(13.537 8.9)"><path id="패스_587" data-name="패스 587" class="cls-8" d="M373.4 515.852a3.679 3.679 0 01-1.156.921l-.626.4a4.23 4.23 0 00.626.407 7.63 7.63 0 01.872.626 1.648 1.648 0 01.45.648 3.033 3.033 0 01.155 1.1v4.929a1.748 1.748 0 00.61 1.5 3.454 3.454 0 002.034.46v2.05h-.942a4.9 4.9 0 01-3.088-.76 3.086 3.086 0 01-.931-2.532v-5.818a1.894 1.894 0 00-.294-1.2 1.092 1.092 0 00-.91-.364h-.781v-2.071h.781a1.093 1.093 0 00.91-.37 1.9 1.9 0 00.294-1.2v-5.817a3.118 3.118 0 01.931-2.527 4.937 4.937 0 013.088-.76h.942v2.045a3.373 3.373 0 00-2.034.46 1.78 1.78 0 00-.61 1.51v4.951a2.343 2.343 0 01-.321 1.412z" transform="translate(-369.414 -505.479)"/><path id="패스_588" data-name="패스 588" class="cls-8" d="M414.549 516.152v2.071h-.787a1.114 1.114 0 00-.92.364 1.933 1.933 0 00-.289 1.2v5.813a3.07 3.07 0 01-.931 2.532 4.9 4.9 0 01-3.088.76h-.942v-2.05a3.475 3.475 0 002.039-.46 1.776 1.776 0 00.61-1.5v-4.929a2.806 2.806 0 01.161-1.1 1.578 1.578 0 01.439-.648 8.145 8.145 0 01.872-.626 3.694 3.694 0 00.621-.407l-.621-.4a3.713 3.713 0 01-1.151-.921 2.343 2.343 0 01-.321-1.407v-4.951a1.809 1.809 0 00-.61-1.51 3.393 3.393 0 00-2.039-.46v-2.045h.942a4.936 4.936 0 013.088.76 3.1 3.1 0 01.931 2.527v5.817a1.942 1.942 0 00.289 1.2 1.115 1.115 0 00.92.37z" transform="translate(-377.273 -505.479)"/></g></g><g id="그룹_199" data-name="그룹 199" transform="translate(325.943 216.219)"><path id="사각형_121" data-name="사각형 121" class="cls-10" d="M5.576 0h32.059a5.575 5.575 0 015.575 5.575v30.131a5.575 5.575 0 01-5.575 5.575H5.576A5.576 5.576 0 010 35.705V5.576A5.576 5.576 0 015.576 0z"/><g id="그룹_198" data-name="그룹 198" transform="translate(9.63 8.666)"><path id="패스_595" data-name="패스 595" class="cls-11" d="M472.932 755.523v2.969l.742.24a7.673 7.673 0 011.322.551l.693.353.545-.551 1.548-1.541 2.375 2.361-1.548 1.541-.551.58.353.693a6.652 6.652 0 01.551 1.315l.24.735h2.949v3.351h-2.963l-.226.749a6.986 6.986 0 01-.551 1.3l-.361.693.545.58 1.548 1.541-2.368 2.347-1.556-1.541-.544-.537-.693.353a8.308 8.308 0 01-1.315.551l-.749.226v2.97h-3.351v-2.97l-.742-.24a7.6 7.6 0 01-1.322-.537l-.693-.368-.559.552-1.534 1.541-2.375-2.361 1.548-1.556.559-.551-.361-.693a7.487 7.487 0 01-.544-1.315l-.233-.735h-2.983v-3.365h2.983l.233-.75a7.481 7.481 0 01.544-1.315l.361-.693-.545-.552-1.548-1.541 2.368-2.375 1.556 1.555.544.551.693-.353a6.017 6.017 0 011.315-.551l.749-.24v-2.969h3.351m1.068-1.045h-5.5v3.238a9.566 9.566 0 00-1.471.608l-2.3-2.291-3.881 3.875 2.3 2.291a11.29 11.29 0 00-.622 1.485h-3.252v5.486h3.252a9.728 9.728 0 00.6 1.5l-2.3 2.3 3.889 3.86 2.291-2.276a9.263 9.263 0 001.492.622v3.238h5.479v-3.238a7.959 7.959 0 001.492-.622l2.3 2.29 3.881-3.86-2.3-2.319a7.133 7.133 0 00.621-1.471h3.252v-5.5h-3.238a10.435 10.435 0 00-.615-1.471l2.283-2.319-3.874-3.86-2.3 2.276a10.6 10.6 0 00-1.485-.608v-3.238z" transform="translate(-459.273 -754.476)"/><path id="패스_596" data-name="패스 596" class="cls-11" d="M470.955 761.47a4.687 4.687 0 11-4.688 4.681 4.681 4.681 0 014.688-4.681m0-1.074a5.762 5.762 0 105.769 5.755 5.771 5.771 0 00-5.769-5.755z" transform="translate(-458.983 -754.186)"/></g></g><g id="그룹_208" data-name="그룹 208" transform="translate(0 158.953)"><path id="패스_609" data-name="패스 609" class="cls-12" d="M177.3 715.611v-11.925l-15.017-4.186a37.906 37.906 0 00-3.6-8.778l7.646-13.531-8.43-8.429-13.45 7.594a37.69 37.69 0 00-8.915-3.7l-4.134-14.871h-11.921l-4.129 14.868a37.671 37.671 0 00-8.916 3.7l-13.448-7.594-8.43 8.429 7.644 13.535a37.9 37.9 0 00-3.6 8.778l-15.02 4.185v11.925l15.139 4.2a38.067 38.067 0 003.591 8.569l-7.755 13.72 8.43 8.44 13.8-7.8a37.564 37.564 0 008.444 3.479l4.249 15.3H131.4l4.248-15.3a37.6 37.6 0 008.447-3.479l13.8 7.8 8.43-8.44-7.758-13.723a37.956 37.956 0 003.595-8.569zm-51.862 16.5a22.653 22.653 0 1122.653-22.672 22.659 22.659 0 01-22.651 22.667z" transform="translate(-39.089 -657.785)"/><path id="패스_610" data-name="패스 610" class="cls-12" d="M74.256 699.356l1.19-5.074-5.97-3.282a16.551 16.551 0 00-.653-4.089l4.6-4.988-2.743-4.437-6.48 1.895a16.735 16.735 0 00-3.42-2.467l-.272-6.728L55.441 669l-3.241 5.9a17.169 17.169 0 00-4.163.68l-4.959-4.566-4.427 2.746 1.9 6.514a16.785 16.785 0 00-2.41 3.383l-6.8.273-1.19 5.07 6.018 3.291a16.61 16.61 0 00.672 4l-4.668 5.053 2.743 4.432 6.647-1.932a16.677 16.677 0 003.243 2.317l.28 6.92 5.07 1.2 3.332-6.08a16.41 16.41 0 003.939-.642l5.091 4.7 4.426-2.735-1.928-6.616a16.632 16.632 0 002.384-3.281zm-23.7 1.825a9.891 9.891 0 1111.893-7.37 9.89 9.89 0 01-11.891 7.37z" transform="translate(-30.151 -660.097)"/></g></g><g id="그룹_317" data-name="그룹 317" transform="translate(96.956 132.671)"><g id="그룹_316" data-name="그룹 316"><path id="패스_915" data-name="패스 915" d="M183.453 225.644l115.02-5.015-7.113 25.993-66.973 28.083-42.649-19.005z" transform="translate(-130.292 -100.133)" fill="#031162"/><path id="패스_916" data-name="패스 916" d="M216.818 171.879l1 20.444h87.886l2.213-42.8z" transform="translate(-151.389 -57.365)" fill="#dadfe5"/><path id="패스_917" data-name="패스 917" class="cls-10" d="M202.431 4.675s-33.825 3.933-44.085 15.1S144.6 94.97 146.934 98.178s142.791 6.486 146.036.474-11.97-74.265-19.659-81.63-48.592-17.854-70.88-12.347z" transform="translate(-109.082 30.724)"/><path id="패스_918" data-name="패스 918" class="cls-15" d="M439.227 112.84h-.037a.428.428 0 01-.38-.448c1.15-13.244.011-50.549 0-50.925a.415.415 0 01.829-.025c.011.375 1.151 37.729 0 51.021a.415.415 0 01-.412.377z" transform="translate(-284.899 1.094)"/><path id="패스_919" data-name="패스 919" class="cls-15" d="M204.359 113.463h-.046a.413.413 0 01-.364-.459c1.793-15.681-1.442-47.892-1.472-48.215a.413.413 0 01.822-.084c.032.325 3.27 32.625 1.466 48.393a.407.407 0 01-.406.365z" transform="translate(-142.76 -.888)"/><path id="패스_920" data-name="패스 920" class="cls-16" d="M237.192 205.6l-1.777-7.159a.976.976 0 01.653-1.148l2.43-.752a.95.95 0 00.645-.736l.415-2.224a.96.96 0 01.942-.781h1.983a.955.955 0 00.811-.455l1.207-1.932a.966.966 0 011.3-.316l2.293 1.36a.941.941 0 00.953.013l1.351-.752a.965.965 0 011.271.3l4.825 7.3a.955.955 0 01-.3 1.346l-1.065.65a.959.959 0 01-1.218-.179.952.952 0 00-1.657.781l.043.316a.943.943 0 01-.519 1l-9.476 4.675a.8.8 0 01-.193.075c-.594.147-3.5.757-4.788-1.084a.961.961 0 01-.129-.298z" transform="translate(-162.556 -81.689)"/><path id="패스_921" data-name="패스 921" class="cls-16" d="M378.061 205.6l1.774-7.159a.963.963 0 00-.653-1.148l-2.424-.752a.972.972 0 01-.656-.736l-.407-2.224a.957.957 0 00-.948-.781h-1.983a.971.971 0 01-.808-.455l-1.212-1.932a.952.952 0 00-1.293-.316l-2.293 1.36a.961.961 0 01-.963.013l-1.343-.752a.96.96 0 00-1.269.3l-4.833 7.3a.965.965 0 00.3 1.346l1.068.65a.966.966 0 001.223-.179.959.959 0 011.664.781l-.054.316a.953.953 0 00.519 1l9.476 4.675a.848.848 0 00.187.075c.6.147 3.511.757 4.788-1.084a1.035 1.035 0 00.14-.298z" transform="translate(-236.659 -81.689)"/><path id="패스_922" data-name="패스 922" class="cls-15" d="M200.86 198.848c-.016 0-.035-.005-.057-.005l-22.47-3.31a.414.414 0 01.118-.819l22.47 3.31a.414.414 0 01-.06.824z" transform="translate(-128.031 -84.539)"/><path id="패스_923" data-name="패스 923" class="cls-15" d="M416.3 201.907a.417.417 0 01-.418-.343.424.424 0 01.338-.479l18.272-3.254a.414.414 0 01.476.332.422.422 0 01-.332.482L416.36 201.9a.241.241 0 01-.06.007z" transform="translate(-271.104 -86.415)"/><g id="그룹_311" data-name="그룹 311" transform="translate(87.279)"><g id="그룹_310" data-name="그룹 310"><path id="패스_924" data-name="패스 924" class="cls-16" d="M272.351-55.462s-2.473 21.252 12.661 21.252c13.766 0 13.29-18.283 13.29-18.283s1.376-11.316-9.294-12.6-17.294 5.812-16.657 9.631z" transform="translate(-266.271 78.602)"/><path id="패스_925" data-name="패스 925" d="M280.062-88.878a6.082 6.082 0 001.575 6.979 8.683 8.683 0 012.432 8.18l-.032.161a21.291 21.291 0 006.771-13.706c1.06-9.176-3.1-14.954-6.637-14.3 0 0-1.4-7.053-10.359-6.395s-16.349-.068-19.595 7.035 2.417 13.318 2.417 13.318a43.937 43.937 0 003.495 14.054l-1.191-8.775s8.318-10.273 21.124-6.551z" transform="translate(-253.215 108.004)" fill="#141938"/></g><path id="패스_926" data-name="패스 926" class="cls-16" d="M352.895-24.571l-1.052 7.2s5.1-2.7 5.018-6.363a2.575 2.575 0 00-1.006-2.253 1.963 1.963 0 00-2.96 1.416z" transform="translate(-321.028 51.82)"/><path id="패스_927" data-name="패스 927" class="cls-16" d="M264.13-27.628l.883 9.264s-4.889-2.833-4.806-6.5 3.923-2.764 3.923-2.764z" transform="translate(-258.018 52.808)"/></g><g id="그룹_312" data-name="그룹 312" transform="translate(68.619 84.973)"><rect id="사각형_160" data-name="사각형 160" class="cls-8" width="75.368" height="53.26" rx="5"/><path id="패스_928" data-name="패스 928" d="M298.936 267.618h-72.86a1.259 1.259 0 01-1.255-1.247 1.252 1.252 0 011.255-1.25h72.86a1.249 1.249 0 011.255 1.25 1.255 1.255 0 01-1.255 1.247z" transform="translate(-224.821 -211.863)" fill="#746980"/><path id="패스_929" data-name="패스 929" class="cls-19" d="M381.949 267.226a.533.533 0 11-1.065 0 .533.533 0 111.065 0z" transform="translate(-318.682 -212.8)"/><path id="사각형_161" data-name="사각형 161" class="cls-19" transform="translate(56.603 53.884)" d="M0 0h4.311v1.069H0z"/></g><g id="그룹_313" data-name="그룹 313" transform="translate(0 105.33)"><path id="패스_930" data-name="패스 930" class="cls-20" d="M81.624 185.345l99.836 60.611c-8.038 6.524-12.512 15.05-14.309 25.075L63.157 218.662a19.06 19.06 0 01-6.9-28.163 19.06 19.06 0 0125.367-5.154z" transform="translate(-52.663 -182.572)"/><path id="패스_931" data-name="패스 931" d="M293.8 364.681l-6.334 5.358 12.546 6.31c3.744-3.227 11.063-9.463 12.149-9.869 1.479-.568-18.361-1.799-18.361-1.799z" transform="translate(-193.877 -292.099)" opacity=".31" fill="#031162"/><path id="패스_932" data-name="패스 932" class="cls-22" d="M354.933 341.6l16.624 9.377a2.554 2.554 0 01.963 3.5c-4.381 7.651-19.016 32.373-26.742 35.731 0 0-6.243-2.007-3.856-10.169a25.705 25.705 0 00-.824-15.709s.546-19.03 13.835-22.73z" transform="translate(-226.134 -278.212)"/><path id="패스_933" data-name="패스 933" class="cls-23" d="M352.832 405.178c7.734-3.361 22.359-28.088 26.742-35.737a2.561 2.561 0 00-.289-2.96c-2.968 1.762-15.835 10.695-26.453 38.697z" transform="translate(-233.19 -293.18)"/></g><g id="그룹_314" data-name="그룹 314" transform="translate(56.686 113.094)"><path id="패스_934" data-name="패스 934" class="cls-20" d="M348.108 203.9l-105.474 50.15c7.327 7.309 10.913 16.244 11.679 26.4l108.781-41.52a19.075 19.075 0 009.73-27.321 19.068 19.068 0 00-24.716-7.709z" transform="translate(-223.603 -202.051)"/><path id="패스_935" data-name="패스 935" class="cls-22" d="M213.912 332.507l-17.494 7.627a2.561 2.561 0 00-1.314 3.4c3.586 8.058 15.626 34.139 22.974 38.268 0 0 6.409-1.367 4.865-9.725a25.8 25.8 0 012.419-15.553s1.395-18.983-11.45-24.017z" transform="translate(-194.881 -280.511)"/><path id="패스_936" data-name="패스 936" class="cls-23" d="M218.077 394.037c-7.349-4.137-19.388-30.216-22.974-38.276a2.566 2.566 0 01.591-2.912c2.78 2.041 14.668 12.251 22.383 41.188z" transform="translate(-194.882 -292.747)"/></g><g id="그룹_315" data-name="그룹 315" transform="translate(37.385 108.91)"><path id="패스_937" data-name="패스 937" class="cls-10" d="M147.1 191.554c-.751 9.693-.894 16.91-.178 17.892.66.9 12.23 1.812 28.6 2.516z" transform="translate(-146.458 -191.554)"/><path id="패스_938" data-name="패스 938" class="cls-10" d="M412.35 219.321c22.217-.254 39.4-1.223 40.516-3.284.787-1.475.3-6.9-.947-14.317z" transform="translate(-306.372 -197.667)"/></g><path id="패스_939" data-name="패스 939" d="M252.142 313.9a.423.423 0 01-.369-.236.416.416 0 01.2-.551l18.915-9a.426.426 0 01.554.2.41.41 0 01-.2.554l-18.923 9a.451.451 0 01-.177.033z" transform="translate(-172.385 -150.32)" fill="#000d41"/></g><g id="그룹_788" data-name="그룹 788" transform="rotate(-5.13 344.433 -1074.164)"><path id="패스_2239" data-name="패스 2239" class="cls-25" d="M0 .85c-.016.584 2.495 1.27 3.989 1.4s2.02-.3 2.036-.884S4.228.152 2.732.025.016.268 0 .85z" transform="translate(11.259 .908)"/><path id="패스_2240" data-name="패스 2240" class="cls-25" d="M0 1.509c-.044.854.25 1.564.656 1.584s.772-.654.817-1.508S1.229.021.821 0 .049.654 0 1.509z" transform="translate(11.359 4.143)"/><path id="패스_2241" data-name="패스 2241" class="cls-25" d="M6.026 1.313c-.017.583-2.551.841-4.045.714S-.015 1.383 0 .8 1.855-.1 3.348.028 6.042.73 6.026 1.313z"/><path id="패스_2242" data-name="패스 2242" class="cls-25" d="M1.477 1.586c-.045.854-.41 1.529-.817 1.508S-.039 2.363 0 1.509.415-.021.821 0s.7.731.656 1.586z" transform="translate(4.009 3.761)"/><path id="패스_2243" data-name="패스 2243" class="cls-25" d="M1.137 10.293H1.1a1.181 1.181 0 01-.995-.5c-.327-.508.165-3.781.844-8.01.107-.664.2-1.274.281-1.785l.336.051a363.79 363.79 0 01-.282 1.788C.871 4.4.107 9.172.388 9.611a.851.851 0 00.718.342h.031a1 1 0 00.806-.347l.276.2a1.344 1.344 0 01-1.082.487z" transform="translate(7.148 3.101)"/><path id="패스_2244" data-name="패스 2244" class="cls-25" d="M2.191 1.856A3.771 3.771 0 010 .842L.234.594a3.407 3.407 0 002.066.919C3.291 1.437 4.125.014 4.133 0l.294.17c-.036.064-.929 1.593-2.1 1.681a2.06 2.06 0 01-.136.005z" transform="translate(6.836 16.142)"/></g></g></g><circle id="타원_122" data-name="타원 122" class="cls-11" cx="8.915" cy="8.915" r="8.915" transform="translate(194.468 237.59)"/></svg>