<svg id="img_4" xmlns="http://www.w3.org/2000/svg" width="330.925" height="330"><defs><style>.cls-2{fill:#e0e7ee}.cls-3{fill:#faf9fe}.cls-6{fill:#febeb5}.cls-7{fill:#141938}.cls-8{fill:#4a63fe}.cls-9{fill:#4e405c}.cls-10{fill:#9e8fae}.cls-11{fill:#d4d3e7}.cls-12{fill:#fff}.cls-13,.cls-20{fill:#f6f9fc}.cls-18{fill:#191a44}.cls-19{fill:#202263}.cls-20{opacity:.9}.cls-21{fill:#ff6a4d}.cls-22{fill:#a7a9ac}.cls-25{fill:#b3b3b3}.cls-26{fill:#f2f2f2}.cls-27{fill:#2a29d8}.cls-28{fill:#e6e7e8}.cls-30{fill:#000d41}.cls-33{fill:#ff7d12}.cls-34{fill:#e56304}.cls-37{fill:#00338c}.cls-38{fill:#6b8aff}</style></defs><g id="그룹_361" data-name="그룹 361" transform="translate(145.261 88.851)"><path id="패스_1046" data-name="패스 1046" d="M1333.024 540.169h-64.949a2.112 2.112 0 01-1.842-1.381l-14.633-42.695c-.23-.764.129-1.386.921-1.386h64.949a2.13 2.13 0 011.86 1.386l14.576 42.695a.937.937 0 01-.882 1.381z" transform="translate(-1251.534 -494.707)" fill="#f4f8fc" opacity=".8"/><path id="패스_1047" data-name="패스 1047" class="cls-2" d="M1317.473 494.707h-64.949c-.792 0-1.151.622-.921 1.386l1.243 3.522h67.675l-1.188-3.522a2.13 2.13 0 00-1.86-1.386z" transform="translate(-1251.534 -494.707)"/><g id="그룹_360" data-name="그룹 360" transform="translate(59.688 1.995)"><path id="패스_1048" data-name="패스 1048" class="cls-3" d="M1370.8 499.3a.433.433 0 01-.414.644.976.976 0 01-.875-.644.453.453 0 01.414-.654 1 1 0 01.875.654z" transform="translate(-1369.477 -498.65)"/><path id="패스_1049" data-name="패스 1049" d="M1375.148 499.3a.473.473 0 01-.46.644.94.94 0 01-.847-.644.433.433 0 01.405-.654 1.083 1.083 0 01.902.654z" transform="translate(-1371.612 -498.65)" fill="#b07b99"/><path id="패스_1050" data-name="패스 1050" d="M1379.427 499.3c.083.364-.083.644-.414.644a.929.929 0 01-.875-.644.449.449 0 01.405-.654 1 1 0 01.884.654z" transform="translate(-1373.725 -498.65)" fill="#fca32d"/></g></g><g id="그룹_374" data-name="그룹 374" transform="translate(138.412 37.034)"><g id="그룹_373" data-name="그룹 373"><g id="그룹_666" data-name="그룹 666" transform="translate(93.536)"><path id="패스_1075" data-name="패스 1075" class="cls-6" d="M1429.463 412.631s4.273 3.9 4.273 7.875 4.553 11.259 10.635 7.906l.624 7.056 12.225-2.787s-4.288-5.579-4.054-11.684c.218-6.121-7.189-26.443-15.516-23.141-8.28 3.302-11.85 9.201-8.187 14.775z" transform="translate(-1422.604 -389.693)"/><path id="패스_1078" data-name="패스 1078" class="cls-7" d="M1415.365 394.518s1.185 8.888 13.286 6.218c9.123-2.011-3.586 20.525 1.871 28.489a26.942 26.942 0 0118.6-9.122c5.177-.288 10.245-3.084 8.2-13.676a71.306 71.306 0 00-7.36-20.155c-8.29-15.124-34.877-2.579-34.597 8.246z" transform="translate(-1415.363 -379.283)"/></g><path id="패스_1051" data-name="패스 1051" class="cls-8" d="M1545.845 495.825s19.225 47.727 17 56.409c-2.265 8.683-26.093 1.611-26.093 1.611l7.845-56.478" transform="translate(-1385.565 -443.444)"/><g id="그룹_364" data-name="그룹 364" transform="translate(10.357 113.061)"><path id="사각형_185" data-name="사각형 185" class="cls-9" transform="translate(53.005 15.966)" d="M0 0h3.786v136.453H0z"/><path id="패스_1052" data-name="패스 1052" class="cls-9" d="M1364.806 803.787h-3.775c0-.8-1.98-2.707-9.483-4.235a142.658 142.658 0 00-47.585 0c-7.476 1.528-9.455 3.434-9.455 4.235h-3.775c0-9.291 28.359-10.018 37.041-10.018s37.032.731 37.032 10.018z" transform="translate(-1274.392 -703.676)"/><g id="그룹_362" data-name="그룹 362" transform="translate(48.36 10.601)"><path id="사각형_186" data-name="사각형 186" class="cls-9" transform="rotate(-10.199 15.027 -125.995)" d="M0 0h3.786v154.762H0z"/><path id="사각형_187" data-name="사각형 187" class="cls-9" transform="translate(44.827 151.507)" d="M0 0h13.075v7.513H0z"/><path id="사각형_188" data-name="사각형 188" class="cls-9" transform="translate(0 139.393)" d="M0 0h13.075v7.933H0z"/></g><g id="그룹_363" data-name="그룹 363" transform="translate(0 10.6)"><path id="사각형_189" data-name="사각형 189" class="cls-9" transform="rotate(-79.805 93.193 73.63)" d="M0 0h154.762v3.786H0z"/><path id="사각형_190" data-name="사각형 190" class="cls-9" transform="rotate(180 6.537 79.51)" d="M0 0h13.074v8.743H0z"/></g><path id="패스_1053" data-name="패스 1053" class="cls-9" d="M1327.774 819.81a127.788 127.788 0 01-24.566-2.08c-8.406-1.722-12.475-4.346-12.475-7.946h3.775c0 .783 1.98 2.7 9.455 4.235a142.012 142.012 0 0047.585 0c7.5-1.538 9.483-3.453 9.483-4.235h3.775c0 9.298-28.359 10.026-37.032 10.026z" transform="translate(-1274.392 -711.58)"/><path id="패스_1054" data-name="패스 1054" class="cls-10" d="M1368.956 623.014V623c0-4.019-21.747-7.274-48.541-7.274-26.813 0-48.551 3.255-48.551 7.274v3.451c0 4.019 21.738 7.292 48.551 7.292 26.794 0 48.541-3.273 48.541-7.292v-.032.081-3.482z" transform="translate(-1265.07 -615.731)"/><path id="패스_1055" data-name="패스 1055" class="cls-11" d="M1320.414 615.731c26.794 0 48.541 3.255 48.541 7.274s-21.747 7.274-48.541 7.274c-26.813 0-48.551-3.26-48.551-7.274s21.738-7.274 48.551-7.274" transform="translate(-1265.07 -615.731)"/></g><g id="그룹_365" data-name="그룹 365" transform="translate(24.467 83.565)"><path id="패스_1056" data-name="패스 1056" class="cls-12" d="M1354.033 593.21h-54.37l-12.053-35.761h54.37z" transform="translate(-1286.966 -557.449)"/><path id="패스_1057" data-name="패스 1057" class="cls-13" d="M1353.116 590.073h-47.234l-9.576-27.839h47.188z" transform="translate(-1291.271 -559.804)"/><path id="패스_1058" data-name="패스 1058" d="M1343.494 562.234h-47.188l.138.433h46.7l9.465 27.4h.507z" transform="translate(-1291.271 -559.804)" style="mix-blend-mode:multiply;isolation:isolate" fill="#14255e" opacity=".15"/><path id="패스_1059" data-name="패스 1059" class="cls-2" d="M1364.3 623.719h-54.37l-1.51-4.507h54.361z" transform="translate(-1297.235 -587.953)"/><path id="패스_1060" data-name="패스 1060" d="M1366.335 591.837h-67.417l-11.952-34.389a9.759 9.759 0 00-.092 6.647l10.175 29.515a1.951 1.951 0 001.869 1.331h67.417a1.548 1.548 0 001.565-1.547 1.556 1.556 0 00-1.565-1.557z" transform="translate(-1286.336 -557.448)" fill="#f1f2f2"/><path id="패스_1061" data-name="패스 1061" class="cls-2" d="M1298.918 591.837h4.779v3.1h-4.779a1.951 1.951 0 01-1.869-1.331l-10.174-29.506a9.759 9.759 0 01.092-6.647z" transform="translate(-1286.336 -557.448)"/><path id="패스_1062" data-name="패스 1062" class="cls-12" d="M1310.79 627.733a.617.617 0 01-.589.626.6.6 0 01-.608-.626.587.587 0 01.608-.617.606.606 0 01.589.617z" transform="translate(-1297.83 -591.855)"/><path id="패스_1063" data-name="패스 1063" class="cls-12" d="M1360.721 620.122h-26.867a1.237 1.237 0 01-1.169-.773l-.562-1.289h28.736l.451 1.119a.647.647 0 01-.589.943z" transform="translate(-1308.96 -587.383)"/><path id="패스_1064" data-name="패스 1064" d="M1327.556 625.409c-1.455 0-1.455 3.094 0 3.094h-16.371c1.786 0 1.786-3.094 0-3.094z" transform="translate(-1298.616 -591.014)" fill="#cbd2d9"/><rect id="사각형_191" data-name="사각형 191" width="6.006" height="1.183" rx=".591" transform="translate(18.341 35.481)" fill="gray"/></g><g id="그룹_366" data-name="그룹 366" transform="translate(0 258.389)"><path id="패스_1065" data-name="패스 1065" class="cls-6" d="M1285.773 904.564l-7.293-1.667-18.949 11.481 3.131 2.412 19.52 2.873 3.066-3.978z" transform="translate(-1248.641 -902.897)"/><path id="패스_1066" data-name="패스 1066" class="cls-7" d="M1235.276 924.219s5.527 7.236 12.257 7.19c6.768-.046 14.3 0 14.3 0l-7.8 10.174 3.287 2.514s9.7-2.219 12.6-9.2a31.4 31.4 0 002.578-12.6l-8.342-2.449s-9.024 7.182-13.185 4.364c-4.134-2.8-3.439-2.693-3.439-2.693s-5.279 1.003-12.256 2.7z" transform="translate(-1235.276 -911.274)"/></g><g id="그룹_368" data-name="그룹 368" transform="translate(71.188 153.512)"><g id="그룹_367" data-name="그룹 367" transform="translate(22.822 104.942)"><path id="패스_1067" data-name="패스 1067" class="cls-6" d="M1459.336 903.023l-6.832 3.1-8.065 20.643h3.94l17.31-9.585v-5.009z" transform="translate(-1433.966 -903.023)"/><path id="패스_1068" data-name="패스 1068" class="cls-7" d="M1423.754 943.1s9.116 2.947 14.419-1.188c5.341-4.134 13.738-10.626 13.738-10.626v12.835h4.142s6.335-7.642 4.42-14.962a31.184 31.184 0 00-5.616-11.565l-8.1 3.1s-2.8 11.187-7.79 11.491c-5.027.286-5.322-.589-5.322-.589s-1.936 8.987-9.891 11.504z" transform="translate(-1423.754 -910.22)"/></g><path id="패스_1069" data-name="패스 1069" class="cls-18" d="M1464.745 703.167s-19.4 10.971-35.678 10.313c-16.233-.668-24.815-2.311-24.815-2.311s12.541 5.92 16.141 15.823c3.628 9.884 8.673 74.862 8.673 74.862l-11.307 3.356s-36.572-87.434-38.9-98.313c-2.293-10.888 15.192-10.888 19.8-11.224s66.086 7.494 66.086 7.494z" transform="translate(-1378.653 -695.662)"/></g><g id="그룹_372" data-name="그룹 372" transform="translate(86.251 162.314)"><path id="사각형_192" data-name="사각형 192" class="cls-9" transform="translate(53.005 11.579)" d="M0 0h3.786v105.2H0z"/><path id="패스_1070" data-name="패스 1070" class="cls-9" d="M1511.007 856.319c0-.018-1.031-1.777-10.589-3.149a189.37 189.37 0 00-45.356 0c-9.576 1.372-10.57 3.131-10.625 3.149.055-.018.055-.046.055-.147h-3.792c0-3.149 3.867-5.175 12.559-6.556a187.591 187.591 0 0148.928 0c8.71 1.381 12.578 3.407 12.578 6.556h-3.775a.6.6 0 00.017.147z" transform="translate(-1424.358 -779.714)"/><g id="그룹_369" data-name="그룹 369" transform="translate(48.36 7.271)"><path id="사각형_193" data-name="사각형 193" class="cls-10" transform="rotate(-13.1 14.978 -97.694)" d="M0 0h3.786v120.584H0z"/><path id="사각형_194" data-name="사각형 194" class="cls-9" transform="translate(44.827 114.277)" d="M0 0h13.074v8.491H0z"/><path id="사각형_195" data-name="사각형 195" class="cls-9" transform="translate(0 105.262)" d="M0 0h13.074v8.491H0z"/></g><g id="그룹_370" data-name="그룹 370" transform="translate(0 7.27)"><path id="사각형_196" data-name="사각형 196" class="cls-10" transform="rotate(-76.871 76.113 56.037)" d="M0 0h120.584v3.786H0z"/><path id="사각형_197" data-name="사각형 197" class="cls-9" transform="rotate(180 6.537 61.385)" d="M0 0h13.075v8.491H0z"/></g><path id="패스_1071" data-name="패스 1071" class="cls-10" d="M1477.75 869.235a167.783 167.783 0 01-24.492-1.584c-8.692-1.372-12.559-3.416-12.559-6.574h3.793c0-.064 0-.129-.055-.147.055.018 1.05 1.786 10.625 3.158a188.116 188.116 0 0045.356 0c9.557-1.372 10.589-3.14 10.589-3.158a1.227 1.227 0 00-.018.147h3.775c0 3.158-3.867 5.2-12.578 6.574a166.423 166.423 0 01-24.436 1.584z" transform="translate(-1424.358 -786.09)"/><g id="그룹_371" data-name="그룹 371" transform="translate(7.106)"><path id="패스_1072" data-name="패스 1072" class="cls-11" d="M1518.053 719.777c0-1.915-4.935-6.251-15.487-6.2-6.445.046-33.792-1.565-75.354.635 0 0-4.751.709-4.751 5.561 0 4.834 8.231 5.8 10.9 6.353 2.707.525 66.589 3.766 76.7 0 8.339-3.126 7.992-6.349 7.992-6.349z" transform="translate(-1422.461 -713.055)"/><path id="패스_1073" data-name="패스 1073" class="cls-10" d="M1422.461 732.685c0 8.462 95.592 8.462 95.592 0v-6.344c0 8.453-95.592 8.453-95.592 0z" transform="translate(-1422.461 -719.614)"/></g></g><path id="패스_1074" data-name="패스 1074" class="cls-19" d="M1425.24 659.737s8.673 30.127-28.322 32.433c-27.715 1.722-56.6-6.27-56.6-6.27s3.3 22.88-5.276 42.93c-8.591 20.04-32.641 58.048-32.641 58.048l-17.116-3.352s30.974-112.787 31.94-119.043c.995-6.266 65.7-5.93 65.7-5.93z" transform="translate(-1261.345 -523.818)"/><path id="패스_1076" data-name="패스 1076" class="cls-8" d="M1422.461 492.6s.718-20.224 44.969-33.58c20.584-3.561 28.127 31.953 27.917 45.273 3.536 20.79-1.878 39.642-1.878 39.642l2.873 11.634c1.16 11.689-50.033 16.965-51.249 5.276 0 0 6.8-31.885 0-53.91-7.624-24.574-22.632-14.335-22.632-14.335z" transform="translate(-1329.111 -424.926)"/><path id="패스_1077" data-name="패스 1077" class="cls-6" d="M1416.189 514.877c-3.6-11.854-21.526-8.084-19.777 4.176a5.137 5.137 0 00.092.635c2.486 13.742 9.88 41.936 9.88 41.936l-14.806-7.711s-3.2-10.294-6.4-8.885a6.409 6.409 0 00-3.665 4.369s-3.425-3.771-5.083-1.188a6.3 6.3 0 00-1.013 4.714s-1.768-2.707-3.435-1.289-1.169 6.722-2.007 9.069c-.8 2.361-.709 3.425 1.547 2 2.228-1.4 2.7-5.294 2.7-5.294s-.47 3.89 6.353 4.47l6.86.593s24.75 19.806 33.008 17.679c6.805-1.751 4.972-34.651-4.254-65.274z" transform="translate(-1302.956 -449.297)"/><path id="패스_1079" data-name="패스 1079" class="cls-8" d="M1417.307 519.053c.018.2.092.428.129.635 2.449 13.742 9.834 41.936 9.834 41.936l-11.16-5.842c-1.823 1.363-4.143 4.139-4.235 9.405 7.108 5.34 23.111 16.6 29.464 14.967 6.831-1.754 5.008-34.652-4.235-65.276-3.591-11.855-21.527-8.085-19.797 4.175z" transform="translate(-1323.882 -449.297)"/></g></g><g id="그룹_381" data-name="그룹 381" transform="translate(85.36 110.973)"><g id="그룹_380" data-name="그룹 380"><path id="패스_1080" data-name="패스 1080" class="cls-20" d="M1202.514 579.111h-53.468a4.185 4.185 0 01-3.646-2.707l-12.071-35.283a1.876 1.876 0 011.8-2.7h53.449a4.152 4.152 0 013.646 2.7l12.053 35.283a1.852 1.852 0 01-1.763 2.707z" transform="translate(-1133.181 -538.418)"/><path id="패스_1081" data-name="패스 1081" class="cls-2" d="M1188.583 538.418h-53.449a1.876 1.876 0 00-1.8 2.7l1.114 3.287h58.909l-1.123-3.287a4.152 4.152 0 00-3.651-2.7z" transform="translate(-1133.181 -538.418)"/><g id="그룹_378" data-name="그룹 378" transform="translate(13.428 13.607)"><g id="그룹_375" data-name="그룹 375" transform="translate(17.899)"><path id="패스_1083" data-name="패스 1083" class="cls-21" d="M1195.093 565.595l1.713 5.046c.1.207.35.341.516.239l4.539-2.859c.157-.1.028-.41-.221-.493l-6.252-2.205c-.203-.074-.369.06-.295.272z" transform="translate(-1195.075 -565.303)"/></g><g id="그룹_376" data-name="그룹 376" transform="translate(0 1.209)"><path id="패스_1085" data-name="패스 1085" class="cls-21" d="M1159.694 567.852l.995 2.9a.239.239 0 00.285.147l2.587-1.644c.11-.055.028-.244-.11-.29l-3.591-1.257a.12.12 0 00-.166.144z" transform="translate(-1159.689 -567.696)"/></g><g id="그룹_377" data-name="그룹 377" transform="translate(37.822 1.209)"><path id="패스_1087" data-name="패스 1087" class="cls-21" d="M1234.445 567.852l.967 2.9a.216.216 0 00.295.147l2.606-1.644c.064-.055 0-.244-.166-.29l-3.563-1.257c-.13-.04-.194.038-.139.144z" transform="translate(-1234.425 -567.696)"/></g><path id="사각형_198" data-name="사각형 198" class="cls-22" transform="translate(.552 16.98)" d="M0 0h49.244v.189H0z"/><path id="패스_1088" data-name="패스 1088" class="cls-21" d="M1211.194 597.967c.156.511-.092.912-.608.912a1.406 1.406 0 01-1.242-.912.634.634 0 01.6-.921 1.464 1.464 0 011.25.921z" transform="translate(-1184.193 -580.987)"/><path id="패스_1089" data-name="패스 1089" class="cls-3" d="M1211.187 598.472c.064.221-.046.4-.258.4a.6.6 0 01-.525-.4c-.064-.23.028-.391.258-.391a.594.594 0 01.525.391z" transform="translate(-1184.751 -581.498)"/></g><path id="패스_1090" data-name="패스 1090" class="cls-3" d="M1170.426 608.094a3.337 3.337 0 01-2.928-2.191 1.5 1.5 0 011.418-2.187 3.371 3.371 0 012.928 2.187 1.506 1.506 0 01-1.418 2.191z" transform="translate(-1150.055 -570.67)"/><g id="그룹_379" data-name="그룹 379" transform="translate(23.41 34.249)"><path id="사각형_199" data-name="사각형 199" class="cls-22" d="M0 0h6.138v.145H0z"/><path id="사각형_200" data-name="사각형 200" class="cls-22" transform="translate(.619 1.81)" d="M0 0h4.828v.145H0z"/><path id="사각형_201" data-name="사각형 201" class="cls-22" transform="translate(.309 .905)" d="M0 0h10.301v.145H0z"/></g><path id="패스_1091" data-name="패스 1091" class="cls-3" d="M1146.105 543.8a.55.55 0 01-.534.778 1.3 1.3 0 01-1.077-.778c-.129-.442.083-.806.543-.806a1.224 1.224 0 011.068.806z" transform="translate(-1138.75 -540.677)"/><path id="패스_1092" data-name="패스 1092" d="M1151.851 543.8a.552.552 0 01-.525.778 1.185 1.185 0 01-1.059-.778.543.543 0 01.506-.806 1.27 1.27 0 011.078.806z" transform="translate(-1141.593 -540.677)" fill="#8585e9"/><path id="패스_1093" data-name="패스 1093" d="M1157.6 543.8a.532.532 0 01-.525.778 1.229 1.229 0 01-1.068-.778.561.561 0 01.534-.806 1.223 1.223 0 011.059.806z" transform="translate(-1144.423 -540.677)" fill="#4848de"/></g></g><g id="그룹_385" data-name="그룹 385" transform="translate(84.125 24.418)"><g id="그룹_384" data-name="그룹 384"><path id="패스_1094" data-name="패스 1094" class="cls-20" d="M1221.634 421.114h-69.884a5.724 5.724 0 01-4.98-3.72l-15.837-46.286c-.681-2.049.387-3.715 2.449-3.715h69.885a5.707 5.707 0 014.971 3.715l15.855 46.286c.69 2.063-.415 3.72-2.459 3.72z" transform="translate(-1130.727 -367.393)"/><path id="패스_1095" data-name="패스 1095" class="cls-2" d="M1203.266 367.393h-69.885c-2.062 0-3.13 1.667-2.449 3.715l1.354 4h77.324l-1.372-4a5.707 5.707 0 00-4.972-3.715z" transform="translate(-1130.727 -367.393)"/><g id="그룹_382" data-name="그룹 382" transform="translate(5.053 3.088)"><path id="패스_1097" data-name="패스 1097" class="cls-3" d="M1143.826 374.047h-2.926l-.184-.552h2.956z" transform="translate(-1140.714 -373.494)"/><path id="패스_1098" data-name="패스 1098" class="cls-3" d="M1144.545 376.121h-2.937l-.184-.552h2.947z" transform="translate(-1141.061 -374.521)"/><path id="패스_1099" data-name="패스 1099" class="cls-3" d="M1145.272 378.194h-2.937l-.2-.552h2.956z" transform="translate(-1141.407 -375.541)"/></g><g id="그룹_383" data-name="그룹 383" transform="translate(8.406 10.755)"><ellipse id="타원_46" data-name="타원 46" class="cls-12" cx="3.962" cy="5.569" rx="3.962" ry="5.569" transform="rotate(-49.854 6.516 3.029)"/><path id="패스_1100" data-name="패스 1100" class="cls-25" d="M1165.584 416.171h-8.664a.64.64 0 01-.5-.382c-.046-.2.027-.382.275-.382h8.6a.648.648 0 01.552.382.279.279 0 01-.263.382z" transform="translate(-1151.818 -401.862)"/><path id="패스_1101" data-name="패스 1101" class="cls-25" d="M1167.053 420.476h-8.609a.6.6 0 01-.534-.373.263.263 0 01.249-.382h8.627a.59.59 0 01.525.382c.064.207-.019.373-.258.373z" transform="translate(-1152.543 -403.994)"/><path id="패스_1102" data-name="패스 1102" class="cls-25" d="M1168.513 424.79h-8.618a.567.567 0 01-.506-.373.26.26 0 01.249-.382h8.637a.6.6 0 01.506.382c.054.207-.038.373-.268.373z" transform="translate(-1153.282 -406.122)"/></g><path id="패스_1103" data-name="패스 1103" class="cls-26" d="M1190.934 428.957h-.479l-14.382-42.018h.5z" transform="translate(-1153.125 -377.05)"/><path id="패스_1104" data-name="패스 1104" class="cls-12" d="M1238.1 402.536h-48.072l-2.974-8.66h48.063z" transform="translate(-1158.549 -380.472)"/><path id="패스_1105" data-name="패스 1105" class="cls-2" d="M1191.036 390.038h-5.312l-.322-1h5.312z" transform="translate(-1157.727 -378.081)"/><path id="패스_1106" data-name="패스 1106" class="cls-2" d="M1226.8 458.863h-5.607a.773.773 0 01-.7-.52.357.357 0 01.35-.52h5.607a.8.8 0 01.7.52.362.362 0 01-.35.52z" transform="translate(-1175.035 -412.061)"/><path id="패스_1107" data-name="패스 1107" class="cls-2" d="M1225.8 462.19h-3.674a.566.566 0 01-.488-.373c-.064-.207.028-.373.258-.373h3.637a.579.579 0 01.516.373.261.261 0 01-.249.373z" transform="translate(-1175.617 -413.849)"/><path id="패스_1108" data-name="패스 1108" class="cls-12" d="M1248.09 435.026h-44.969a2.388 2.388 0 01-2.081-1.551l-5.4-15.772a1.074 1.074 0 011.013-1.547h44.978a2.4 2.4 0 012.072 1.547l5.386 15.772a1.051 1.051 0 01-.999 1.551z" transform="translate(-1162.736 -391.482)"/><path id="패스_1109" data-name="패스 1109" class="cls-2" d="M1212.389 460.387a3.133 3.133 0 01-2.726-2 1.415 1.415 0 011.344-2.012 3.083 3.083 0 012.689 2.012 1.376 1.376 0 01-1.307 2z" transform="translate(-1169.661 -411.346)"/></g></g><g id="그룹_389" data-name="그룹 389" transform="translate(179.481 44.06)"><g id="그룹_388" data-name="그룹 388"><path id="패스_1110" data-name="패스 1110" class="cls-13" d="M1367.543 442.228h-36.019l-12.366-36.028h36.047z" transform="translate(-1319.158 -406.204)"/><g id="그룹_387" data-name="그룹 387"><path id="패스_1111" data-name="패스 1111" class="cls-3" d="M1357.3 412.534h-35.96l-2.182-6.33h35.983z" transform="translate(-1319.158 -406.204)"/><g id="그룹_386" data-name="그룹 386" transform="translate(31.308 1.301)"><path id="패스_1112" data-name="패스 1112" class="cls-27" d="M1386.049 412.522h-3.738l-1.289-3.747h3.793zm-3.683-.106h3.545l-1.2-3.545h-3.573z" transform="translate(-1381.021 -408.775)"/><path id="사각형_202" data-name="사각형 202" class="cls-27" transform="rotate(-56.7 4.04 .65)" d="M0 0h4.366v.098H0z"/><path id="패스_1113" data-name="패스 1113" class="cls-27" d="M1386 412.519l-4.9-3.655.064-.069 4.889 3.642z" transform="translate(-1381.06 -408.784)"/></g><path id="패스_1114" data-name="패스 1114" class="cls-28" d="M1327.284 411.432a.715.715 0 01-.691 1.05 1.614 1.614 0 01-1.381-1.05.7.7 0 01.682-1.045 1.569 1.569 0 011.39 1.045z" transform="translate(-1322.116 -408.273)"/><path id="패스_1115" data-name="패스 1115" d="M1332.9 411.432a.747.747 0 01-.709 1.05 1.62 1.62 0 01-1.418-1.05.731.731 0 01.691-1.045 1.684 1.684 0 011.436 1.045z" transform="translate(-1324.875 -408.273)" fill="#bcbec0"/></g></g></g><g id="그룹_391" data-name="그룹 391" transform="translate(0 10.102)"><g id="그룹_665" data-name="그룹 665" transform="translate(16.268)"><path id="패스_1121" data-name="패스 1121" class="cls-6" d="M1037.428 341.81l1.821 4.2a6.211 6.211 0 01.207 4.435c-.662 2-1.391 4.816-.546 5.633.82.828 2.831 2.494 4.23 3.617a1.4 1.4 0 01-.066 2.229l-2.074 1.513s1.962 5.405-2.094 7.351c-4.081 1.945-6.242 3.212-6.242 5.711a54.087 54.087 0 001.308 8.133l-19.469-.929s3.452-6.643 3.452-12.481-6.482-19.459-3.452-24.653 18.165-17.302 22.925-4.759z" transform="translate(-1005.945 -333.341)"/><path id="패스_1128" data-name="패스 1128" class="cls-7" d="M1019.616 362.214a.792.792 0 00.786-.948c-.5-2.752-1.813-10.668-.563-11.92 1.515-1.509-3.907-5.73-3.907-5.73s.786-5.339 6.242-5.339c5.43 0 5.5-1.078 5.5-1.078s3-3.975-3.725-6.837c-6.738-2.868-19.1 5.933-19.1 5.933s-6.431-.689-7.921 6.527 2.773 16.915 6.531 19.786a16.04 16.04 0 015.1 6.939h.687a8.755 8.755 0 008.5-6.691l.058-.248s-8.054-4.252-5.331-7.915c2.756-3.653 5.041-.493 5.041.8a44.057 44.057 0 001.333 6.132.777.777 0 00.762.594z" transform="translate(-996.633 -329.787)"/><path id="패스_1129" data-name="패스 1129" class="cls-30" d="M1065.406 375.741c-1.639 0-2.964-1.8-2.964-4.015s1.324-4.015 2.964-4.015c1.622 0 2.922 1.8 2.922 4.015s-1.3 4.015-2.922 4.015zm0-7.363c-1.266 0-2.293 1.507-2.293 3.348s1.027 3.352 2.293 3.352 2.252-1.506 2.252-3.352-.994-3.347-2.252-3.347z" transform="translate(-1032.498 -350.458)"/><path id="패스_1130" data-name="패스 1130" class="cls-30" d="M1042.335 378.135a.334.334 0 01-.058-.662l9.321-1.668a.342.342 0 01.372.277.327.327 0 01-.281.385l-9.279 1.668z" transform="translate(-1021.368 -354.868)"/></g><path id="패스_1116" data-name="패스 1116" class="cls-7" d="M1084.32 941.2v12.761h12.191s-.267-1.97 3.719-1.307 2.136 2.118 8.646 2.118h10.46a1.91 1.91 0 001.906-1.906 1.94 1.94 0 00-.985-1.685c-3.6-2.007-16.012-9.1-18.949-13.286h-16.988z" transform="translate(-1023.694 -634.87)"/><path id="패스_1117" data-name="패스 1117" class="cls-7" d="M971.975 941.2v12.761h12.2s-.276-1.97 3.72-1.307c3.977.663 2.127 2.118 8.627 2.118h10.451a1.928 1.928 0 001.934-1.906 1.919 1.919 0 00-1-1.685c-3.6-2.007-15.994-9.1-18.939-13.286h-16.993z" transform="translate(-968.188 -634.87)"/><path id="패스_1118" data-name="패스 1118" class="cls-18" d="M968.5 647.466l3.922 87.637-7.922 60.806 24.805-.658s6.271-59.775 6.271-63.545 5.441-63.822 5.441-63.822z" transform="translate(-964.497 -491.411)"/><path id="패스_1119" data-name="패스 1119" class="cls-19" d="M1029.492 622.312s8.094 50.94 13.443 97.212c3.315 28.46 4.023 58.992 5.809 63.472 0 0-20.026.483-22.917.483l-6.685-61.055-19.87-55.636a82.943 82.943 0 01-21.259-9.456c-9.824-6.413-4.705-30.26-4.705-30.26z" transform="translate(-968.188 -478.986)"/><path id="패스_1120" data-name="패스 1120" class="cls-6" d="M1087.131 470.9l.322.93s5.534-1.731 6.234-2.449c.755-.723 2.044-2.173 2.044-2.173l1.446-1.34-2.882-8.047-6.841 9.746-.939 2.072z" transform="translate(-1024.759 -397.737)"/><path id="패스_1122" data-name="패스 1122" class="cls-26" d="M1009.208 430.87l3.516-6.979 19.327 5.962a6.176 6.176 0 014.153 4.351l.783 3z" transform="translate(-986.576 -380.984)"/><g id="그룹_390" data-name="그룹 390" transform="translate(62.365 43.831)"><path id="패스_1123" data-name="패스 1123" class="cls-8" d="M1117.562 469.645l-29.446-24.545c-.654-.543-.451-1.492.414-2.118l23.839-16.749a2.489 2.489 0 012.808-.157l29.436 24.542c.645.543.451 1.492-.433 2.118l-23.838 16.753a2.461 2.461 0 01-2.78.156z" transform="translate(-1087.73 -425.711)"/><path id="패스_1124" data-name="패스 1124" d="M1122.376 469.917l-28.12-23.447 22.5-15.818 28.119 23.438z" transform="translate(-1090.953 -428.148)" fill="#f6fbff" opacity=".98"/><path id="패스_1125" data-name="패스 1125" d="M1168.609 493.974l-.295-.258 5.1-3.577.295.253z" transform="translate(-1127.521 -457.534)" fill="#939598"/></g><path id="패스_1126" data-name="패스 1126" class="cls-6" d="M1083.207 466.192a11.168 11.168 0 004.005-2.076c1.317-1.335 1.906-6.827 1.906-6.827l2.606-3.922a2.048 2.048 0 00.322-1.611l-.221-.948a.95.95 0 00-1.713-.322 79.3 79.3 0 01-5.534 7.546c-1.584 1.588-6.178 3.563-6.178 3.563s2.615 5.476 4.807 4.597z" transform="translate(-1020.755 -393.909)"/><path id="패스_1127" data-name="패스 1127" class="cls-33" d="M967.9 448.782a20.954 20.954 0 0123.1-13.627l24.712 4.015a17.256 17.256 0 0114.824 18.475l-4.687 57.57 1.878 13.968s-30.118 11.624-57.721 5.317l-3.315-51.6c-1.497-9.327-2.657-23.253 1.209-34.118z" transform="translate(-964.882 -386.409)"/><path id="패스_1131" data-name="패스 1131" class="cls-6" d="M1121.323 504.461s1.9-6.054 2.8-6.906a43.54 43.54 0 015.092-3.264l3.121-7.233s2.679.994 2.679 2.279-3.95 8.512.276 10.893l10.773-6.86s-.884 4.4-2.394 5.888c-1.473 1.5-17.292 14.138-17.292 14.138z" transform="translate(-1041.965 -412.178)"/><path id="패스_1132" data-name="패스 1132" class="cls-28" d="M1112.268 520.923l3.922-2.242 7.1 10.34-3.14 3.167z" transform="translate(-1037.475 -427.804)"/><path id="패스_1133" data-name="패스 1133" class="cls-33" d="M1012.465 463.937s-11.4 12.973-13.056 42.216c-1.667 29.261 9.65 28.272 16.97 28.272 7.3 0 48.523-31.259 48.523-31.259l-9.3-13.3-26.609 14.634s11.3-21.615 11.3-34.906-23.251-14.478-27.828-5.657z" transform="translate(-981.66 -397.96)"/><path id="패스_1134" data-name="패스 1134" class="cls-34" d="M1011.178 540.831a10.1 10.1 0 01-6.989-2.481c-4.521-4.028-6.344-12.867-5.534-27.042 1.657-29.045 13.029-42.313 13.139-42.446a.387.387 0 01.534-.028.359.359 0 01.018.525c-.1.124-11.307 13.226-12.946 41.99-.764 13.742 1 22.637 5.276 26.448 3.075 2.721 6.924 2.472 9.926 1.952 2.956-.52 6.1-2.2 8.379-3.421.617-.331 1.17-.626 1.611-.842a.365.365 0 01.488.175.355.355 0 01-.166.5c-.442.212-.967.493-1.584.829-2.339 1.252-5.525 2.96-8.582 3.494a20.518 20.518 0 01-3.57.347z" transform="translate(-981.275 -403.133)"/><path id="패스_1135" data-name="패스 1135" class="cls-34" d="M1056.253 521.533l.562-1.1c.083-.161 8.516-16.44 10.745-29.234a.352.352 0 01.433-.3.364.364 0 01.295.428c-1.887 10.994-8.333 24.5-10.266 28.368l12.918-7.1a.365.365 0 01.5.147.383.383 0 01-.147.506z" transform="translate(-1009.82 -414.073)"/><path id="패스_1136" data-name="패스 1136" class="cls-33" d="M1052.314 589.232s9.641-5 16.7-5.557l.46-5.667z" transform="translate(-1007.883 -457.101)"/></g><g id="그룹_394" data-name="그룹 394" transform="translate(123.104)"><g id="그룹_393" data-name="그룹 393"><path id="패스_1137" data-name="패스 1137" class="cls-12" d="M1230.514 333.247l-16.15.111-4.411-12.046 16.2-.11z" transform="translate(-1208.825 -320.158)"/><path id="패스_1138" data-name="패스 1138" d="M1224.092 319.142l-15.588.117a.685.685 0 00-.709.967l5.129 14.085a1.569 1.569 0 001.436.944l15.532-.1a.724.724 0 00.755-.967l-5.156-14.09a1.555 1.555 0 00-1.399-.956zm1.464 6.224l-4.363 4.53-4.7-2.675-3.223 2.995-3.361-9.3 13.995-.1z" transform="translate(-1207.739 -319.142)" fill="#2579f2"/><path id="패스_1139" data-name="패스 1139" class="cls-7" d="M1229.673 330.129a1.741 1.741 0 001.8-2.452 3.992 3.992 0 00-3.563-2.417 1.746 1.746 0 00-1.814 2.452 4.034 4.034 0 003.577 2.417z" transform="translate(-1216.724 -322.163)"/><g id="그룹_392" data-name="그룹 392" transform="translate(6.58 6.22)"><path id="패스_1140" data-name="패스 1140" class="cls-7" d="M1240.519 331.432l-2.541 2.608 3.48-.023z" transform="translate(-1229.25 -331.432)"/><path id="패스_1141" data-name="패스 1141" class="cls-7" d="M1222.923 335.1l-2.182 2.023 5.662-.039z" transform="translate(-1220.741 -333.246)"/></g><path id="패스_1142" data-name="패스 1142" class="cls-12" d="M1231.544 328.594a.966.966 0 01-1 1.358 2.189 2.189 0 01-1.961-1.34.953.953 0 01.995-1.353 2.269 2.269 0 011.966 1.335z" transform="translate(-1217.992 -323.15)"/></g></g><g id="그룹_396" data-name="그룹 396" transform="translate(128.946 82.265)"><g id="그룹_395" data-name="그룹 395"><path id="패스_1143" data-name="패스 1143" d="M1246.487 504.592l-15.173.1a7.527 7.527 0 01-6.74-4.548l-5.027-13.719c-.912-2.527.617-4.6 3.416-4.618l15.164-.12a7.56 7.56 0 016.749 4.553l4.991 13.729c.938 2.531-.608 4.6-3.38 4.623z" transform="translate(-1219.283 -481.688)" fill="#ffac06"/><path id="패스_1144" data-name="패스 1144" class="cls-12" d="M1242.24 489.287l-4.871.028-2.256.018-4.972.032-1.759.014h-.525l1.547 4.277 2.284-.023-.792-2.145 4.981-.018 3.968 10.9-2.357.014.773 2.187 2.422-.028 2.256-.009 2.32-.009-.764-2.187-2.394.023-3.968-10.91 4.871-.037.783 2.141 2.256-.009-.755-2.141-.792-2.145z" transform="translate(-1223.521 -485.426)"/></g></g><g id="그룹_397" data-name="그룹 397" transform="translate(167.235 12.81)"><path id="패스_1145" data-name="패스 1145" class="cls-33" d="M1318.3 344.46l-22.264.154a.98.98 0 00-1 1.388l7.329 20.114a2.229 2.229 0 002.017 1.363l22.235-.154a.992.992 0 001.031-1.386l-7.319-20.118a2.285 2.285 0 00-2.029-1.361z" transform="translate(-1294.948 -344.46)"/><path id="사각형_203" data-name="사각형 203" class="cls-37" transform="rotate(-.392 900.518 -1026.06)" d="M0 0h14.694v1.012H0z"/><path id="사각형_204" data-name="사각형 204" class="cls-37" transform="rotate(-.392 1602.677 -1279.005)" d="M0 0h14.694v1.012H0z"/><path id="사각형_205" data-name="사각형 205" class="cls-37" transform="rotate(-.392 2304.69 -1531.952)" d="M0 0h14.694v1.012H0z"/><path id="패스_1146" data-name="패스 1146" class="cls-12" d="M1316.089 356.075a1.007 1.007 0 01-1.059 1.432 2.393 2.393 0 01-2.109-1.4 1.037 1.037 0 011.059-1.441 2.353 2.353 0 012.109 1.409z" transform="translate(-1303.778 -349.499)"/><path id="패스_1147" data-name="패스 1147" class="cls-12" d="M1331.555 365.539c.295.783-.166 1.427-1.087 1.436a2.358 2.358 0 01-2.072-1.427 1.026 1.026 0 011.059-1.432 2.351 2.351 0 012.1 1.423z" transform="translate(-1311.436 -354.17)"/><path id="패스_1148" data-name="패스 1148" class="cls-12" d="M1330.627 375.05a1.009 1.009 0 01-1.031 1.427 2.274 2.274 0 01-2.09-1.409 1.01 1.01 0 011-1.441 2.343 2.343 0 012.121 1.423z" transform="translate(-1310.979 -358.867)"/></g><g id="그룹_399" data-name="그룹 399" transform="translate(248.795 97.975)"><path id="패스_1150" data-name="패스 1150" class="cls-38" d="M1463.281 583.018l-.129-.741.055.368-.055-.368c.11-.028 7.863-1.975 1.418-39.49-.019-.253-4.328-24.957-8.452-29.547l.589-.5c4.253 4.751 8.433 28.893 8.617 29.915 4.659 27.217 1.9 36.051-.184 38.91-.92 1.292-1.749 1.453-1.859 1.453z" transform="translate(-1456.118 -512.738)"/></g><g id="그룹_400" data-name="그룹 400" transform="translate(302.761 107.619)"><path id="패스_1151" data-name="패스 1151" class="cls-38" d="M1565.083 570.806l-.773-.143c.074-.221 4.033-22.135-1.547-38.644l.718-.23c5.672 16.68 1.639 38.791 1.602 39.017z" transform="translate(-1562.763 -531.789)"/></g></svg>