<svg id="img_7" xmlns="http://www.w3.org/2000/svg" width="757.58" height="600"><defs><clipPath id="clip-path"><circle id="타원_141" data-name="타원 141" class="cls-1" cx="26.751" cy="26.751" r="26.751" transform="rotate(-22.298 51.502 10.15)"/></clipPath><clipPath id="clip-path-2"><path id="패스_2169" data-name="패스 2169" class="cls-1" d="M548.1 150.16c-21.527-28.933-48.37-41.858-48.37-41.858-5.979 2.513-29.184 13.886-48.955 41.858z" transform="translate(-450.777 -108.302)"/></clipPath><clipPath id="clip-path-3"><path id="패스_2178" data-name="패스 2178" class="cls-1" d="M491.881 224.888A10.587 10.587 0 11481.3 214.3a10.584 10.584 0 0110.581 10.588z" transform="translate(-470.707 -214.301)"/></clipPath><linearGradient id="linear-gradient" x1=".5" y1="1" x2=".5" gradientUnits="objectBoundingBox"><stop offset=".005" stop-color="#fff"/><stop offset=".311" stop-color="#f4faff"/><stop offset="1" stop-color="#e1f1ff"/></linearGradient><linearGradient id="linear-gradient-2" x1=".5" y1="-.378" x2=".5" y2=".392" gradientUnits="objectBoundingBox"><stop offset="0" stop-color="#fff" stop-opacity="0"/><stop offset="1" stop-color="#fff"/></linearGradient><style>.cls-1,.cls-10,.cls-18{fill:none}.cls-2{fill:#ebf5fe}.cls-8{fill:#fff}.cls-5{fill:#d7edff}.cls-6{fill:#4a63fe}.cls-7{fill:#fec230}.cls-9{fill:#202263}.cls-10{stroke:#fff}.cls-10,.cls-18{stroke-miterlimit:10}.cls-13{opacity:.44}.cls-16{fill:#103bb2}.cls-18{stroke:#a1c7ff}</style></defs><g id="그룹_738" data-name="그룹 738" transform="translate(31.496)"><path id="패스_2155" data-name="패스 2155" class="cls-2" d="M601.248 206.173a39.885 39.885 0 000-18.686l-8.453 1.235a31.978 31.978 0 00-3.241-7.79l6.874-5.114A40.366 40.366 0 00583.21 162.6l-5.124 6.871a31.532 31.532 0 00-7.785-3.235l1.226-8.467a40.141 40.141 0 00-18.678 0l1.237 8.467a31.61 31.61 0 00-7.8 3.235l-5.118-6.871a40.385 40.385 0 00-13.206 13.217l6.863 5.114a31.952 31.952 0 00-3.23 7.79l-8.475-1.235a40.474 40.474 0 000 18.686l8.475-1.238a31.927 31.927 0 003.23 7.793l-6.863 5.115a40.385 40.385 0 0013.206 13.217l5.118-6.871a31.5 31.5 0 007.8 3.234l-1.237 8.465a39.946 39.946 0 0018.678 0l-1.226-8.465a31.424 31.424 0 007.785-3.234l5.124 6.871a40.366 40.366 0 0013.217-13.217l-6.874-5.115a31.953 31.953 0 003.241-7.793zM562.2 216.185a19.354 19.354 0 1119.346-19.356 19.351 19.351 0 01-19.346 19.356z" transform="translate(-39.797 -50.879)"/><path id="패스_2156" data-name="패스 2156" class="cls-2" d="M487.923 215.782a60.294 60.294 0 000-28l-12.682 1.855a47.079 47.079 0 00-4.85-11.678l10.294-7.666a60.593 60.593 0 00-19.8-19.8l-7.663 10.3a47.112 47.112 0 00-11.68-4.848l1.858-12.683a60.07 60.07 0 00-27.995 0l1.847 12.683a47.123 47.123 0 00-11.669 4.848l-7.666-10.3a60.549 60.549 0 00-19.807 19.8l10.3 7.666a47.394 47.394 0 00-4.85 11.678l-12.682-1.855a60.2 60.2 0 000 28l12.682-1.858a47.375 47.375 0 004.84 11.676l-10.3 7.663a60.457 60.457 0 0019.807 19.8l7.666-10.289a47.221 47.221 0 0011.669 4.845L415.4 260.3a59.973 59.973 0 0027.995 0l-1.858-12.683a47.21 47.21 0 0011.68-4.845l7.663 10.289a60.5 60.5 0 0019.8-19.8l-10.289-7.661a47.06 47.06 0 004.85-11.676zM429.4 230.776a29 29 0 1128.994-29 29 29 0 01-28.994 29z" transform="translate(-178.351 -61.148)"/><path id="패스_2157" data-name="패스 2157" class="cls-2" d="M492.148 154.587a37.541 37.541 0 000-17.579l-7.967 1.165a29.565 29.565 0 00-3.037-7.329l6.46-4.814a37.993 37.993 0 00-12.428-12.43l-4.814 6.464a29.947 29.947 0 00-7.326-3.044l1.165-7.963a37.758 37.758 0 00-17.585 0l1.165 7.963a29.594 29.594 0 00-7.326 3.044l-4.815-6.464a37.993 37.993 0 00-12.428 12.432l6.46 4.814a29.369 29.369 0 00-3.042 7.329l-7.967-1.165a37.734 37.734 0 000 17.579l7.967-1.165a29.411 29.411 0 003.042 7.329l-6.46 4.814a37.967 37.967 0 0012.428 12.428l4.814-6.46a29.433 29.433 0 007.326 3.042l-1.165 7.964a37.758 37.758 0 0017.585 0l-1.165-7.964a29.783 29.783 0 007.326-3.042l4.814 6.46a37.967 37.967 0 0012.425-12.429l-6.46-4.814a29.608 29.608 0 003.037-7.329zM455.405 164a18.206 18.206 0 1118.209-18.2 18.208 18.208 0 01-18.209 18.2z" transform="translate(-134.46 -91.6)"/><g id="그룹_733" data-name="그룹 733"><g id="그룹_713" data-name="그룹 713" transform="translate(0 273.013)"><path id="패스_2158" data-name="패스 2158" d="M943.057 527.405c-.135 0-.26.017-.4.022a23.943 23.943 0 00-33.844-30.67 38.23 38.23 0 00-48.85-41.888 53.809 53.809 0 00-91.595-27.227c.033-.563.088-1.115.088-1.692a34.311 34.311 0 00-54.686-27.661C693.5 340.5 690.2 274.211 690.2 251.522h-52.014c0 23.757-6.255 95.3-30.065 154.839a34.3 34.3 0 00-58.6 22.984 54.222 54.222 0 00-86.662 54.9 28.214 28.214 0 00-48.105 18.606 57.355 57.355 0 00-96.826 40.674 28.213 28.213 0 00-48.809 12.5H974.29a31.363 31.363 0 00-31.233-28.62z" transform="translate(-269.115 -251.458)" stroke="#bdddff" stroke-linecap="round" stroke-linejoin="round" fill="#fff"/><path id="패스_2159" data-name="패스 2159" d="M865.9 496.643a44.758 44.758 0 00-12.337 1.736 48.116 48.116 0 00.351-5.643 46.4 46.4 0 00-76.412-35.4 30.774 30.774 0 00-49.2-11.285A31.949 31.949 0 00673 424.585c-21.066-89.6-20.215-173.1-20.215-173.1h-30.708s3.357 87.763-21.8 181.376a30.8 30.8 0 00-48.489 16.955 51.6 51.6 0 00-89.58 34.156 35 35 0 00-52.92 24.784 44.8 44.8 0 00-79.15 26.544 25.508 25.508 0 00-33.6 20.759h611.73a44.811 44.811 0 00-42.368-59.416z" transform="translate(-244.257 -251.488)" fill="url(#linear-gradient)"/><path id="패스_2160" data-name="패스 2160" class="cls-5" d="M451.651 378.449a55.238 55.238 0 0149.634 11.8 52.628 52.628 0 00-89.985 54.53 55.306 55.306 0 0140.351-66.33z" transform="translate(-146.49 -147.621)"/><path id="패스_2161" data-name="패스 2161" class="cls-5" d="M472.519 365.45a29.184 29.184 0 0133.734 16.35 29.532 29.532 0 00-.8-5.066 29.187 29.187 0 00-57.386 9.607l2.794 2.54a29.188 29.188 0 0121.658-23.431z" transform="translate(-106.964 -157.942)"/></g><g id="그룹_731" data-name="그룹 731" transform="translate(285.125)"><g id="그룹_723" data-name="그룹 723"><g id="그룹_716" data-name="그룹 716" transform="translate(0 158.319)"><g id="그룹_714" data-name="그룹 714"><path id="패스_2162" data-name="패스 2162" class="cls-6" d="M465.409 191.335s-38.267 22.705-45.273 57.745c-5.516 27.553 5.841 84.726 10.026 104.089a1.367 1.367 0 002.678-.008c3.34-16.635 13.974-60.646 36.748-84.039 28.478-29.222-4.179-77.787-4.179-77.787z" transform="translate(-418.654 -191.335)"/></g><g id="그룹_715" data-name="그룹 715" transform="translate(157.226)"><path id="패스_2163" data-name="패스 2163" class="cls-6" d="M516.961 191.335s38.267 22.705 45.273 57.745c5.5 27.553-5.847 84.726-10.043 104.089a1.363 1.363 0 01-2.672-.008c-3.329-16.635-13.963-60.646-36.754-84.039-28.472-29.222 4.196-77.787 4.196-77.787z" transform="translate(-501.114 -191.335)"/></g></g><path id="패스_2164" data-name="패스 2164" class="cls-7" d="M575.171 176.257c-20.842-47.392-63.619-67.955-63.619-67.955-7.58 3.183-42.81 20.563-63.658 67.955-25.2 57.255 3.086 204.436 3.086 204.436h121.1s28.289-147.181 3.091-204.436z" transform="translate(-401.622 -108.302)"/><g id="그룹_717" data-name="그룹 717" transform="translate(43.453 233.747)"><path id="패스_2165" data-name="패스 2165" class="cls-8" d="M442.1 235.573h132.154q.323-2.282.646-4.679H441.444q.332 2.398.656 4.679z" transform="translate(-441.444 -230.894)"/></g><path id="패스_2166" data-name="패스 2166" class="cls-9" d="M491.194 142.538a31.329 31.329 0 1031.327 31.329 31.328 31.328 0 00-31.327-31.329z" transform="translate(-381.285 -77.259)"/><path id="패스_2167" data-name="패스 2167" class="cls-10" d="M493.894 139.563a37 37 0 1037.008 37 37.007 37.007 0 00-37.008-37z" transform="translate(-383.98 -79.956)"/><circle id="타원_140" data-name="타원 140" cx="26.751" cy="26.751" r="26.751" transform="rotate(-22.298 245.56 -149.3)" fill="#2676f7"/><path id="패스_2168" data-name="패스 2168" class="cls-6" d="M548.1 150.16c-21.527-28.933-48.37-41.858-48.37-41.858-5.979 2.513-29.184 13.886-48.955 41.858z" transform="translate(-389.53 -108.302)"/><g id="그룹_720" data-name="그룹 720" transform="translate(75.01 61.706)"><g id="그룹_719" data-name="그룹 719" clip-path="url(#clip-path)"><g id="그룹_718" data-name="그룹 718" class="cls-13" transform="translate(4.088 3.185)"><path id="사각형_375" data-name="사각형 375" class="cls-8" transform="rotate(42.203 19.111 68.346)" d="M0 0h6.396v66.7H0z"/><path id="사각형_376" data-name="사각형 376" class="cls-8" transform="rotate(42.2 13.491 81.109)" d="M0 0h4.112v66.7H0z"/><path id="사각형_377" data-name="사각형 377" class="cls-8" transform="rotate(42.2 22.396 58.033)" d="M0 0h4.112v66.7H0z"/></g></g></g><g id="그룹_722" data-name="그룹 722" transform="translate(61.248)"><g id="그룹_721" data-name="그룹 721" clip-path="url(#clip-path-2)"><path id="선_168" data-name="선 168" class="cls-10" transform="translate(-14.543 33.661)" d="M0 0h125.942"/></g></g></g><g id="그룹_730" data-name="그룹 730" transform="translate(58.698 165.975)"><g id="그룹_724" data-name="그룹 724" transform="translate(0 73.978)"><path id="패스_2170" data-name="패스 2170" class="cls-9" d="M470.241 234.149s14.686 38.418 3.925 42.606c-8.442 3.288-16.872 22.338-20.1 30.349a1.035 1.035 0 01-1.982-.232c-1.336-8.994-4.268-31.959-1.48-45.577 3.532-17.195 19.637-27.146 19.637-27.146z" transform="translate(-449.44 -234.149)"/><path id="패스_2171" data-name="패스 2171" class="cls-9" d="M495.91 234.149s-14.675 38.418-3.931 42.606c8.447 3.288 16.883 22.338 20.113 30.349a1.024 1.024 0 001.966-.232c1.347-8.994 4.284-31.959 1.491-45.577-3.54-17.195-19.639-27.146-19.639-27.146z" transform="translate(-414.432 -234.149)"/></g><path id="패스_2172" data-name="패스 2172" d="M522.465 227.1c-9.745-22.14-29.731-31.752-29.731-31.752-3.55 1.491-20 9.612-29.742 31.752-11.782 26.758 1.435 95.528 1.435 95.528h56.591s13.213-68.768 1.447-95.528z" transform="translate(-441.585 -195.35)" fill="#fe881c"/><g id="그룹_725" data-name="그룹 725" transform="translate(20.692 114.326)"><path id="패스_2173" data-name="패스 2173" class="cls-16" d="M460.988 259.823h59.5c.221-1.375.458-2.882.7-4.513h-60.896c.243 1.631.486 3.139.696 4.513z" transform="translate(-460.292 -255.31)"/></g><path id="패스_2174" data-name="패스 2174" class="cls-6" d="M509.751 214.911a68.9 68.9 0 00-22.609-19.561c-2.788 1.173-13.632 6.49-22.874 19.561z" transform="translate(-435.996 -195.35)"/><g id="그룹_729" data-name="그룹 729" transform="translate(34.697 30.278)"><path id="패스_2175" data-name="패스 2175" class="cls-16" d="M482.8 212.636a13.763 13.763 0 1013.77 13.764 13.759 13.759 0 00-13.77-13.764z" transform="translate(-466.362 -209.956)"/><path id="패스_2176" data-name="패스 2176" class="cls-10" d="M484.084 211.23a16.443 16.443 0 1016.442 16.439 16.437 16.437 0 00-16.442-16.439z" transform="translate(-467.637 -211.23)"/><path id="패스_2177" data-name="패스 2177" class="cls-7" d="M491.881 224.888A10.587 10.587 0 11481.3 214.3a10.584 10.584 0 0110.581 10.588z" transform="translate(-464.851 -208.445)"/><g id="그룹_728" data-name="그룹 728" transform="translate(5.856 5.855)"><g id="그룹_727" data-name="그룹 727" clip-path="url(#clip-path-3)"><g id="그룹_726" data-name="그룹 726" class="cls-13" transform="translate(-1.609 -1.965)"><path id="사각형_378" data-name="사각형 378" class="cls-8" transform="rotate(42.2 7.563 27.041)" d="M0 0h2.531v26.399H0z"/><path id="사각형_379" data-name="사각형 379" class="cls-8" transform="rotate(42.198 5.341 32.117)" d="M0 0h1.627v26.399H0z"/><path id="사각형_380" data-name="사각형 380" class="cls-8" transform="rotate(42.2 8.865 22.97)" d="M0 0h1.627v26.399H0z"/></g></g></g></g><path id="패스_2179" data-name="패스 2179" class="cls-9" d="M479.318 236.578c-12.141 2.021-3.9 63.517-.939 83.225a.939.939 0 001.877 0c2.96-19.703 11.203-81.203-.938-83.225z" transform="translate(-428.177 -157.969)"/></g></g></g><g id="그룹_737" data-name="그룹 737" transform="translate(104.47 24.186)"><path id="패스_2181" data-name="패스 2181" class="cls-18" d="M587.668 193.665a3.995 3.995 0 11-4.008-3.99 4 4 0 014.008 3.99z" transform="translate(-92.002 -58.709)"/><path id="패스_2182" data-name="패스 2182" class="cls-18" d="M614.351 306.49a3.992 3.992 0 11-4-3.992 4 4 0 014 3.992z" transform="translate(-67.803 43.589)"/><path id="패스_2183" data-name="패스 2183" class="cls-18" d="M528.032 124.98a3.995 3.995 0 11-4-3.993 3.994 3.994 0 014 3.993z" transform="translate(-146.069 -120.987)"/><path id="패스_2184" data-name="패스 2184" class="cls-18" d="M373 221.7a3.99 3.99 0 11-3.992-3.989A3.988 3.988 0 01373 221.7z" transform="translate(-286.632 -33.285)"/><path id="패스_2185" data-name="패스 2185" class="cls-18" d="M331.887 351.094a3.99 3.99 0 11-3.987-3.994 3.987 3.987 0 013.987 3.994z" transform="translate(-323.907 84.035)"/><g id="그룹_734" data-name="그룹 734" transform="translate(498.227 293.035)"><path id="선_169" data-name="선 169" class="cls-18" transform="translate(4.572)" d="M0 0v9.144"/><path id="선_170" data-name="선 170" class="cls-18" transform="translate(0 4.572)" d="M9.144 0H0"/></g><g id="그룹_735" data-name="그룹 735" transform="translate(39.018 388.571)"><path id="선_171" data-name="선 171" class="cls-18" transform="translate(4.572)" d="M0 0v9.144"/><path id="선_172" data-name="선 172" class="cls-18" transform="translate(0 4.572)" d="M9.144 0H0"/></g><g id="그룹_736" data-name="그룹 736" transform="translate(128.443 235.793)"><path id="선_173" data-name="선 173" class="cls-18" transform="translate(4.572)" d="M0 0v9.144"/><path id="선_174" data-name="선 174" class="cls-18" transform="translate(0 4.572)" d="M9.144 0H0"/></g></g></g><path id="사각형_382" data-name="사각형 382" transform="translate(0 528.09)" d="M0 0h757.58v71.91H0z" fill="url(#linear-gradient-2)"/></svg>