<svg id="img_5" xmlns="http://www.w3.org/2000/svg" width="358.979" height="320" viewBox="0 0 358.979 320">
    <defs>
        <style>
            .cls-1{fill:#f4f8fc}.cls-2{fill:#fff}.cls-3{fill:#98bef5}.cls-4{fill:#4a63fe}.cls-5{fill:#ebebeb}.cls-6{fill:#a6a6a6}.cls-7{fill:#ffc727}
        </style>
    </defs>
    <g id="Background_Complete" data-name="Background Complete" transform="translate(4.873 2.454)">
        <g id="그룹_792" data-name="그룹 792" transform="translate(0 97.468)">
            <path id="패스_2306" data-name="패스 2306" class="cls-1" d="M-335.2 168.038c0-1.132.152-4.155.152-5.439 0-5.518-1.964-8.011-7.1-8.163-2.419-.15-3.853-1.586-3.853-3.627s1.434-3.476 3.853-3.627c5.14-.226 7.1-2.646 7.1-8.239 0-1.284-.152-4.306-.152-5.439 0-7.33 3.1-12.016 14.811-14.585a3.171 3.171 0 0 1 4.157 3.1 3.177 3.177 0 0 1-2.116 3.1c-7.329 2.267-8.388 4.611-8.388 9.749 0 1.512.152 4 .152 5.592 0 5.893-2.871 8.766-7.861 10.352 5.064 1.662 7.861 4.459 7.861 10.352 0 1.588-.152 4.081-.152 5.592 0 5.138 1.059 7.482 8.388 9.749a3.177 3.177 0 0 1 2.116 3.1 3.172 3.172 0 0 1-4.157 3.1c-11.711-2.575-14.811-7.26-14.811-14.667z" transform="translate(346.007 -118.81)"/>
            <path id="패스_2307" data-name="패스 2307" class="cls-1" d="M-300.4 133.505c0 1.133-.15 4.155-.15 5.439 0 5.592 2.04 8.012 7.18 8.239 2.343.15 3.778 1.586 3.778 3.627s-1.436 3.476-3.778 3.627c-5.14.152-7.18 2.645-7.18 8.163 0 1.284.15 4.307.15 5.439 0 7.406-3.1 12.092-14.81 14.662a3.172 3.172 0 0 1-4.157-3.1 3.139 3.139 0 0 1 2.191-3.1c7.256-2.267 8.313-4.611 8.313-9.749 0-1.512-.15-4-.15-5.592 0-5.893 2.871-8.766 7.859-10.352-5.064-1.662-7.859-4.459-7.859-10.352 0-1.588.15-4.081.15-5.592 0-5.138-1.057-7.482-8.313-9.749a3.139 3.139 0 0 1-2.191-3.1 3.171 3.171 0 0 1 4.157-3.1c11.715 2.574 14.81 7.26 14.81 14.59z" transform="translate(355.485 -118.81)"/>
        </g>
        <g id="그룹_793" data-name="그룹 793" transform="translate(183.478)">
            <path id="패스_2308" data-name="패스 2308" class="cls-1" d="M-183.241 88.137a4.459 4.459 0 0 1 0 6.33 4.491 4.491 0 0 1-3.1 1.266 4.693 4.693 0 0 1-3.236-1.266l-19.761-20.047c-.211-.071-.281-.21-.352-.422a.978.978 0 0 0-.212-.141 1.944 1.944 0 0 1-.21-.563.382.382 0 0 1-.211-.281c-.069-.141-.069-.353-.14-.423 0-.21-.141-.282-.141-.352v-.491c0-.141-.069-.212-.069-.423 0-.07.069-.281.069-.351v-.492c0-.141.141-.211.141-.282.07-.211.07-.351.14-.563 0-.07.072-.07.072-.14a5.317 5.317 0 0 1 .35-.634.138.138 0 0 1 .142-.14 1.313 1.313 0 0 1 .422-.493l19.765-20.046a4.591 4.591 0 0 1 6.331 0 4.46 4.46 0 0 1 0 6.33l-16.672 16.811z" transform="translate(210.673 -46.917)"/>
            <path id="패스_2309" data-name="패스 2309" class="cls-1" d="m-177.128 90.359 17.233-41.008a3.905 3.905 0 0 1 5.136-2.04 3.8 3.8 0 0 1 1.969 4.995l-17.233 41.079a3.9 3.9 0 0 1-3.587 2.321 3.337 3.337 0 0 1-1.406-.281 3.8 3.8 0 0 1-2.112-5.066z" transform="translate(217.924 -46.889)"/>
            <path id="패스_2310" data-name="패스 2310" class="cls-1" d="M-126.807 73.857a.069.069 0 0 1-.071.07 3.3 3.3 0 0 1-.492.492l-19.765 20.047a4.524 4.524 0 0 1-3.164 1.266 4.528 4.528 0 0 1-3.166-1.266 4.457 4.457 0 0 1 0-6.33l16.67-16.813-16.67-16.811a4.457 4.457 0 0 1 0-6.33 4.589 4.589 0 0 1 6.33 0l19.765 20.046a3.307 3.307 0 0 1 .492.493c.071 0 .071.14.071.14a6.048 6.048 0 0 1 .351.634c0 .069.072.069.072.14a3.311 3.311 0 0 0 .211.633c0 .071.069.071.069.211v.492c0 .07.07.281.07.351s-.07.282-.07.353v.561c0 .07-.069.07-.069.142a6.37 6.37 0 0 0-.211.633c0 .069-.072.069-.072.21-.069.144-.21.354-.351.636z" transform="translate(230.555 -46.917)"/>
        </g>
    </g>
    <g id="Screens">
        <g id="그룹_799" data-name="그룹 799">
            <g id="그룹_796" data-name="그룹 796">
                <g id="그룹_794" data-name="그룹 794">
                    <path id="사각형_393" data-name="사각형 393" class="cls-2" transform="translate(.852 .852)" d="M0 0h134.734v85.948H0z"/>
                    <path id="패스_2311" data-name="패스 2311" class="cls-1" d="M-213.163 132.757H-349.6v-87.65h136.438zm-134.735-1.7h133.032V46.81H-347.9z" transform="translate(349.601 -45.107)"/>
                </g>
                <g id="그룹_795" data-name="그룹 795">
                    <path id="사각형_394" data-name="사각형 394" class="cls-3" transform="translate(.852 .852)" d="M0 0h134.734v16.254H0z"/>
                    <path id="패스_2312" data-name="패스 2312" class="cls-1" d="M-213.163 63.064H-349.6V45.107h136.438zm-134.735-1.7h133.032V46.81H-347.9z" transform="translate(349.601 -45.107)"/>
                </g>
            </g>
            <g id="그룹_797" data-name="그룹 797" transform="translate(7.928 5.005)">
                <path id="패스_2313" data-name="패스 2313" class="cls-4" d="M-335.571 52.891a4.091 4.091 0 0 1-4.092 4.09 4.091 4.091 0 0 1-4.09-4.09 4.091 4.091 0 0 1 4.09-4.092 4.091 4.091 0 0 1 4.092 4.092z" transform="translate(343.753 -48.799)"/>
                <path id="패스_2314" data-name="패스 2314" class="cls-5" d="M-323.25 52.891a4.091 4.091 0 0 1-4.092 4.09 4.091 4.091 0 0 1-4.09-4.09 4.091 4.091 0 0 1 4.09-4.092 4.091 4.091 0 0 1 4.092 4.092z" transform="translate(348.136 -48.799)"/>
                <path id="패스_2315" data-name="패스 2315" class="cls-2" d="M-310.929 52.891a4.091 4.091 0 0 1-4.092 4.09 4.091 4.091 0 0 1-4.09-4.09 4.091 4.091 0 0 1 4.09-4.092 4.091 4.091 0 0 1 4.092 4.092z" transform="translate(352.519 -48.799)"/>
            </g>
            <g id="그룹_798" data-name="그룹 798" transform="translate(24.106 32.946)">
                <path id="패스_2316" data-name="패스 2316" class="cls-1" d="M-331.82 85.705a16.62 16.62 0 0 1 16.613-16.3 16.939 16.939 0 0 1 10.458 3.532 2.678 2.678 0 0 1 .451 3.621 2.649 2.649 0 0 1-3.62.5 11.281 11.281 0 0 0-7.29-2.491 11.981 11.981 0 0 0-8.148 3.259 11.167 11.167 0 0 0-3.305 7.877 11 11 0 0 0 3.305 7.877 11.981 11.981 0 0 0 8.148 3.259 11.375 11.375 0 0 0 7.29-2.489 2.743 2.743 0 0 1 3.62.5 2.672 2.672 0 0 1-.451 3.621A16.939 16.939 0 0 1-315.207 102a16.559 16.559 0 0 1-16.613-16.295z" transform="translate(331.82 -69.408)"/>
                <path id="패스_2317" data-name="패스 2317" class="cls-1" d="M-305.646 94.126a2.359 2.359 0 0 1 3.3-.317c1.992 1.631 5.432 3.532 8.646 3.486a9.769 9.769 0 0 0 5.66-1.674 4.076 4.076 0 0 0 1.945-3.259 2.577 2.577 0 0 0-.407-1.449 4.249 4.249 0 0 0-1.358-1.357 18.1 18.1 0 0 0-6.2-2.129h-.092a24.532 24.532 0 0 1-5.839-1.765 9.735 9.735 0 0 1-4.21-3.532 6.944 6.944 0 0 1-1.041-3.712 8.364 8.364 0 0 1 3.621-6.609 13.39 13.39 0 0 1 7.832-2.4c4.345 0 7.561 2.129 9.868 3.623a2.33 2.33 0 0 1 .634 3.213 2.287 2.287 0 0 1-3.214.681c-2.309-1.54-4.528-2.9-7.288-2.9a8.661 8.661 0 0 0-5.072 1.537 3.607 3.607 0 0 0-1.719 2.852 2.2 2.2 0 0 0 .317 1.268 4.38 4.38 0 0 0 1.223 1.178 15.584 15.584 0 0 0 5.658 1.992h.091a26.54 26.54 0 0 1 6.249 1.9 10.57 10.57 0 0 1 4.525 3.758 7.334 7.334 0 0 1 1.087 3.848 8.758 8.758 0 0 1-3.894 7.016 14.164 14.164 0 0 1-8.376 2.581c-4.887-.046-9.008-2.491-11.589-4.527a2.41 2.41 0 0 1-.357-3.303z" transform="translate(340.955 -69.408)"/>
                <path id="패스_2318" data-name="패스 2318" class="cls-1" d="M-283.709 94.126a2.359 2.359 0 0 1 3.3-.317c1.992 1.631 5.432 3.532 8.646 3.486a9.769 9.769 0 0 0 5.66-1.674 4.076 4.076 0 0 0 1.945-3.259 2.567 2.567 0 0 0-.408-1.449 4.229 4.229 0 0 0-1.357-1.357 18.1 18.1 0 0 0-6.2-2.129h-.092a24.531 24.531 0 0 1-5.839-1.765 9.735 9.735 0 0 1-4.21-3.532 6.944 6.944 0 0 1-1.041-3.712 8.364 8.364 0 0 1 3.621-6.609 13.39 13.39 0 0 1 7.832-2.4c4.345 0 7.561 2.129 9.868 3.623a2.331 2.331 0 0 1 .635 3.213 2.288 2.288 0 0 1-3.216.681c-2.307-1.54-4.527-2.9-7.287-2.9a8.661 8.661 0 0 0-5.072 1.537 3.607 3.607 0 0 0-1.719 2.852 2.2 2.2 0 0 0 .317 1.268 4.379 4.379 0 0 0 1.223 1.178 15.584 15.584 0 0 0 5.658 1.992h.091a26.539 26.539 0 0 1 6.249 1.9 10.558 10.558 0 0 1 4.524 3.758 7.322 7.322 0 0 1 1.089 3.848 8.758 8.758 0 0 1-3.894 7.016 14.164 14.164 0 0 1-8.376 2.581c-4.887-.046-9.008-2.491-11.589-4.527a2.41 2.41 0 0 1-.358-3.303z" transform="translate(348.759 -69.408)"/>
            </g>
        </g>
        <g id="그룹_805" data-name="그룹 805" transform="translate(222.542 232.35)">
            <g id="그룹_802" data-name="그룹 802">
                <g id="그룹_800" data-name="그룹 800">
                    <path id="사각형_395" data-name="사각형 395" class="cls-2" transform="translate(.851 .852)" d="M0 0h134.735v85.948H0z"/>
                    <path id="패스_2319" data-name="패스 2319" class="cls-1" d="M-49.016 304.139h-136.437v-87.65h136.437zm-134.734-1.7h133.031v-84.247H-183.75z" transform="translate(185.453 -216.489)"/>
                </g>
                <g id="그룹_801" data-name="그룹 801">
                    <path id="사각형_396" data-name="사각형 396" class="cls-3" transform="translate(.851 .852)" d="M0 0h134.735v16.254H0z"/>
                    <path id="패스_2320" data-name="패스 2320" class="cls-1" d="M-49.016 234.446h-136.437v-17.957h136.437zm-134.734-1.7h133.031v-14.554H-183.75z" transform="translate(185.453 -216.489)"/>
                </g>
            </g>
            <g id="그룹_803" data-name="그룹 803" transform="translate(7.927 5.005)">
                <path id="패스_2321" data-name="패스 2321" class="cls-6" d="M-171.424 224.273a4.091 4.091 0 0 1-4.09 4.09 4.091 4.091 0 0 1-4.092-4.09 4.091 4.091 0 0 1 4.092-4.092 4.091 4.091 0 0 1 4.09 4.092z" transform="translate(179.606 -220.181)"/>
                <path id="패스_2322" data-name="패스 2322" class="cls-5" d="M-159.1 224.273a4.091 4.091 0 0 1-4.09 4.09 4.091 4.091 0 0 1-4.092-4.09 4.091 4.091 0 0 1 4.092-4.092 4.091 4.091 0 0 1 4.09 4.092z" transform="translate(183.989 -220.181)"/>
                <path id="패스_2323" data-name="패스 2323" class="cls-2" d="M-146.782 224.273a4.091 4.091 0 0 1-4.09 4.09 4.091 4.091 0 0 1-4.092-4.09 4.091 4.091 0 0 1 4.092-4.092 4.091 4.091 0 0 1 4.09 4.092z" transform="translate(188.372 -220.181)"/>
            </g>
            <g id="그룹_804" data-name="그룹 804" transform="translate(26.007 32.947)">
                <path id="패스_2324" data-name="패스 2324" class="cls-1" d="M-166.27 257.087a16.618 16.618 0 0 1 16.613-16.3 16.941 16.941 0 0 1 10.458 3.53 2.678 2.678 0 0 1 .453 3.621 2.653 2.653 0 0 1-3.623.5 11.282 11.282 0 0 0-7.288-2.491 11.981 11.981 0 0 0-8.148 3.259 11.171 11.171 0 0 0-3.3 7.877 11.014 11.014 0 0 0 3.3 7.878 11.981 11.981 0 0 0 8.148 3.259 11.373 11.373 0 0 0 7.288-2.491 2.747 2.747 0 0 1 3.623.5 2.672 2.672 0 0 1-.453 3.621 16.941 16.941 0 0 1-10.458 3.53 16.558 16.558 0 0 1-16.613-16.293z" transform="translate(166.27 -240.791)"/>
                <path id="패스_2325" data-name="패스 2325" class="cls-1" d="M-131.91 258.55h-6.429a2.482 2.482 0 0 1-2.489-2.489 2.512 2.512 0 0 1 2.489-2.49h6.429v-6.292a2.552 2.552 0 0 1 2.581-2.581 2.578 2.578 0 0 1 2.579 2.581v6.292h6.429a2.511 2.511 0 0 1 2.489 2.49 2.481 2.481 0 0 1-2.489 2.489h-6.429v6.293a2.578 2.578 0 0 1-2.579 2.58 2.551 2.551 0 0 1-2.581-2.58z" transform="translate(175.321 -239.401)"/>
                <path id="패스_2326" data-name="패스 2326" class="cls-1" d="M-111.209 258.55h-6.428a2.482 2.482 0 0 1-2.49-2.489 2.513 2.513 0 0 1 2.49-2.49h6.428v-6.292a2.551 2.551 0 0 1 2.58-2.581 2.58 2.58 0 0 1 2.581 2.581v6.292h6.428a2.514 2.514 0 0 1 2.491 2.49 2.483 2.483 0 0 1-2.491 2.489h-6.428v6.293a2.58 2.58 0 0 1-2.581 2.58 2.551 2.551 0 0 1-2.58-2.58z" transform="translate(182.685 -239.401)"/>
            </g>
        </g>
        <g id="그룹_812" data-name="그룹 812" transform="translate(69.733 73.988)">
            <g id="그룹_808" data-name="그룹 808">
                <g id="그룹_806" data-name="그룹 806">
                    <path id="사각형_397" data-name="사각형 397" class="cls-2" transform="translate(.851 .851)" d="M0 0h224.7v184.535H0z"/>
                    <path id="패스_2327" data-name="패스 2327" class="cls-1" d="M-71.764 285.918h-226.4V99.681h226.4zm-224.7-1.7h223V101.384h-223z" transform="translate(298.166 -99.681)"/>
                </g>
                <g id="그룹_807" data-name="그룹 807">
                    <path id="사각형_398" data-name="사각형 398" class="cls-1" transform="translate(.851 .851)" d="M0 0h224.7v16.254H0z"/>
                    <path id="패스_2328" data-name="패스 2328" class="cls-1" d="M-71.764 117.638h-226.4V99.681h226.4zm-224.7-1.7h223v-14.55h-223z" transform="translate(298.166 -99.681)"/>
                </g>
            </g>
            <g id="그룹_809" data-name="그룹 809" transform="translate(7.927 5.005)">
                <path id="패스_2329" data-name="패스 2329" class="cls-6" d="M-284.137 107.463a4.091 4.091 0 0 1-4.09 4.092 4.091 4.091 0 0 1-4.092-4.092 4.091 4.091 0 0 1 4.092-4.09 4.091 4.091 0 0 1 4.09 4.09z" transform="translate(292.319 -103.373)"/>
                <path id="패스_2330" data-name="패스 2330" class="cls-5" d="M-271.816 107.463a4.091 4.091 0 0 1-4.09 4.092 4.091 4.091 0 0 1-4.094-4.092 4.091 4.091 0 0 1 4.092-4.09 4.091 4.091 0 0 1 4.092 4.09z" transform="translate(296.702 -103.373)"/>
                <path id="패스_2331" data-name="패스 2331" class="cls-2" d="M-259.5 107.463a4.091 4.091 0 0 1-4.09 4.092 4.091 4.091 0 0 1-4.092-4.092 4.091 4.091 0 0 1 4.092-4.09 4.091 4.091 0 0 1 4.09 4.09z" transform="translate(301.085 -103.373)"/>
            </g>
            <g id="그룹_811" data-name="그룹 811" transform="translate(18.288 34.089)">
                <path id="사각형_399" data-name="사각형 399" class="cls-5" transform="translate(0 15.35)" d="M0 0h8.69v3.174H0z"/>
                <path id="사각형_400" data-name="사각형 400" class="cls-5" transform="translate(15.023 15.35)" d="M0 0h99.682v3.174H0z"/>
                <path id="사각형_401" data-name="사각형 401" class="cls-7" transform="translate(120.044 15.35)" d="M0 0h16.506v3.174H0z"/>
                <path id="사각형_402" data-name="사각형 402" class="cls-5" transform="translate(157.798 57.826)" d="M0 0h16.506v3.174H0z"/>
                <path id="사각형_403" data-name="사각형 403" class="cls-6" transform="translate(140.139 15.35)" d="M0 0h28.534v3.174H0z"/>
                <path id="사각형_404" data-name="사각형 404" class="cls-5" transform="translate(8.69 23.845)" d="M0 0h8.69v3.174H0z"/>
                <path id="사각형_405" data-name="사각형 405" class="cls-6" transform="translate(23.495 23.845)" d="M0 0h65.417v3.174H0z"/>
                <path id="사각형_406" data-name="사각형 406" class="cls-6" transform="translate(115.575 57.826)" d="M0 0h38.302v3.174H0z"/>
                <path id="사각형_407" data-name="사각형 407" class="cls-6" transform="translate(15.023 49.331)" d="M0 0h62.483v3.174H0z"/>
                <path id="사각형_408" data-name="사각형 408" class="cls-7" transform="translate(23.495 32.34)" d="M0 0h43.834v3.174H0z"/>
                <path id="사각형_409" data-name="사각형 409" class="cls-6" transform="translate(131.082 40.836)" d="M0 0h16.719v3.174H0z"/>
                <path id="사각형_410" data-name="사각형 410" class="cls-6" transform="translate(72.193 32.34)" d="M0 0h70v3.174H0z"/>
                <path id="사각형_411" data-name="사각형 411" class="cls-7" transform="translate(15.023 57.826)" d="M0 0h83.557v3.174H0z"/>
                <path id="사각형_412" data-name="사각형 412" class="cls-7" transform="translate(138.298 23.845)" d="M0 0h45.283v3.174H0z"/>
                <path id="사각형_413" data-name="사각형 413" class="cls-5" transform="translate(93.019 23.845)" d="M0 0h41.691v3.174H0z"/>
                <path id="사각형_414" data-name="사각형 414" class="cls-5" transform="translate(145.483 32.34)" d="M0 0h28.133v3.174H0z"/>
                <path id="사각형_415" data-name="사각형 415" class="cls-5" transform="translate(8.69 32.34)" d="M0 0h8.69v3.174H0z"/>
                <path id="사각형_416" data-name="사각형 416" class="cls-6" transform="translate(0 40.836)" d="M0 0h8.69v3.174H0z"/>
                <path id="사각형_417" data-name="사각형 417" class="cls-5" transform="translate(15.023 40.836)" d="M0 0h51.358v3.174H0z"/>
                <path id="사각형_418" data-name="사각형 418" class="cls-5" transform="translate(23.495 66.321)" d="M0 0h51.358v3.174H0z"/>
                <path id="사각형_419" data-name="사각형 419" class="cls-7" transform="translate(119.259 74.816)" d="M0 0h39.045v3.174H0z"/>
                <path id="사각형_420" data-name="사각형 420" class="cls-7" transform="translate(79.022 66.321)" d="M0 0h51.502v3.174H0z"/>
                <path id="사각형_421" data-name="사각형 421" class="cls-5" transform="translate(69.938 74.816)" d="M0 0h44.831v3.174H0z"/>
                <path id="사각형_422" data-name="사각형 422" class="cls-6" transform="translate(23.495 74.816)" d="M0 0h14.87v3.174H0z"/>
                <path id="사각형_423" data-name="사각형 423" class="cls-5" transform="translate(81.042 49.331)" d="M0 0h55.508v3.174H0z"/>
                <path id="사각형_424" data-name="사각형 424" class="cls-7" transform="translate(140.139 49.331)" d="M0 0h35.318v3.174H0z"/>
                <path id="사각형_425" data-name="사각형 425" class="cls-7" transform="translate(71.602 40.836)" d="M0 0h55.441v3.174H0z"/>
                <path id="사각형_426" data-name="사각형 426" class="cls-5" transform="translate(0 49.331)" d="M0 0h8.69v3.174H0z"/>
                <path id="사각형_427" data-name="사각형 427" class="cls-5" transform="translate(0 57.826)" d="M0 0h8.69v3.174H0z"/>
                <path id="사각형_428" data-name="사각형 428" class="cls-6" transform="translate(8.69 66.321)" d="M0 0h8.69v3.174H0z"/>
                <path id="사각형_429" data-name="사각형 429" class="cls-5" transform="translate(8.69 74.816)" d="M0 0h8.69v3.174H0z"/>
                <path id="사각형_430" data-name="사각형 430" class="cls-5" transform="translate(0 81.931)" d="M0 0h8.69v3.174H0z"/>
                <path id="사각형_431" data-name="사각형 431" class="cls-5" transform="translate(15.023 81.931)" d="M0 0h99.682v3.174H0z"/>
                <path id="사각형_432" data-name="사각형 432" class="cls-5" transform="translate(8.69 90.426)" d="M0 0h8.69v3.174H0z"/>
                <path id="사각형_433" data-name="사각형 433" class="cls-6" transform="translate(23.495 90.426)" d="M0 0h65.417v3.174H0z"/>
                <path id="사각형_434" data-name="사각형 434" class="cls-6" transform="translate(15.023 115.912)" d="M0 0h62.483v3.174H0z"/>
                <path id="사각형_435" data-name="사각형 435" class="cls-7" transform="translate(23.495 98.921)" d="M0 0h43.834v3.174H0z"/>
                <path id="사각형_436" data-name="사각형 436" class="cls-6" transform="translate(72.193 98.921)" d="M0 0h70v3.174H0z"/>
                <path id="사각형_437" data-name="사각형 437" class="cls-7" transform="translate(15.023 124.407)" d="M0 0h83.557v3.174H0z"/>
                <path id="사각형_438" data-name="사각형 438" class="cls-7" transform="translate(138.298 90.426)" d="M0 0h45.283v3.174H0z"/>
                <path id="사각형_439" data-name="사각형 439" class="cls-5" transform="translate(93.019 90.426)" d="M0 0h41.691v3.174H0z"/>
                <path id="사각형_440" data-name="사각형 440" class="cls-5" transform="translate(145.483 98.921)" d="M0 0h28.133v3.174H0z"/>
                <path id="사각형_441" data-name="사각형 441" class="cls-5" transform="translate(8.69 98.921)" d="M0 0h8.69v3.174H0z"/>
                <path id="사각형_442" data-name="사각형 442" class="cls-6" transform="translate(0 107.417)" d="M0 0h8.69v3.174H0z"/>
                <path id="사각형_443" data-name="사각형 443" class="cls-5" transform="translate(15.023 107.417)" d="M0 0h51.358v3.174H0z"/>
                <path id="사각형_444" data-name="사각형 444" class="cls-5" transform="translate(81.042 115.912)" d="M0 0h55.508v3.174H0z"/>
                <path id="사각형_445" data-name="사각형 445" class="cls-7" transform="translate(71.602 107.417)" d="M0 0h55.441v3.174H0z"/>
                <path id="사각형_446" data-name="사각형 446" class="cls-5" transform="translate(0 115.912)" d="M0 0h8.69v3.174H0z"/>
                <g id="그룹_810" data-name="그룹 810" transform="translate(.715)">
                    <path id="패스_2332" data-name="패스 2332" class="cls-7" d="M-279.5 131.815a.756.756 0 0 1 0 1.074.758.758 0 0 1-.525.214.792.792 0 0 1-.549-.214l-3.351-3.4c-.037-.012-.047-.037-.06-.072a.145.145 0 0 0-.037-.024.339.339 0 0 1-.035-.095.066.066 0 0 1-.037-.047c-.011-.024-.011-.061-.023-.072 0-.037-.024-.047-.024-.06v-.084c0-.023-.012-.035-.012-.07 0-.014.012-.049.012-.061v-.083c0-.024.024-.035.024-.047.012-.037.012-.06.023-.1 0-.012.012-.012.012-.023a.928.928 0 0 1 .06-.107.024.024 0 0 1 .026-.024.2.2 0 0 1 .07-.084l3.351-3.4a.776.776 0 0 1 1.074 0 .756.756 0 0 1 0 1.074l-2.827 2.851z" transform="translate(284.149 -124.825)"/>
                    <path id="패스_2333" data-name="패스 2333" class="cls-7" d="m-278.462 132.193 2.922-6.955a.66.66 0 0 1 .87-.344.641.641 0 0 1 .333.846l-2.922 6.966a.662.662 0 0 1-.609.393.546.546 0 0 1-.237-.047.642.642 0 0 1-.357-.859z" transform="translate(286.153 -124.82)"/>
                    <path id="패스_2334" data-name="패스 2334" class="cls-7" d="M-269.931 129.394s0 .012-.011.012a.72.72 0 0 1-.085.084l-3.351 3.4a.763.763 0 0 1-.537.214.76.76 0 0 1-.536-.214.754.754 0 0 1 0-1.074l2.825-2.85-2.825-2.851a.754.754 0 0 1 0-1.074.775.775 0 0 1 1.072 0l3.351 3.4a.631.631 0 0 1 .085.084c.011 0 .011.024.011.024a1.2 1.2 0 0 1 .06.107c0 .011.012.011.012.023a.65.65 0 0 0 .035.108c0 .011.011.011.011.035v.083c0 .012.014.047.014.061s-.014.047-.014.058v.1c0 .012-.011.012-.011.023-.023.047-.023.084-.035.108s-.012.011-.012.035-.036.056-.059.104z" transform="translate(287.519 -124.825)"/>
                </g>
            </g>
        </g>
        <g id="그룹_814" data-name="그룹 814" transform="translate(229.121 48.96)">
            <path id="사각형_447" data-name="사각형 447" style="fill:#ff7d12" d="M0 0h91.788v33.982H0z"/>
            <g id="그룹_813" data-name="그룹 813" transform="translate(13.245 7.566)">
                <path id="패스_2335" data-name="패스 2335" class="cls-2" d="M-170.831 103.277V88.206a1.385 1.385 0 0 1 1.4-1.4 1.406 1.406 0 0 1 1.43 1.4v6.131h6.616v-6.131a1.386 1.386 0 0 1 1.406-1.4 1.406 1.406 0 0 1 1.43 1.4v15.072a1.406 1.406 0 0 1-1.43 1.4 1.386 1.386 0 0 1-1.406-1.4v-6.131H-168v6.131a1.406 1.406 0 0 1-1.43 1.4 1.385 1.385 0 0 1-1.401-1.401z" transform="translate(170.831 -86.801)"/>
                <path id="패스_2336" data-name="패스 2336" class="cls-2" d="M-146.176 89.636h-4.062v13.641a1.385 1.385 0 0 1-1.4 1.4 1.4 1.4 0 0 1-1.4-1.4V89.636h-4.036a1.424 1.424 0 0 1-1.406-1.43 1.386 1.386 0 0 1 1.406-1.4h10.907a1.4 1.4 0 0 1 1.406 1.4 1.44 1.44 0 0 1-1.415 1.43z" transform="translate(175.222 -86.801)"/>
                <path id="패스_2337" data-name="패스 2337" class="cls-2" d="M-129.882 88.206v15.072a1.441 1.441 0 0 1-1.43 1.4 1.4 1.4 0 0 1-1.406-1.4V92.522l-3.678 5.11a1.4 1.4 0 0 1-1.15.587h-.051a1.442 1.442 0 0 1-1.174-.587l-3.654-5.11v10.755a1.423 1.423 0 0 1-1.43 1.4 1.417 1.417 0 0 1-1.406-1.4V88.206a1.417 1.417 0 0 1 1.406-1.4h.076a1.383 1.383 0 0 1 1.125.587l5.084 7.05 5.083-7.05a1.391 1.391 0 0 1 1.148-.587h.027a1.458 1.458 0 0 1 1.43 1.4z" transform="translate(179.927 -86.801)"/>
                <path id="패스_2338" data-name="패스 2338" class="cls-2" d="M-129.358 103.277V88.206a1.4 1.4 0 0 1 1.4-1.4 1.423 1.423 0 0 1 1.432 1.4v13.64h6.924a1.44 1.44 0 0 1 1.4 1.432 1.433 1.433 0 0 1-1.4 1.4h-8.355a1.4 1.4 0 0 1-1.401-1.401z" transform="translate(185.585 -86.801)"/>
            </g>
        </g>
        <g id="그룹_816" data-name="그룹 816" transform="translate(0 178.799)">
            <path id="사각형_448" data-name="사각형 448" class="cls-4" d="M0 0h75.641v33.982H0z"/>
            <g id="그룹_815" data-name="그룹 815" transform="translate(16.527 7.566)">
                <path id="패스_2339" data-name="패스 2339" class="cls-2" d="M-331.435 193.5h-3.14v5.542a1.423 1.423 0 0 1-1.43 1.4 1.417 1.417 0 0 1-1.406-1.4v-15.067a1.4 1.4 0 0 1 1.406-1.4h4.57a5.487 5.487 0 0 1 5.5 5.492 5.477 5.477 0 0 1-5.5 5.433zm-3.14-2.836h3.14a2.645 2.645 0 0 0 2.659-2.606 2.656 2.656 0 0 0-2.659-2.657h-3.14z" transform="translate(337.411 -182.57)"/>
                <path id="패스_2340" data-name="패스 2340" class="cls-2" d="M-326.425 199.046v-15.071a1.384 1.384 0 0 1 1.4-1.4 1.406 1.406 0 0 1 1.43 1.4v6.131h6.616v-6.131a1.387 1.387 0 0 1 1.407-1.4 1.406 1.406 0 0 1 1.43 1.4v15.072a1.406 1.406 0 0 1-1.43 1.4 1.387 1.387 0 0 1-1.407-1.4v-6.131h-6.616v6.131a1.406 1.406 0 0 1-1.43 1.4 1.384 1.384 0 0 1-1.4-1.401z" transform="translate(341.319 -182.57)"/>
                <path id="패스_2341" data-name="패스 2341" class="cls-2" d="M-307.088 193.5h-3.144v5.542a1.423 1.423 0 0 1-1.43 1.4 1.417 1.417 0 0 1-1.4-1.4v-15.067a1.4 1.4 0 0 1 1.4-1.4h4.574a5.484 5.484 0 0 1 5.492 5.492 5.474 5.474 0 0 1-5.492 5.433zm-3.144-2.836h3.144a2.646 2.646 0 0 0 2.657-2.606 2.656 2.656 0 0 0-2.657-2.657h-3.144z" transform="translate(346.072 -182.57)"/>
            </g>
        </g>
    </g>
</svg>
