<svg id="img_1" xmlns="http://www.w3.org/2000/svg" width="456.816" height="320" viewBox="0 0 456.816 320">
    <defs>
        <filter id="패스_2208" x="148.429" y="17.499" width="102" height="67.546" filterUnits="userSpaceOnUse">
            <feOffset/>
            <feGaussianBlur stdDeviation="5" result="blur"/>
            <feFlood flood-color="#dbe6ef" flood-opacity=".2"/>
            <feComposite operator="in" in2="blur"/>
            <feComposite in="SourceGraphic"/>
        </filter>
        <style>
            .cls-1{fill:#efa47d}.cls-2{fill:#f2b18f}.cls-3{fill:#d8e4ff}.cls-4{fill:#edf3ff}.cls-5{fill:#4a63fe}.cls-16,.cls-6,.cls-8{fill:none;stroke-miterlimit:10}.cls-6,.cls-8{stroke:#2c1817}.cls-6{stroke-width:.75px}.cls-7{fill:#2c1817}.cls-8{stroke-width:.5px}.cls-9{fill:#e6e6e6}.cls-12{fill:#fff}.cls-14{fill:#383837}.cls-15{fill:#ff7d12}.cls-16{stroke:#edf3ff;stroke-width:.25px}.cls-21{fill:#b1c1d9}
        </style>
    </defs>
    <g id="그룹_786" data-name="그룹 786">
        <g id="그룹_783" data-name="그룹 783" transform="translate(216.329 42.791)">
            <g id="그룹_778" data-name="그룹 778" transform="translate(17.351 126.605)">
                <path id="패스_2251" data-name="패스 2251" class="cls-1" d="M488.856 320.185c2.907 10.837 12.366 21.071 16.311 21.479 4.5 0 9.1-1.205 12.478-4.381-1.484-5.53-3.3-11.25-4.782-16.786a19.718 19.718 0 0 0-2.316-5.971 11.41 11.41 0 0 0-10.167-4.715 15.359 15.359 0 0 0-10.179 5.234 5.467 5.467 0 0 0-1.345 5.14z" transform="translate(-484.036 -284.892)"/>
                <path id="패스_2252" data-name="패스 2252" class="cls-2" d="M497.3 292.606c-.658-1.239-1.808-2.665-3.147-2.235s-1.44 2.285-1.217 3.68a116.681 116.681 0 0 0 4.191 16.217 20.144 20.144 0 0 0 2.232 5.3 6.675 6.675 0 0 0 4.648 3.089.927.927 0 0 0 1.155-.672c2.812-6.604-4.833-19.685-7.862-25.379z" transform="translate(-482.881 -290.292)"/>
                <path id="패스_2253" data-name="패스 2253" class="cls-2" d="M497.5 306.659c-2 .6-2.411 3.32-2.768 3.142-1.853-.9-2.684-2.165-3.867-1.518s-.792 3.571-2.093 3.761c-.569-.937-4.275-.631-3.655 3.4.636 4.152 3.421 10.229 6.847 8.867a4.715 4.715 0 0 0 2.4-2.779 4.428 4.428 0 0 0 3.259 1.8c1.356.067 2.79-.82 2.785-1.948 1.752 1.233 1.752 1.233 5.4.385 1.408-.322-1.131-17.292-8.308-15.11z" transform="translate(-485.043 -285.811)"/>
                <path id="패스_2254" data-name="패스 2254" class="cls-2" d="M512.034 323.3c-1.194-4.213-2.522-16.735-5.212-17.7-2.829-1-11.144 3.644-12.394 5.179s-1.674 3.945-.4 5.457c.993 1.183 7.12-.022 8.421-.865-1.5 1.507-2.405 14.76 4.129 13.823 2.113-.303 6.036-3.835 5.456-5.894z" transform="translate(-482.767 -286.089)"/>
            </g>
            <path id="패스_2255" data-name="패스 2255" class="cls-3" d="m495.164 340.752 21.094-18.482 34.291 65.943s-2.762 27.187-19.905 28.962c-10.201 1.06-35.48-76.423-35.48-76.423z" transform="translate(-464.89 -154.833)"/>
            <path id="패스_2256" data-name="패스 2256" class="cls-3" d="M578.813 277.633s-40.736 19.146-44.464 30.034-12.913 106.6-12.913 106.6l25.178 7.307z" transform="translate(-457.617 -167.193)"/>
            <g id="그룹_779" data-name="그룹 779" transform="translate(89.374 110.44)">
                <path id="패스_2257" data-name="패스 2257" class="cls-4" d="M609.9 279.064s50.77 4.969 58.75 10.293 29.794 128.2 22.394 140.307c-7.991 13.047-52.455 14.068-52.455 14.068h-96.965s-1.272-147.134 2.958-149.838c11.853-7.595 28.683-16.261 28.683-16.261z" transform="translate(-541.445 -277.633)"/>
            </g>
            <path id="패스_2258" data-name="패스 2258" class="cls-5" d="m581.118 288.363-12.327 7.486 7.221 9.169-7.221 135.745h34.688l-19.532-135.745 5.112-10.7z" transform="translate(-444.494 -164.222)"/>
            <path id="패스_2259" data-name="패스 2259" class="cls-6" d="m559.663 281.679 8.906 18.306 15.078-9.157 12.2 9.157 17.453-20.524" transform="translate(-447.026 -166.687)"/>
            <g id="그룹_780" data-name="그룹 780" transform="translate(68.856)">
                <path id="패스_2260" data-name="패스 2260" class="cls-2" d="m566.359 291.988 1.1-48.769 30.384-17.419L603 293.417s-21.881 17.204-36.641-1.429z" transform="translate(-514.024 -181.549)"/>
                <path id="패스_2261" data-name="패스 2261" class="cls-1" d="M591.459 245.274s-5.223 23.876-24.821 25.592l.748-25.452z" transform="translate(-513.952 -176.155)"/>
                <path id="패스_2262" data-name="패스 2262" class="cls-2" d="M545.646 239.192c3.828 39.436 13.493 49.779 38.1 30.884 13.538-10.388 23.231-19.252 21.25-45.234-1.345-17.678-14.492-25.639-38.047-23.4-18.765 1.784-22.939 20.92-21.303 37.75z" transform="translate(-519.853 -188.395)"/>
                <path id="패스_2263" data-name="패스 2263" class="cls-7" d="M618.732 207.66c-1.038-3.32-2.746-6.76-6-8.384-4.431-2.221-5.508-1.069-10.045.915.173-4.35-2.656-8.387-5.619-8.705-21.925-2.352-68.817 8.075-71.317 13.725-2.472 5.611 8 9.046 10.469 9.573-2.02-.131-7.081 2.31-8.186 3.9-2.148 3.075 1.909 6.613 13.984 6.671-6.345 4.166-.106 9.032 10.776 5.625 3.962-1.242 22.31-7.564 33.136-11.911 7.489-3.011 16.295.538 18.9 7.838 4.113 11.6 5.106 28.906 5.954 29.305 6.094 2.854 9.213-4.936 9.609-16.942.281-8.599.934-23.354-1.661-31.61z" transform="translate(-525.377 -191.146)"/>
                <path id="패스_2264" data-name="패스 2264" class="cls-7" d="M564.2 227.2c-.034 1.1 4.693 2.388 7.5 2.626s3.795-.566 3.828-1.66-3.382-2.277-6.194-2.517-5.105.456-5.134 1.551z" transform="translate(-514.62 -181.604)"/>
                <path id="패스_2265" data-name="패스 2265" class="cls-7" d="M564.218 234.788c-.078 1.6.469 2.938 1.239 2.977s1.445-1.23 1.535-2.838-.469-2.938-1.244-2.977c-.76-.039-1.448 1.231-1.53 2.838z" transform="translate(-514.62 -179.844)"/>
                <path id="패스_2266" data-name="패스 2266" class="cls-7" d="M558.953 226.734c-.028 1.094-4.794 1.579-7.606 1.342s-3.75-1.211-3.722-2.307 3.488-1.691 6.289-1.451 5.067 1.319 5.039 2.416z" transform="translate(-519.216 -181.972)"/>
                <path id="패스_2267" data-name="패스 2267" class="cls-7" d="M556.169 234.364c-.089 1.607-.77 2.877-1.535 2.838s-1.317-1.376-1.239-2.983.77-2.871 1.546-2.832c.759.039 1.307 1.373 1.228 2.977z" transform="translate(-517.617 -180.002)"/>
                <path id="패스_2268" data-name="패스 2268" class="cls-7" d="M560.14 249.765h-.067a2.216 2.216 0 0 1-1.869-.935c-.614-.954.313-7.109 1.585-15.059.206-1.247.379-2.394.536-3.357l.625.1c-.145.96-.329 2.112-.525 3.359-.776 4.819-2.221 13.786-1.68 14.612a1.577 1.577 0 0 0 1.345.642h.061a1.881 1.881 0 0 0 1.512-.65l.519.371a2.536 2.536 0 0 1-2.042.917z" transform="translate(-516.34 -180.271)"/>
                <path id="패스_2269" data-name="패스 2269" class="cls-7" d="M561.663 253.107a7.025 7.025 0 0 1-4.113-1.911l.441-.463c.017.02 2.009 1.858 3.884 1.727 1.858-.142 3.432-2.818 3.438-2.846l.558.321c-.067.123-1.747 3-3.945 3.158-.09.007-.174.014-.263.014z" transform="translate(-516.466 -174.953)"/>
                <ellipse id="타원_146" data-name="타원 146" class="cls-2" cx="8.993" cy="8.5" rx="8.993" ry="8.5" transform="rotate(-48.7 88.373 -61.686)"/>
                <path id="패스_2270" data-name="패스 2270" class="cls-8" d="M600.605 223.72a11.651 11.651 0 0 0-9.487 3.717 9.377 9.377 0 0 1 6.574 2.157" transform="translate(-507.173 -182.136)"/>
            </g>
            <g id="그룹_782" data-name="그룹 782" transform="translate(0 192.137)">
                <g id="그룹_781" data-name="그룹 781">
                    <path id="패스_2271" data-name="패스 2271" class="cls-9" d="M602.971 409.049h-112.9l-18.382-61.964c-.9-3.025.826-5.474 3.85-5.474h101.952a7.943 7.943 0 0 1 7.1 5.474z" transform="translate(-471.455 -341.611)"/>
                    <path id="패스_2272" data-name="패스 2272" class="cls-9" d="M599.1 409.049H490.075l-18.382-61.964c-.9-3.025.826-5.474 3.85-5.474h98.085a7.936 7.936 0 0 1 7.093 5.474z" transform="translate(-471.455 -341.611)"/>
                </g>
                <path id="패스_2273" data-name="패스 2273" d="M521.714 399.992h112.9a2.789 2.789 0 0 0 2.779-2.79 2.79 2.79 0 0 0-2.779-2.8h-112.9a2.794 2.794 0 0 0-2.8 2.8 2.792 2.792 0 0 0 2.8 2.79z" transform="translate(-458.312 -326.989)" style="fill:#b2b2b2"/>
                <path id="패스_2274" data-name="패스 2274" d="M486.644 399.992h112.9a2.791 2.791 0 0 0 2.79-2.79 2.792 2.792 0 0 0-2.79-2.8h-112.9a2.794 2.794 0 0 0-2.8 2.8 2.792 2.792 0 0 0 2.8 2.79z" transform="translate(-468.024 -326.989)" style="fill:#cbcbcb"/>
                <ellipse id="타원_147" data-name="타원 147" class="cls-12" cx="9.577" cy="12.468" rx="9.577" ry="12.468" transform="rotate(-48.78 62.276 -33.017)"/>
                <path id="패스_2275" data-name="패스 2275" d="M601.761 397.935h4.888a1.026 1.026 0 0 0 1.027-1.021 1.023 1.023 0 0 0-1.027-1.021h-4.888a1.03 1.03 0 0 0-1.027 1.021 1.034 1.034 0 0 0 1.027 1.021z" transform="translate(-435.655 -326.576)" style="fill:#5e5d5b"/>
                <path id="패스_2276" data-name="패스 2276" class="cls-14" d="M597.875 396.914a1.016 1.016 0 1 0 2.031 0 1.016 1.016 0 1 0-2.031 0z" transform="translate(-436.438 -326.576)"/>
                <path id="패스_2277" data-name="패스 2277" class="cls-14" d="M595.163 396.914a1.021 1.021 0 1 0 1.016-1.021 1.024 1.024 0 0 0-1.016 1.021z" transform="translate(-437.193 -326.576)"/>
            </g>
            <path id="패스_2278" data-name="패스 2278" class="cls-2" d="M628.89 412.2c-7.316.675-17.4.536-20.324.664-6.568.29-34.687-9.794-31.892-12.065 1.579-1.289 4.939-.686 6.2-.2-.329.167-.363-2.215.653-2.9 2.539-1.708 11.613 4.475 25.112 2.98a11.972 11.972 0 0 1-6.133-5.77c-.9-2 1.032-3.772 1.841-3.365 3.2 1.59 6.244 3.292 9.475 4.794 3.644 1.7 6.6 3.616 13.828 4.464.693.082 1.368 11.388 1.24 11.398z" transform="translate(-442.368 -135.662)"/>
            <path id="패스_2279" data-name="패스 2279" class="cls-6" d="M639.053 292.213c-6.741 6-12.221 13.856-13.627 22.773-.859 5.474-.156 11.054.547 16.551q5.022 39.346 10.056 78.691" transform="translate(-428.925 -163.155)"/>
            <path id="패스_2280" data-name="패스 2280" class="cls-6" d="m647.392 382.691-32 7.02 2.723 24.922" transform="translate(-431.595 -138.096)"/>
        </g>
        <g id="그룹_785" data-name="그룹 785">
            <path id="패스_2281" data-name="패스 2281" class="cls-15" d="M366.431 288.245s-33.281 15.991-40.547 22.994c-6.936 6.694 0 129.952 0 129.952h123.4s0-114.933-3.728-123.024c-5.882-12.759-42.489-31.353-42.489-31.353z" transform="translate(-296.297 -121.862)"/>
            <path id="패스_2282" data-name="패스 2282" class="cls-16" d="M350.36 291.2s8.437 38.7 9.754 148.769" transform="translate(-288.66 -120.644)"/>
            <path id="패스_2283" data-name="패스 2283" class="cls-16" d="M392.223 290.367s9.241 5.463 7.539 149.838" transform="translate(-277.071 -120.879)"/>
            <path id="패스_2284" data-name="패스 2284" class="cls-16" d="M408.994 305.942s6.747 67.037 7.472 129.949" transform="translate(-272.426 -116.561)"/>
            <path id="패스_2285" data-name="패스 2285" class="cls-12" d="M356.967 288.245s9.727 58.334 9 152.946h36.123s4.258-99.874-8.477-154.378z" transform="translate(-286.834 -121.862)"/>
            <g id="그룹_784" data-name="그룹 784" transform="translate(17.334)">
                <ellipse id="타원_148" data-name="타원 148" class="cls-7" cx="32.22" cy="28.661" rx="32.22" ry="28.661" transform="rotate(-30 60.124 16.113)"/>
                <ellipse id="타원_149" data-name="타원 149" cx="26.871" cy="21.358" rx="26.871" ry="21.358" transform="rotate(-30.001 122.318 -13.948)" style="fill:#ffcc8a"/>
                <ellipse id="타원_150" data-name="타원 150" class="cls-7" cx="45.626" cy="47.492" rx="45.626" ry="47.492" transform="translate(27.983 44.804)"/>
                <ellipse id="타원_151" data-name="타원 151" class="cls-7" cx="28.602" cy="36.898" rx="28.602" ry="36.898" transform="translate(78.455 56.03)"/>
                <path id="패스_2286" data-name="패스 2286" class="cls-2" d="m393.613 301.169-1.1-48.766-30.385-17.422-5.156 67.62s21.881 17.199 36.641-1.432z" transform="translate(-304.169 -136.216)"/>
                <path id="패스_2287" data-name="패스 2287" class="cls-1" d="M369.328 254.566s.151 17.9 19.76 19.615v-19.615z" transform="translate(-300.743 -130.791)"/>
                <path id="패스_2288" data-name="패스 2288" class="cls-2" d="M414.489 246.064c-3.828 39.436-15.29 34.944-34.018 26.919a32.47 32.47 0 0 1-18.487-37.966c4.157-16.267 19.163-25.639 33.526-20.937s20.614 15.153 18.979 31.984z" transform="translate(-303.069 -142.341)"/>
                <path id="패스_2289" data-name="패스 2289" class="cls-2" d="M367.8 237.376a8.176 8.176 0 0 1-8.717 8.281 9.369 9.369 0 0 1-8.722-9.258 8.181 8.181 0 0 1 8.722-8.281 9.364 9.364 0 0 1 8.717 9.258z" transform="translate(-305.999 -138.121)"/>
                <path id="패스_2290" data-name="패스 2290" class="cls-8" d="M353.472 232.9a11.642 11.642 0 0 1 9.492 3.719 9.383 9.383 0 0 0-6.574 2.154" transform="translate(-305.137 -136.804)"/>
                <path id="패스_2291" data-name="패스 2291" class="cls-7" d="M390.434 230.524c.1.843-4.531 2.068-7.321 2.386s-3.823-.254-3.923-1.1 3.237-1.92 6.021-2.241 5.129.11 5.223.955z" transform="translate(-298.011 -137.743)"/>
                <path id="패스_2292" data-name="패스 2292" class="cls-7" d="M389.041 238.958c.184 1.6-.285 2.963-1.044 3.05s-1.523-1.138-1.713-2.734.29-2.96 1.055-3.05 1.523 1.138 1.702 2.734z" transform="translate(-296.06 -135.872)"/>
                <path id="패스_2293" data-name="패스 2293" class="cls-7" d="M395.647 229.9c.095.843 4.883.991 7.673.67s3.666-1.113 3.571-1.959-3.583-1.138-6.373-.82-4.966 1.267-4.871 2.109z" transform="translate(-293.456 -138.242)"/>
                <path id="패스_2294" data-name="패스 2294" class="cls-7" d="M397.052 238.042c.184 1.6.949 2.824 1.713 2.734s1.222-1.454 1.044-3.05-.949-2.821-1.708-2.734-1.234 1.451-1.049 3.05z" transform="translate(-293.076 -136.215)"/>
                <path id="패스_2295" data-name="패스 2295" class="cls-8" d="M392.379 234.4c1.177 5.41 3.945 16.858 3.287 18.025a2.284 2.284 0 0 1-3.443.218" transform="translate(-294.405 -136.376)"/>
                <path id="패스_2296" data-name="패스 2296" class="cls-8" d="M389.762 253.88s1.814 2.743 3.873 2.768 4.012-2.062 4.012-2.062" transform="translate(-295.084 -130.981)"/>
                <path id="패스_2297" data-name="패스 2297" class="cls-7" d="M413.128 216.305s-17.3 17.068-34.079 18.357l-16.785 1.289s-5.575-19.071 2.74-24.794 48.124 5.148 48.124 5.148z" transform="translate(-303.208 -143.275)"/>
            </g>
            <path id="패스_2298" data-name="패스 2298" class="cls-6" d="M358 301.2s12.316 6.847 21.585 5.391 16.715-9.071 16.715-9.071" transform="translate(-286.546 -118.896)"/>
            <path id="패스_2299" data-name="패스 2299" d="M488.235 345.8h-61.507l-45.34 79.057h58.549z" transform="translate(-280.069 -105.525)" style="fill:#f5a345"/>
            <path id="패스_2300" data-name="패스 2300" class="cls-2" d="M350.7 388.486c3.945-.664 46.244-16.451 50.19-17.121a1.262 1.262 0 0 0 .179 2.059c1.847 1.122 11.345-4.7 11.133-6.685a12.032 12.032 0 0 0-2.015-5.011c3.331.279 6.892.5 10.251.5 4.063 0 4.967-.519 5.089-2.338.084-1.228-5.374-1.9-12.383-2.924-2.935-.43-7.628-1.618-10.279-.312-19.587 9.643-53.756 16.914-60.8 18.767-2.965 5.096 0 13.065 8.635 13.065z" transform="translate(-291.267 -102.685)"/>
            <path id="패스_2301" data-name="패스 2301" class="cls-15" d="M331.633 305.942s-15.474 10.083-29.52 107.8c-2.422 16.83 59.5-6.881 59.5-6.881l-2.455-19.09-27.327 6.027z" transform="translate(-302.044 -116.561)"/>
            <path id="패스_2302" data-name="패스 2302" class="cls-4" d="m338.523 369.3 15.173-2.952 7.516 26.451-17.829 4.208s-8.9-7.045-4.86-27.707z" transform="translate(-292.232 -99.832)"/>
            <path id="선_178" data-name="선 178" class="cls-16" transform="translate(20.879 271.202)" d="M0 5.541 36.231 0"/>
            <path id="패스_2303" data-name="패스 2303" class="cls-16" d="M327.988 308.731c7.706 6.328 15.993 13.672 17.1 23.588.675 6.021-9.381 40.982-15.2 58.052" transform="translate(-294.858 -115.79)"/>
            <path id="패스_2304" data-name="패스 2304" d="M491.646 345.8h-61.507L384.8 424.856h58.549z" transform="translate(-279.124 -105.525)" style="fill:#e59840"/>
            <path id="패스_2305" data-name="패스 2305" class="cls-2" d="M439.936 403.3s9.961-4.961 13.181-10.318 2.511-9.275 2.511-13.164c0-3-7.048-18.761-9.877-17.227-2.1 1.138 1.931 10.508 1.931 10.508s-5.151-10.324-7.294-8.482 4.079 13.85 4.079 13.85-5.151-8.371-7.3-6.44 4.5 10.458 4.5 10.458-5-5.949-7-3.661 11.9 13.616 11.9 13.616z" transform="translate(-265.37 -100.903)"/>
        </g>
    </g>
    <g id="그룹_747" data-name="그룹 747" transform="translate(220.571 96)">
        <path id="패스_2208-2" data-name="패스 2208" class="cls-5" d="M913.64 293.277a16.346 16.346 0 0 0-16.34-16.345h-36.841a16.342 16.342 0 1 0 0 32.684H897.3a16.235 16.235 0 0 0 4.565-.658l6.161 4.233-1.786-6.241a16.318 16.318 0 0 0 7.4-13.673z" transform="translate(-844.109 -276.932)"/>
        <g id="그룹_746" data-name="그룹 746" transform="translate(20.571 13.491)">
            <circle id="타원_142" data-name="타원 142" class="cls-12" cx="2.651" cy="2.651" r="2.651"/>
            <circle id="타원_143" data-name="타원 143" class="cls-12" cx="2.651" cy="2.651" r="2.651" transform="translate(11.38)"/>
            <circle id="타원_144" data-name="타원 144" class="cls-12" cx="2.651" cy="2.651" r="2.651" transform="translate(22.76)"/>
        </g>
    </g>
    <g id="그룹_787" data-name="그룹 787" transform="translate(163.429 32.499)">
        <g transform="translate(-163.43 -32.5)" style="filter:url(#패스_2208)">
            <path id="패스_2208-3" data-name="패스 2208" class="cls-12" d="M844.109 293.858a16.927 16.927 0 0 1 16.919-16.925h38.15a16.922 16.922 0 1 1 0 33.844h-38.15a16.811 16.811 0 0 1-4.727-.682l-6.379 4.383 1.849-6.463a16.9 16.9 0 0 1-7.662-14.157z" transform="translate(-680.68 -244.43)"/>
        </g>
        <g id="그룹_746-2" data-name="그룹 746" transform="translate(21.64 13.97)" style="opacity:.5">
            <circle id="타원_142-2" data-name="타원 142" class="cls-21" cx="2.745" cy="2.745" r="2.745" transform="translate(23.568)"/>
            <circle id="타원_143-2" data-name="타원 143" class="cls-21" cx="2.745" cy="2.745" r="2.745" transform="translate(11.784)"/>
            <circle id="타원_144-2" data-name="타원 144" class="cls-21" cx="2.745" cy="2.745" r="2.745"/>
        </g>
    </g>
</svg>
